<svg width="118" height="26" viewBox="0 0 118 26" fill="none" xmlns="http://www.w3.org/2000/svg">
<path fill-rule="evenodd" clip-rule="evenodd" d="M66.5421 19.3044C70.3112 21.7381 74.6603 23.0123 79.0906 22.9812L79.9093 22.9809C84.1733 22.8045 88.3224 21.4857 91.9574 19.151C94.8909 20.7805 98.1534 21.6558 101.475 21.7039C103.225 21.6704 104.959 21.3794 106.627 20.8425L107.947 25.0137C108.179 25.7477 109.119 25.9551 109.638 25.3871L117.47 16.824C117.99 16.256 117.7 15.3386 116.948 15.1726L105.616 12.6712C104.864 12.5053 104.215 13.2153 104.447 13.9492L105.858 18.4107C104.423 18.8706 102.932 19.1206 101.426 19.1508C98.8983 19.1072 96.4045 18.5292 94.0947 17.4536C94.9412 16.6487 95.6954 15.7448 96.3431 14.76C98.1644 12.3131 98.9545 9.19728 98.53 6.12959C98.2505 4.4413 97.4169 2.90608 96.1735 1.78853C94.9299 0.671034 93.3524 0.0396868 91.7125 0.00227229C89.9108 -0.0351423 88.1611 0.630934 86.8052 1.8705C85.4492 3.10988 84.585 4.83394 84.3812 6.70485C84.1819 9.6631 85.1235 12.582 86.996 14.8109C87.775 15.8706 88.6827 16.8189 89.696 17.6319C86.6388 19.3026 83.2698 20.2572 79.824 20.4281C75.9315 20.5697 72.0757 19.6026 68.6683 17.6319C69.5956 16.7859 70.4163 15.8206 71.1118 14.7601C72.9459 12.3193 73.7411 9.20009 73.3115 6.12971C73.0336 4.44234 72.2026 2.90797 70.9617 1.78956C69.7197 0.672011 68.1439 0.0397479 66.5059 0.00239436C64.7023 -0.0403913 62.95 0.623061 61.5923 1.86433C60.2354 3.10469 59.3729 4.83223 59.1743 6.70491C58.6978 10.5857 60.9462 13.6622 61.7891 14.8109C62.5577 15.8572 63.4347 16.8118 64.4038 17.6577C61.1847 19.3967 57.6289 20.3442 54.0059 20.4279C50.4483 20.2927 46.9632 19.3327 43.803 17.6195C44.7234 16.7708 45.5442 15.8109 46.2474 14.7601C48.0686 12.3132 48.8578 9.1974 48.4343 6.12971C48.1537 4.44148 47.3203 2.9062 46.0767 1.78865C44.8333 0.671157 43.2565 0.0398089 41.6159 0.00239436C39.8149 -0.0350202 38.0653 0.631056 36.7093 1.87062C35.3533 3.11006 34.4891 4.83412 34.2855 6.70497C33.8113 10.5531 36.0349 13.6182 36.8875 14.7935L36.9002 14.811C37.6656 15.8564 38.5383 16.811 39.5023 17.6579C36.4724 19.3042 33.1382 20.249 29.7273 20.428C25.8331 20.5463 21.9799 19.5677 18.5724 17.5935C19.5074 16.7752 20.3298 15.8259 21.0159 14.7725C22.8611 12.3345 23.6453 9.20003 23.1782 6.12959C22.9011 4.44221 22.0701 2.90785 20.8284 1.78944C19.5864 0.67195 18.0115 0.0396868 16.3725 0.00227229C14.5692 -0.0440534 12.8143 0.619399 11.4565 1.86067C10.0989 3.10194 9.23724 4.8304 9.04205 6.70485H9.0412C8.5647 10.5856 10.813 13.6622 11.656 14.8109C12.3829 15.7833 13.202 16.6773 14.1003 17.4788C11.7267 18.5687 9.16559 19.1377 6.57373 19.1511C4.62622 19.1119 2.70093 18.705 0.891479 17.9516L0 20.3381C2.06775 21.1787 4.25812 21.6409 6.47583 21.7041C9.88409 21.6943 13.2387 20.8182 16.2508 19.1512C20.2923 21.8414 25.0244 23.1771 29.8134 22.9812C34.0381 22.8271 38.1581 21.5581 41.7872 19.2918C45.5032 21.5636 49.7025 22.8316 54.0057 22.9812C58.4197 22.9196 62.7417 21.6526 66.5421 19.3044ZM63.0699 3.87239C63.9307 3.04335 65.0541 2.57497 66.2242 2.55537L66.4073 2.55568C67.4974 2.58064 68.5458 3.00001 69.3724 3.74269C70.1992 4.48622 70.754 5.50581 70.9407 6.62868C71.2262 9.02138 70.5742 11.4346 69.1321 13.3179C68.4214 14.3937 67.5657 15.3571 66.5907 16.1773C65.5364 15.3392 64.592 14.3606 63.7806 13.2662C62.2755 11.5866 61.4752 9.34895 61.5571 7.0497C61.6704 5.83235 62.2091 4.70143 63.0699 3.87239ZM38.2664 3.87239C39.1271 3.04335 40.2505 2.57497 41.4207 2.55537L41.5672 2.55543C42.6462 2.59285 43.6791 3.01851 44.4922 3.76118C45.3044 4.50288 45.8474 5.51625 46.0272 6.62843C46.3162 9.01955 45.6684 11.4317 44.2306 13.3178C43.5241 14.397 42.6675 15.3605 41.6891 16.1771C40.6366 15.3471 39.6948 14.3721 38.8911 13.2794C37.4158 11.5814 36.6461 9.34004 36.7535 7.0497C36.8669 5.83235 37.4055 4.70143 38.2664 3.87239ZM88.3622 3.87239C89.2229 3.04335 90.3455 2.57497 91.5165 2.55537L91.6631 2.55543C92.7411 2.59285 93.7749 3.01851 94.5872 3.76118C95.4003 4.50288 95.9424 5.51625 96.1222 6.62843C96.412 9.01955 95.7642 11.4317 94.3264 13.3178C93.6438 14.3668 92.8204 15.308 91.8829 16.113C90.7819 15.332 89.8052 14.3756 88.9869 13.2794C87.5005 11.5875 86.73 9.34187 86.8485 7.0497C86.9626 5.83235 87.5013 4.70143 88.3622 3.87239ZM12.975 3.87239C13.8357 3.04335 14.9582 2.57497 16.1284 2.55537L16.3116 2.55568C17.4025 2.58064 18.45 3.00001 19.2776 3.74269C20.1043 4.48622 20.6583 5.50581 20.845 6.62868C21.1586 9.01771 20.5083 11.4363 19.0492 13.3045C18.318 14.3829 17.4222 15.3278 16.3978 16.1007C15.3835 15.2778 14.4724 14.3259 13.6848 13.2662C12.1806 11.5866 11.3795 9.34895 11.4613 7.0497C11.5755 5.83235 12.1141 4.70143 12.975 3.87239Z" fill="black"/>
</svg>
