<svg width="36" height="24" viewBox="0 0 36 24" fill="none" xmlns="http://www.w3.org/2000/svg">
<path fill-rule="evenodd" clip-rule="evenodd" d="M35.1613 21.8863V21.91L35.1347 21.9225L35.1665 22.5398C35.1742 22.6704 35.0753 22.7811 34.9448 22.7811L34.5845 22.7891C34.3827 22.793 34.169 22.793 33.9672 22.793C33.6624 22.785 33.346 22.7731 33.0451 22.7612H33.0293L32.8939 22.7565C32.3657 22.7381 31.8204 22.7191 31.2917 22.7336C28.6838 22.8087 26.0436 23.0144 23.4474 23.3391C22.1854 23.4959 20.9011 23.5788 19.6554 23.6592L19.5252 23.6676C19.0424 23.6952 18.5554 23.727 18.0687 23.7626C17.2691 23.8219 16.418 23.8694 15.3179 23.9208C14.7914 23.9445 14.2729 23.9525 13.6951 23.9525L11.9456 23.9644C9.57513 23.9801 7.12517 23.9961 4.71478 24H4.62782C3.67017 24 2.79556 23.9724 1.9524 23.913C1.57641 23.8854 1.15674 23.7863 0.673882 23.6044C0.155408 23.4106 -0.117633 22.8366 0.0485674 22.3063C0.579863 20.6088 0.950045 18.8483 1.30843 17.1439L1.30844 17.1438L1.33896 16.9987L1.36177 16.8905L1.36178 16.8905C1.53646 16.0619 1.7154 15.2133 1.90878 14.3826C2.1225 13.4567 2.43913 12.5028 2.93386 11.2917C3.40484 10.1322 3.84018 9.08722 4.26369 8.09777C4.37825 7.82821 4.50263 7.55865 4.6253 7.29281L4.62531 7.2928L4.62531 7.2928C4.65931 7.21912 4.69318 7.14572 4.72666 7.07269L4.73854 7.04895L4.80146 6.91359L4.80149 6.91352C4.87937 6.74614 4.95661 6.58015 5.03145 6.41177C5.05553 6.35774 5.07278 6.30134 5.09176 6.2393L5.09178 6.23922C5.09782 6.21948 5.10403 6.19918 5.11068 6.17821L4.99998 6.10311L4.90173 6.03543C4.77093 5.94546 4.64463 5.85859 4.52099 5.76658C3.70546 5.16916 3.42055 4.23101 3.76095 3.26531C3.7817 3.19943 3.80836 3.13671 3.83595 3.07182L3.84791 3.04362L3.8521 3.03357C3.90986 2.89499 3.96304 2.76741 3.97463 2.64772C4.04969 1.86004 4.49311 1.32973 5.3321 1.02494C5.98118 0.791384 6.95876 0.534083 7.96009 1.05255C9.01273 1.59859 9.53921 2.48507 9.51933 3.69624C9.50357 4.69757 9.00496 5.44162 7.99564 5.9681C7.83717 6.0512 7.67097 6.12242 7.49291 6.19752L7.47303 6.20552C7.49772 6.24747 7.52248 6.29032 7.54724 6.33316L7.54725 6.33319L7.54726 6.33321C7.57398 6.37945 7.60071 6.4257 7.62736 6.47083L7.67484 6.55007L7.69414 6.58319C7.92431 6.97833 8.14134 7.3509 8.40697 7.68582C9.70916 9.32817 10.8253 10.9747 11.8187 12.7162C11.9297 12.653 12.0246 12.5936 12.0997 12.5263C12.2701 12.3681 12.4324 12.1977 12.5906 12.0315L12.6063 12.0117C12.6351 11.9819 12.6638 11.9519 12.6926 11.9219L12.6928 11.9216L12.6928 11.9216L12.6928 11.9216C12.7712 11.8397 12.8501 11.7574 12.931 11.6793C13.1045 11.5084 13.2779 11.3412 13.4514 11.174L13.4516 11.1738L13.4516 11.1737L13.4517 11.1737C13.5354 11.093 13.6192 11.0122 13.7029 10.9311L13.7703 10.8679C14.3283 10.3336 14.9022 9.77956 15.4326 9.2056C16.1724 8.40605 16.877 7.54331 17.5578 6.70821L17.6685 6.56962C17.8385 6.36396 18.1 6.01169 18.2463 5.79L18.2543 5.77813L18.3118 5.69387C18.4394 5.50669 18.5695 5.31584 18.7173 5.13708C18.828 5.0065 18.828 4.96288 18.7173 4.79668C18.5116 4.48386 18.3612 4.19895 18.2463 3.9179C17.7121 2.58412 18.5434 0.890148 19.6436 0.264833C20.2451 -0.0794357 20.9179 -0.0874431 21.6975 0.237226C22.4217 0.538162 23.0351 1.05275 23.526 1.76502C24.1552 2.67143 24.005 3.8508 23.1737 4.50786C22.8571 4.75716 22.4929 4.94323 22.1406 5.1213C22.0258 5.17679 21.9109 5.23615 21.8002 5.2955C21.6536 5.37273 21.5108 5.43108 21.3424 5.49994L21.3292 5.50532L21.266 5.53293L23.1343 11.5922C23.1528 11.5643 23.1691 11.5341 23.1866 11.5013L23.1866 11.5013L23.2016 11.4735L23.2372 11.4061C24.0088 9.99313 24.8083 8.53269 25.7859 7.20286C25.9836 6.93374 26.1815 6.66073 26.3794 6.38773L26.3795 6.38762L26.4469 6.29651C26.7121 5.92851 26.9852 5.55251 27.2582 5.1845C27.3927 5.00643 27.5393 4.8441 27.6936 4.67404L27.8004 4.55919C27.7569 4.49199 27.7096 4.42094 27.6622 4.34989L27.6618 4.34937C27.0128 3.332 27.0166 2.125 27.6737 1.12756C28.4809 -0.0995713 29.7039 0.00755192 30.361 0.177611C31.2635 0.415081 31.9282 0.945358 32.2885 1.72116C32.4034 1.96659 32.4509 2.17641 32.4271 2.35834C32.2766 3.58937 31.7424 4.39659 30.7925 4.8281C30.6984 4.87036 30.6098 4.92298 30.5177 4.97764L30.4559 5.01417C30.4521 5.01831 30.4479 5.02218 30.4441 5.02218C30.4678 5.08152 30.4925 5.14086 30.5172 5.2002C30.5419 5.25957 30.5666 5.31895 30.5904 5.37832C30.7566 5.77813 30.9266 6.18973 31.0652 6.61323C31.5282 8.02589 32.1298 9.89024 32.7076 11.7899C33.3329 13.8558 33.8238 15.5537 34.2511 17.129C34.544 18.2056 34.8052 19.3533 35.0506 20.6357C35.1296 21.0431 35.1456 21.4509 35.1613 21.8863ZM29.6718 1.84382C29.3988 1.92278 29.1652 2.18809 29.0622 2.54423L29.0586 2.54038C28.9637 2.87664 29.015 3.20931 29.1931 3.40311C29.205 3.41112 29.3118 3.42686 29.3513 3.41112C29.8659 3.2369 30.2102 2.9796 30.4357 2.60358C30.5663 2.3899 30.6138 2.22343 30.5743 2.12459C30.5387 2.02962 30.404 1.94652 30.1903 1.8833C30.125 1.86154 30.0498 1.84976 29.9799 1.8388L29.9609 1.83581L29.854 1.82008L29.7828 1.82808C29.7742 1.82902 29.7657 1.82972 29.7571 1.83042C29.7303 1.83264 29.7039 1.83481 29.6798 1.84382H29.6718ZM20.2954 2.14447L20.2441 2.23557L20.2405 2.23587L20.0624 3.11847L20.0544 3.14607L20.0451 3.18864C20.0328 3.24408 20.0226 3.28987 20.0226 3.32801C20.0226 3.54169 20.0861 3.70402 20.1968 3.77911C20.3274 3.87022 20.5016 3.8346 20.6242 3.78712C20.9448 3.66841 21.281 3.4942 21.6769 3.2369C21.9776 3.04696 22.0212 2.85702 21.847 2.54036C21.7164 2.30679 21.5342 2.09697 21.3442 1.96253C21.1228 1.80406 20.905 1.74471 20.7151 1.78833C20.5447 1.82781 20.4023 1.95066 20.2954 2.14447ZM5.70283 3.55327C5.68295 3.68413 5.66307 3.7987 5.63546 3.91355L5.63578 3.91745C5.60016 4.06791 5.58029 4.27773 5.68713 4.41217C5.7821 4.53089 5.96045 4.56264 6.09489 4.56264C6.36404 4.57064 6.6807 4.47153 6.95374 4.38457L6.99322 4.3727C7.53543 4.20265 7.67789 4.00468 7.67789 3.42685C7.67789 2.93624 7.36507 2.52047 6.94958 2.45725C6.86648 2.44538 6.78724 2.43737 6.71215 2.43737C6.2293 2.43737 5.90077 2.69439 5.78206 3.16151C5.75264 3.2787 5.73009 3.40299 5.70805 3.52451L5.70804 3.52453L5.70283 3.55327ZM33.2399 20.958C33.2159 20.967 33.1548 20.9842 33.0197 20.9956C32.9378 21.0035 32.8539 21.0044 32.7719 21.0053C32.7313 21.0058 32.6911 21.0062 32.6517 21.0075C32.5568 21.0075 32.4657 21.0075 32.3707 21.0113C31.9591 21.0312 31.5475 21.047 31.1358 21.0627H31.1082L31.0428 21.0653H31.0427C30.0856 21.104 29.0991 21.1438 28.1279 21.225C27.2373 21.2963 26.3508 21.407 25.4881 21.5179L25.4207 21.5259L25.1209 21.5624C24.7566 21.6067 24.3857 21.6519 24.0196 21.6921L23.5842 21.7396C22.5037 21.8622 21.2768 21.9969 20.1013 22.0999C17.8619 22.2974 15.5755 22.3097 13.3636 22.3215H13.3636H13.3635L13.3493 22.3216C12.4112 22.3255 11.4416 22.3335 10.4916 22.3492C9.28852 22.3729 8.06937 22.3492 6.88994 22.3255H6.68426C6.38976 22.314 6.09526 22.31 5.80073 22.306L5.80034 22.306L5.76986 22.3056C4.82401 22.2899 3.81858 22.262 2.60353 22.2186C2.47294 22.2148 2.33049 22.1869 2.18389 22.1554C2.19348 22.1192 2.20397 22.0829 2.21446 22.0466C2.22571 22.0077 2.23697 21.9687 2.24711 21.9298C2.34209 21.6013 2.42905 21.2927 2.49255 20.9721C2.85283 19.2149 3.20093 17.4933 3.52151 15.7556C3.98864 13.2384 4.9146 10.8876 5.66665 9.11851C5.82899 8.73863 6.01092 8.37451 6.205 7.98657C6.22846 7.93774 6.25287 7.88985 6.27729 7.84193C6.30229 7.79288 6.3273 7.7438 6.35132 7.69366L6.73534 8.21599C7.32504 9.01547 7.93463 9.84266 8.51629 10.6739C9.47812 12.0474 10.1391 13.1395 10.6534 14.212C10.681 14.2675 10.7047 14.3268 10.7285 14.3862L10.7285 14.3862V14.3981L10.7296 14.4009C10.8244 14.6339 10.9396 14.9173 11.2588 15.0946C11.7141 15.3439 12.0859 15.2965 12.4026 14.9561C12.6449 14.6946 12.8871 14.4256 13.1232 14.1634L13.2933 13.9746L13.309 13.9547C13.677 13.5431 14.0611 13.1157 14.4489 12.7079C15.2151 11.891 15.9979 11.0907 16.7941 10.2767L17.0214 10.0443C17.9633 9.08248 18.7667 8.0179 19.495 7.01268C19.5556 6.92727 19.6289 6.84499 19.7121 6.75158L19.7405 6.71977L19.7595 6.76639C19.823 6.92117 19.8792 7.05837 19.9224 7.19876L20.1916 8.04573L20.279 8.31971L20.279 8.31993L20.2791 8.3202C20.6319 9.42602 20.9953 10.5649 21.3315 11.6869C21.4938 12.233 21.6283 12.7951 21.7588 13.3412L21.7787 13.4204C21.8207 13.6024 21.8658 13.7816 21.9114 13.9629L21.9292 14.0338C22.0399 14.4731 22.5664 14.8096 22.9979 14.7185C23.3463 14.6393 23.7775 14.4891 24.015 13.9944L24.1892 13.6264L24.2584 13.4802L24.2585 13.4801C24.5613 12.8408 24.8732 12.1822 25.2261 11.5682C25.8277 10.5194 26.4767 9.4905 27.1062 8.49299L27.308 8.17246C27.7473 7.47592 28.2144 6.79514 28.618 6.20931C28.6885 6.11074 28.781 6.01196 28.8785 5.90769L28.9148 5.86891C29.1697 6.26807 29.3073 6.68559 29.4407 7.0899L29.457 7.13944L29.6745 7.80422C30.201 9.39909 30.7432 11.0498 31.23 12.7079C31.8473 14.8174 32.4212 16.9823 32.9596 19.0206C33.0863 19.5073 33.1495 20.022 33.2089 20.5206L33.2365 20.75C33.2519 20.8786 33.2435 20.9338 33.2407 20.9522L33.2399 20.958ZM18.6696 14.3468C19.1881 13.9432 19.5798 13.9274 20.0707 14.2954L20.0705 14.2957C21.2935 15.2101 21.6891 16.5952 21.1074 17.9132C20.8068 18.5978 20.4503 19.1478 20.0111 19.603L19.9954 19.6188C19.4808 20.1532 18.9466 20.7032 18.3726 21.2059C18.0559 21.4792 17.787 21.6612 17.4861 21.6612C17.2487 21.6612 16.9994 21.5543 16.5996 21.289C15.7924 20.7506 15.2501 20.0227 14.9848 19.1201C14.7789 18.4156 14.5812 17.6635 14.6207 16.864C14.6724 15.8033 15.0997 14.9564 15.8873 14.3468C16.564 13.8283 17.0273 13.8126 17.7277 14.2954C17.8602 14.3861 17.9865 14.486 18.1175 14.5896L18.171 14.632L18.2541 14.6952L18.2817 14.6714C18.4162 14.5525 18.539 14.4498 18.6696 14.3468ZM18.9388 18.269C19.2118 17.909 19.5009 17.4695 19.5958 16.9472L19.5959 16.9513C19.679 16.4883 19.6751 16.1361 19.4059 15.8393C19.3427 15.9779 19.2911 16.0966 19.2516 16.2153C19.2176 16.3225 19.1866 16.4327 19.1576 16.5357C19.1394 16.6001 19.1221 16.6617 19.1053 16.718V16.7338L19.0927 16.7805L19.0926 16.7806L19.0926 16.7807C19.0335 16.9995 18.9728 17.2242 18.8916 17.4422L18.8889 17.4493C18.8232 17.6225 18.6348 18.1189 18.1001 18.1268C17.7161 18.1268 17.3914 17.9051 17.2332 17.5291C17.1738 17.3944 17.1738 17.2481 17.1738 17.1332V17.0184C17.1697 16.9676 17.1667 16.9158 17.1637 16.8636L17.1637 16.8634C17.1608 16.8138 17.1579 16.7637 17.154 16.7136L17.146 16.5949C17.1302 16.3375 17.1142 16.0764 17.0866 15.8191C17.0557 15.5472 16.9407 15.5308 16.884 15.5227L16.8809 15.5223H16.8572C16.8058 15.5223 16.7385 15.538 16.6198 15.7636C16.2556 16.4524 16.1526 17.0065 16.2832 17.5606C16.3068 17.6587 16.3276 17.7596 16.3479 17.8585L16.3583 17.909L16.3586 17.9103C16.414 18.1789 16.4653 18.4278 16.5483 18.6649C16.7145 19.1439 16.9044 19.587 17.411 19.7731C17.9413 19.4247 18.4283 18.9457 18.9388 18.269ZM8.72731 14.5287C8.64421 14.485 8.3513 14.3545 8.11001 14.4494C7.57166 14.6631 7.03362 14.9403 6.70088 15.5258C6.47623 15.9255 6.20767 16.3144 5.94451 16.6955L5.9132 16.7408L5.81437 16.8871C5.61256 17.1762 5.60455 17.4848 5.79063 17.7736C5.8856 17.9199 6.00431 18.0428 6.11529 18.1496C6.30523 18.3357 6.49932 18.5218 6.68926 18.6998L6.70113 18.7117C7.25135 19.2302 7.81731 19.7644 8.26843 20.3859C8.39175 20.554 8.57513 20.6481 8.70514 20.7148L8.72754 20.7263L8.74328 20.7343L8.8065 20.766L8.86585 20.8055H8.99258C9.68912 20.8055 10.0731 20.5363 10.2711 19.9072L10.3779 19.5748C10.5955 18.8782 10.8252 18.1579 11.1021 17.4691C11.2247 17.1682 11.3395 16.721 10.9477 16.3016C10.3738 15.6881 9.66153 14.9955 8.73942 14.5283L8.72731 14.5287ZM9.26566 17.2599V17.2676C9.15501 17.6299 9.02231 17.9886 8.8819 18.3682L8.86591 18.4115C8.85804 18.4352 8.84913 18.458 8.84023 18.4808C8.83132 18.5035 8.82242 18.5263 8.81456 18.55L8.74333 18.4749L8.5616 18.2853L8.56153 18.2853C8.26214 17.9732 7.95682 17.6549 7.67076 17.3392C7.66689 17.3193 7.66275 17.276 7.66689 17.26C7.8411 16.9632 8.02718 16.6821 8.22484 16.3854L8.32368 16.2349C8.68782 16.4091 9.00034 16.6427 9.27751 16.9353C9.29324 16.9629 9.30925 17.1213 9.26566 17.2599ZM28.5127 13.4245L28.5284 13.4403L28.5249 13.4364C29.1306 14.0777 29.5778 14.5763 29.9695 15.0592C30.1357 15.2613 30.1672 15.6017 30.1159 15.8311C29.9853 16.4089 29.8229 16.979 29.6211 17.6557C29.5668 17.8346 29.4996 18.0136 29.4403 18.1716C29.4261 18.2093 29.4124 18.2459 29.3994 18.281C29.3845 18.3213 29.3693 18.3618 29.3539 18.4026C29.3165 18.502 29.2788 18.6023 29.2451 18.7006C29.0433 19.2945 28.6157 19.4171 28.2952 19.4171H28.2753C27.7845 19.4091 27.4717 19.1758 27.3253 18.6968C27.2897 18.5858 27.163 18.4671 27.0363 18.3484L26.9375 18.2573C26.7395 18.0635 26.5457 17.8813 26.3121 17.6637L26.2923 17.6439C26.0548 17.4222 25.8094 17.1927 25.5758 16.9592C25.0535 16.4368 25.0692 16.2784 25.3978 15.6887L25.4215 15.645C25.75 15.0473 26.0507 14.422 26.3397 13.8124C26.5534 13.361 26.9018 13.096 27.3847 13.0049C27.8438 12.9811 28.2198 13.1236 28.5127 13.4245ZM28.0218 16.8835C28.1367 16.4481 28.2397 16.0564 28.3346 15.6605L28.3308 15.6522C28.3336 15.6409 28.3324 15.6213 28.3315 15.6068C28.3311 15.6011 28.3308 15.5962 28.3308 15.5929C28.2753 15.5296 28.2198 15.4584 28.1566 15.3753L28.1495 15.3661C28.0215 15.1994 27.8999 15.041 27.7251 14.9361L27.634 15.1023L27.6165 15.1342C27.4409 15.455 27.2729 15.7619 27.1235 16.0799C27.1274 16.1077 27.1511 16.1828 27.171 16.2066C27.4004 16.4597 27.65 16.7051 27.8913 16.9387L27.9824 17.0298L28.0218 16.8835Z" fill="black"/>
</svg>
