<svg width="44" height="33" viewBox="0 0 44 33" fill="none" xmlns="http://www.w3.org/2000/svg">
<path fill-rule="evenodd" clip-rule="evenodd" d="M43.56 25.9385C43.5511 26.3135 43.543 26.653 43.598 26.9832L43.5896 26.9882C43.7483 27.9419 43.1595 28.2223 42.5938 28.4046C41.2991 28.8301 40.2381 29.19 39.2564 29.5405L38.6907 29.7414C37.765 30.0687 36.8211 30.4052 35.9235 30.7977C35.115 31.1528 34.3579 31.5923 33.4697 32.1391C33.1377 32.3448 32.8244 32.4475 32.5394 32.4475C32.2124 32.4475 31.9131 32.3119 31.6467 32.0409C31.5251 31.9193 31.3895 31.8632 31.1792 31.8026C30.9476 31.7359 30.7587 31.6098 30.5717 31.485L30.5434 31.4661C30.4547 31.4009 30.3657 31.3448 30.277 31.2933L30.1042 31.1952C29.6927 30.9614 29.2721 30.723 28.8515 30.5033C28.0383 30.0827 27.2249 29.6621 26.4117 29.2461L23.2004 27.5914C23.1434 27.565 23.0984 27.5262 23.0662 27.4984L23.0602 27.4933C22.8033 27.264 22.6627 27.2174 22.3918 27.3857C21.5663 27.9096 20.626 28.1208 19.7164 28.325L19.6947 28.3298L18.6758 28.5587L18.3025 28.6422L18.3023 28.6422L18.3021 28.6423C17.6283 28.7926 16.897 28.9559 16.1891 29.129L15.4972 29.2927C14.5715 29.5075 13.6182 29.7364 12.716 30.0498C12.0616 30.2741 11.5944 30.0403 11.1829 29.83C11.1504 29.8148 11.1179 29.7987 11.085 29.7825C11.0377 29.7591 10.9896 29.7354 10.94 29.7133C10.7147 29.611 10.4946 29.5012 10.274 29.3912L10.2739 29.3911C10.1922 29.3504 10.1105 29.3096 10.0284 29.2692L10.0003 29.2552C9.59375 29.0494 9.13564 28.8202 8.6821 28.6334C8.14439 28.4136 7.56013 28.2219 7.04594 28.0537L7.02871 28.048L7.02869 28.048L7.02867 28.048L7.02865 28.048L7.02863 28.048L7.02861 28.048L7.02859 28.048C6.76342 27.9612 6.49794 27.8743 6.23277 27.7827C5.99899 27.7032 5.76978 27.6191 5.54089 27.5304C5.07372 27.3527 4.59668 27.175 4.12 27.0583C3.91277 27.0096 3.71338 26.9487 3.51086 26.8869L3.47507 26.876L3.43741 26.8647C2.96978 26.724 2.52769 26.591 2.05869 26.591C1.90414 26.591 1.75937 26.5255 1.63319 26.3947C1.42289 26.1795 1.28269 25.815 1.28269 25.5066C1.29214 24.9594 1.29671 24.4266 1.2641 23.8984C1.24398 23.5299 1.20686 23.151 1.17305 22.806L1.1565 22.6363C1.14888 22.5574 1.14077 22.4785 1.13267 22.3996C1.11581 22.2355 1.09895 22.0713 1.0864 21.9073L1.04434 21.4446L1.02756 21.2577L1.02755 21.2577C0.976461 20.6895 0.923894 20.1049 0.890115 19.5281C0.878851 19.2876 0.879583 19.0503 0.880306 18.8159L0.880306 18.8159C0.880483 18.7586 0.880659 18.7014 0.880659 18.6445V18.6119V18.1352L0.866639 16.8404L0.865545 16.7688C0.85677 16.1947 0.848054 15.6245 0.848054 15.0501C0.846504 14.739 0.844391 14.4275 0.842275 14.1155C0.838159 13.5087 0.834034 12.9005 0.834034 12.2924C0.824905 10.7453 0.815449 9.20267 0.801429 7.65557C0.793176 6.58266 0.770762 5.53105 0.746548 4.395L0.735892 3.89296L0.712417 2.74785C0.712417 2.64972 0.703287 2.55158 0.693832 2.45343L0.6888 2.39011C0.671552 2.17507 0.655108 1.97007 0.689267 1.76155C0.731327 1.47202 0.918481 1.16325 1.1428 1.01849C1.36717 0.868828 1.90026 0.850239 2.07306 1.09315C2.20381 1.2803 2.40009 1.32693 2.64789 1.38301L2.69363 1.39444C2.80742 1.42278 2.91452 1.44946 3.02187 1.49061C3.39452 1.63435 3.79304 1.75192 4.14694 1.85633L4.14694 1.85633L4.19043 1.86916L4.21647 1.8769C4.46015 1.9493 4.70384 2.02171 4.94752 2.10294C5.23706 2.20108 5.5129 2.33215 5.77472 2.4629C5.89612 2.52124 6.01647 2.57966 6.13682 2.63808L6.13696 2.63815C6.25735 2.6966 6.37774 2.75504 6.4992 2.8134L6.50029 2.81393L6.50029 2.81393C7.15885 3.13166 7.83634 3.45853 8.48092 3.83231C8.8546 4.04585 9.19875 4.31434 9.50519 4.55342L9.55132 4.5894C9.78967 4.77655 10.0283 4.96338 10.2712 5.12705C10.8881 5.53823 11.5379 5.93568 12.1688 6.31423L12.3746 6.44041C12.3791 6.44041 12.3848 6.43809 12.3906 6.43574C12.3965 6.43336 12.4024 6.43095 12.4072 6.43095C13.2908 5.8561 14.2581 5.27185 15.324 4.85581C15.9617 4.60607 16.5993 4.30971 17.1721 4.04347L17.2545 4.00518C17.3786 3.94873 17.5016 3.89225 17.624 3.8361L17.6241 3.83604C17.9675 3.6785 18.3052 3.52353 18.6429 3.37884C19.0225 3.22128 19.4163 3.07054 19.7758 2.93294L19.7759 2.93291L19.9421 2.86922L20.0063 2.84459C20.3917 2.69666 20.8201 2.53222 21.2274 2.3596C21.6388 2.18709 22.046 1.97662 22.4412 1.77241L22.4412 1.77239L22.5081 1.73782L22.6157 1.68174C22.784 1.59306 22.9522 1.50894 23.1205 1.42482L23.3869 1.28462C23.6347 1.15354 23.8919 1.01823 24.1629 0.924656C24.4107 0.840536 24.724 0.83108 25.009 0.901181C25.7475 1.07855 26.7153 1.32179 27.6921 1.61621C29.127 2.04624 30.235 2.40163 31.2773 2.76616C31.7607 2.93188 32.2304 3.14285 32.6822 3.34577L32.7028 3.35501C32.8077 3.40169 32.9138 3.44829 33.02 3.49489L33.0201 3.49494L33.0202 3.495L33.0203 3.49505L33.0205 3.4951L33.0206 3.49516L33.0207 3.49521C33.1271 3.54192 33.2335 3.58862 33.3386 3.63541L33.345 3.63822L33.3451 3.63827C33.4176 3.66993 33.4904 3.70172 33.5629 3.73812L33.6247 3.76518C33.7845 3.83532 33.9382 3.90276 34.0957 3.94842C34.1704 3.96701 34.2874 3.94842 34.32 3.92495C35.0411 3.4118 35.8587 3.1089 36.6454 2.81744L36.6712 2.80788L36.7879 2.76582C37.1058 2.64909 37.4282 2.51802 37.7367 2.38727L38.7325 1.9758L39.0602 1.84133C39.5759 1.62995 40.0888 1.41965 40.602 1.19979C40.9808 1.03612 41.378 0.858423 41.7239 0.629534C42.0323 0.428683 42.4063 0.391189 42.7242 0.531392C43.0281 0.667029 43.2289 0.93342 43.285 1.2699C43.3176 1.46161 43.313 1.65333 43.3036 1.83559H43.3502L43.2896 3.98099C43.2429 5.48602 43.2009 6.98646 43.1634 8.48698C43.1402 9.50129 43.1262 10.5157 43.1168 11.53L43.0933 13.3343C43.0793 13.9418 43.0698 14.559 43.0793 15.1619C43.0933 16.3676 43.1305 17.5551 43.1679 18.574C43.2009 19.5929 43.238 20.6448 43.3036 21.6918C43.3362 22.2574 43.3828 22.8228 43.4343 23.3885V23.454L43.4373 23.4892C43.4829 24.0383 43.5286 24.5877 43.5605 25.1368C43.5726 25.3668 43.5672 25.611 43.5626 25.8207L43.5605 25.9173L43.56 25.9385ZM13.1123 23.0236L13.1123 23.0238V23.0238V23.0238L13.1123 23.0239L13.1123 23.024L13.1123 23.0241C13.0805 23.7807 13.048 24.5539 13.0284 25.3145L13.019 25.3236C13.0004 26.0155 13.005 26.7165 13.0144 27.3989V28.0393L13.2948 27.9832C13.7855 27.8896 14.2997 27.7915 14.8139 27.6793C15.0161 27.636 15.2156 27.5843 15.4144 27.5328C15.4729 27.5177 15.5314 27.5025 15.5899 27.4876C15.8888 27.408 16.1601 27.3379 16.4405 27.2773C16.6901 27.2238 16.9439 27.1787 17.1938 27.1342L17.194 27.1341L17.2305 27.1276C17.553 27.0716 17.9175 27.006 18.2589 26.9219C18.6517 26.8189 19.0489 26.6976 19.4369 26.576C19.7456 26.4778 20.0306 26.3891 20.3205 26.3096C20.4667 26.2697 20.6128 26.2468 20.7551 26.2246L20.7786 26.2209C20.9422 26.1977 21.087 26.1743 21.2226 26.1322L21.2233 26.132C21.2792 26.1181 21.3351 26.1041 21.3955 26.0901C21.7414 26.0106 21.774 25.9685 21.7835 25.8704C21.8862 25.0148 21.9517 24.1361 22.0123 23.2854L22.0218 23.1312C22.0404 22.8413 22.0544 22.5515 22.0684 22.257V22.215C22.0775 21.9251 22.0916 21.6307 22.115 21.3408C22.1431 20.9854 22.1757 20.6303 22.2178 20.2749V20.2188L22.2222 20.1744L22.2223 20.1743C22.2533 19.8671 22.284 19.5636 22.3064 19.256C22.3299 18.9756 22.3439 18.6952 22.358 18.4148V18.3682C22.3625 18.2889 22.3667 18.2097 22.3709 18.1305L22.3709 18.1299L22.371 18.1293L22.371 18.1286L22.371 18.1281L22.3711 18.1276L22.3711 18.1274C22.3843 17.8804 22.3974 17.6335 22.4186 17.3864C22.4561 16.9518 22.4982 16.5123 22.5402 16.0776L22.5588 15.9094C22.5705 15.7838 22.5827 15.6577 22.5949 15.5315L22.5949 15.5308L22.595 15.53L22.5951 15.5294C22.6218 15.2523 22.6486 14.9745 22.671 14.6988C22.6944 14.4278 22.7085 14.1611 22.7225 13.8902V13.8481L22.7245 13.8101L22.7245 13.8099C22.7379 13.5604 22.7514 13.3072 22.7691 13.0581L22.8672 11.9596L22.8767 11.871L22.8853 11.7754L22.8853 11.7753C22.9199 11.3918 22.9542 11.0118 22.9843 10.6277C23.0078 10.3379 23.0218 10.0529 23.0358 9.76303L23.0368 9.74264V9.74259C23.0505 9.46875 23.0644 9.1905 23.0873 8.91691C23.1154 8.56641 23.148 8.22046 23.1855 7.86996V7.79986L23.187 7.7824C23.2194 7.41926 23.2515 7.06041 23.2791 6.69682C23.3117 6.22505 23.3397 5.74802 23.3632 5.27134L23.4098 4.40209C23.4333 4.03271 23.4564 3.66363 23.4799 3.28019L23.4939 3.07445C23.4105 3.11407 23.3307 3.15392 23.2511 3.19361L23.209 3.21465L23.0687 3.28476C22.6432 3.49962 22.2135 3.71025 21.774 3.89707C21.0965 4.182 20.4186 4.45784 19.7362 4.73368L19.6566 4.76629C19.5035 4.8289 19.3505 4.89123 19.1974 4.95357L19.197 4.95372C18.7332 5.14257 18.2693 5.33146 17.8056 5.52827C16.9596 5.88368 16.0577 6.27621 15.1741 6.72029C14.625 6.99494 14.0719 7.34019 13.5728 7.65168L13.4399 7.7346L13.2201 7.8748C13.2106 7.88882 13.178 7.96805 13.178 8.00555C13.1875 8.24846 13.2106 8.49169 13.2341 8.7346L13.2382 8.78142C13.2648 9.08696 13.2904 9.38066 13.2948 9.6788C13.3039 10.1365 13.2948 10.5995 13.2853 11.0482V11.0902C13.2758 11.5435 13.2713 12.0111 13.2758 12.4692C13.285 12.9508 13.299 13.432 13.3225 13.9136V14.0212C13.3505 14.7691 13.3786 15.5451 13.3691 16.3117C13.3551 17.4756 13.3039 18.6348 13.2524 19.7613C13.2431 19.995 13.2326 20.2286 13.2221 20.4622L13.222 20.4626L13.222 20.4628L13.222 20.4629L13.222 20.4631L13.222 20.4632L13.222 20.4634L13.222 20.4635C13.2115 20.6969 13.201 20.9302 13.1917 21.1636L13.1917 21.1648C13.1731 21.6085 13.1545 22.0522 13.1311 22.4959V22.5754L13.1123 23.0236ZM33.2118 11.4277C33.2118 11.1147 33.2072 10.8063 33.1978 10.493L33.2075 10.4877C33.1935 10.1508 33.1935 9.81434 33.1935 9.47786C33.212 8.22975 33.245 6.96762 33.2776 5.85055V5.72894C33.2821 5.5478 33.2499 5.53283 33.1807 5.50065L33.1794 5.50005C32.857 5.35985 32.5391 5.2102 32.2212 5.06054C31.6044 4.77068 30.9966 4.48539 30.3797 4.2565C29.2555 3.83833 28.1008 3.4893 26.9826 3.15131L26.9826 3.15129L26.8506 3.11139L26.6263 3.04129C26.288 2.93642 25.9455 2.87143 25.5852 2.80308L25.5604 2.79838C25.5253 2.79136 25.4891 2.78435 25.4529 2.77734C25.4167 2.77033 25.3805 2.76332 25.3455 2.75631L24.0693 19.9017C24.247 19.7523 24.4058 19.6072 24.518 19.439C24.7469 19.0976 25.0178 18.9013 25.3732 18.8172C25.4433 18.8032 25.5274 18.7937 25.6115 18.7937C25.7707 18.7937 26.0511 18.8218 26.1632 19.0181C26.2989 19.2564 26.3269 19.6118 26.2288 19.8547C25.9154 20.6352 25.322 21.2426 24.3683 21.7663C24.3187 21.7933 24.2693 21.8158 24.2197 21.8384L24.2141 21.8409C23.9852 21.9485 23.9291 21.9955 23.9197 22.1402C23.8836 22.7248 23.8384 23.3096 23.7932 23.8942L23.7932 23.8943L23.7932 23.8944L23.7932 23.8945L23.7932 23.8946L23.7932 23.8947L23.7931 23.8948L23.7889 23.9492L23.7846 24.0057C23.744 24.538 23.7037 25.0663 23.6722 25.5944C23.6722 25.6179 23.7234 25.6975 23.7469 25.7161C24.2268 25.9975 24.7323 26.2753 25.1956 26.5299L25.1963 26.5303L25.1965 26.5304L25.1966 26.5304L25.1966 26.5304L25.1966 26.5304L25.1966 26.5305L25.3735 26.6277L25.9298 26.9316C26.1446 27.0486 26.3598 27.1699 26.5747 27.2915L26.7054 27.3616L26.7741 27.4L26.7743 27.4001L26.7745 27.4002C27.2758 27.6804 27.8343 27.9925 28.3928 28.2873C29.0051 28.6146 29.6223 28.9322 30.2392 29.2455C30.4455 29.3514 30.6517 29.4573 30.8578 29.5633L31.249 29.7643C31.3688 29.8259 31.4863 29.8899 31.6084 29.9566L31.6084 29.9566L31.7011 30.0071L31.7446 30.0307C31.7522 29.9771 31.7612 29.9235 31.7701 29.8707L31.7702 29.8706C31.7775 29.8266 31.7848 29.7832 31.7912 29.7408C31.8708 29.2781 31.936 28.8666 31.9735 28.46C32.0133 28.0218 32.0461 27.5741 32.0784 27.1321C32.0916 26.9518 32.1047 26.7724 32.1182 26.595V26.5389C32.1315 26.3582 32.1442 26.1769 32.1569 25.9952L32.157 25.9943L32.157 25.9942V25.9941V25.9941V25.9941V25.994V25.994C32.1801 25.6638 32.2033 25.3324 32.2304 25.0009C32.2692 24.5123 32.3159 24.0209 32.3624 23.5307L32.3625 23.5305C32.3778 23.3692 32.3931 23.2081 32.4081 23.0473L32.5483 21.5327C32.5621 21.3908 32.5682 21.2487 32.5742 21.1066C32.5763 21.057 32.5785 21.0075 32.5809 20.9579C32.5904 20.715 32.5998 20.4998 32.6184 20.2849C32.6495 19.9108 32.6891 19.5408 32.7292 19.1671L32.7351 19.1118L32.7491 18.9996L32.751 18.9828L32.751 18.9824C32.8019 18.507 32.8523 18.0359 32.8893 17.5601C32.992 16.2703 33.0762 15.0035 33.1463 13.7975C33.1919 12.9982 33.2018 12.2166 33.211 11.4913L33.2118 11.4277ZM33.5866 29.9133L33.5858 29.9187L33.5948 29.914L33.5866 29.9133ZM33.7025 29.0211C33.6746 29.3141 33.6329 29.6068 33.5866 29.9133L33.4732 29.9045L33.5854 29.9231V29.9697C33.5949 29.9666 33.6044 29.9613 33.6125 29.9568C33.6163 29.9546 33.6198 29.9526 33.6229 29.9511C33.7119 29.9045 33.8006 29.8484 33.8847 29.7924C34.034 29.6942 34.1931 29.5915 34.3754 29.5214C35.3056 29.1569 36.2733 28.797 37.1285 28.4791L37.7083 28.2593L38.0691 28.1234L38.676 27.8948L38.8917 27.8136C39.7197 27.5022 40.6338 27.1583 41.5319 26.8618C41.7891 26.7728 41.7937 26.7122 41.7797 26.4644C41.7191 25.427 41.663 24.3845 41.6069 23.3422C41.5739 22.7253 41.5368 22.1035 41.4993 21.4866C41.4106 20.0703 41.3216 18.6118 41.303 17.1488C41.2795 15.1296 41.3121 13.082 41.3496 11.1003V10.7918L41.3636 9.83391L41.3777 8.8662C41.3871 8.14628 41.4011 7.4267 41.4197 6.70678V6.52452C41.433 5.9515 41.4419 5.38282 41.4509 4.81047L41.4523 4.72017V3.07492V2.6729C41.125 2.80853 40.7934 2.94417 40.4661 3.07492C39.6434 3.40681 38.7924 3.75275 37.9512 4.11728C37.1658 4.45869 36.3572 4.8418 35.6467 5.18317L35.114 5.43553C35.0954 5.44499 35.0579 5.47759 35.0579 5.47759V5.55715C35.0158 6.8379 34.9738 8.16522 34.9643 9.46942C34.9597 10.0537 34.9643 10.6426 34.9738 11.2269V11.2784C34.9832 12.012 34.9924 12.774 34.9738 13.5219C34.9503 14.4847 34.8756 15.4802 34.8055 16.3638L34.768 16.878C34.7199 17.5494 34.6598 18.221 34.5998 18.8926L34.5997 18.8931C34.5841 19.0674 34.5685 19.2417 34.5532 19.4159L34.4831 20.206C34.463 20.4386 34.4414 20.6712 34.4199 20.9031C34.4017 21.0998 34.3835 21.2959 34.3663 21.4912L34.3429 21.7576C34.2962 22.2294 34.2542 22.6969 34.2121 23.1691C34.1521 23.8204 34.0963 24.4697 34.0404 25.1197L34.0403 25.1207C34.0136 25.4312 33.9869 25.7419 33.9598 26.053L33.8662 27.156C33.815 27.7741 33.7593 28.3918 33.7035 29.0099L33.7034 29.0107L33.7025 29.0211ZM11.3687 22.2855L11.4949 22.2529L11.504 22.2472L11.3824 22.2331C11.415 21.9717 11.443 21.7049 11.4525 21.448C11.4711 20.9713 11.4711 20.4852 11.4711 20.0131V19.9104C11.4711 19.4849 11.4756 19.0551 11.4851 18.6296C11.49 18.3118 11.5131 17.9893 11.5366 17.6714V17.6388C11.5646 17.2273 11.5927 16.8022 11.5927 16.3907C11.5927 15.6337 11.5802 14.8706 11.5681 14.1217L11.5601 13.6236V13.5394C11.557 13.305 11.5534 13.0705 11.5499 12.8361C11.5425 12.3507 11.5351 11.8654 11.532 11.38C11.5275 10.8987 11.532 10.4172 11.5415 9.9405C11.5509 9.49186 11.5555 9.03829 11.5555 8.58964C11.5509 8.08035 11.4619 7.76245 10.9852 7.54269C10.396 7.26683 9.78376 6.86942 9.12481 6.32263C8.01693 5.40648 6.88584 4.71459 5.66578 4.20986L5.54905 4.15835L5.37387 4.08616C4.73603 3.82323 4.07629 3.55128 3.41275 3.30313C3.16274 3.20871 2.89814 3.13238 2.64122 3.05826L2.53408 3.02729L2.48745 3.01327V3.67221C2.48745 3.91367 2.48694 4.15511 2.48644 4.39656L2.48644 4.39672V4.39672V4.39673V4.39674V4.39675V4.39676V4.39677C2.48542 4.87974 2.48441 5.36269 2.48745 5.84566C2.49234 6.60764 2.50147 7.37417 2.51093 8.14072L2.51093 8.14117C2.52039 8.9076 2.52984 9.67398 2.5344 10.4404V11.9924V12.0485V12.0485C2.5344 12.8572 2.5344 13.6938 2.55299 14.5118C2.60417 16.9471 2.66025 18.9943 2.75383 21.0886C2.79132 21.9207 2.87088 22.7899 2.94555 23.5519L2.95957 23.7201L2.96359 23.7611L2.9636 23.7612C2.99944 24.1263 3.03525 24.4912 3.06228 24.8561C3.07173 24.9728 3.09977 25.0243 3.23998 25.0709L3.67568 25.217C4.21447 25.3976 4.75471 25.5787 5.29214 25.7628L6.16395 26.0579L7.07303 26.3657C7.41342 26.4825 7.75869 26.5945 8.10396 26.7064L8.10596 26.7071L8.15748 26.7211C8.29008 26.7649 8.42688 26.8097 8.56673 26.8555L8.57048 26.8567L8.57085 26.8568L8.57091 26.8568L8.57404 26.8579L8.57438 26.858L8.57444 26.858C9.05858 27.0164 9.57895 27.1868 10.088 27.3709C10.4245 27.4925 10.7375 27.6467 11.0649 27.815L11.1535 27.8616L11.1676 27.455C11.1816 26.8802 11.2002 26.2959 11.2236 25.7162C11.2331 25.5108 11.2471 25.305 11.2657 25.0993V25.0478C11.2846 24.8375 11.2986 24.6223 11.3032 24.4074C11.308 24.2106 11.3034 24.0095 11.2989 23.8128L11.2986 23.7997L11.296 23.6646V23.6645C11.2915 23.448 11.287 23.2313 11.2986 23.0145C11.3127 22.7671 11.3407 22.5238 11.3687 22.2855ZM14.6134 16.81L14.6043 16.8025L14.6039 16.7977C14.4728 16.6904 14.3186 16.5639 14.2205 16.335C14.0333 15.8912 14.3092 15.6575 14.4588 15.5359C14.4666 15.5293 14.4745 15.5227 14.4825 15.5161L14.4825 15.5161L14.4825 15.5161L14.4827 15.516L14.4827 15.516C14.5086 15.4946 14.5345 15.4731 14.5524 15.4517C14.7115 15.2695 15.1602 15.2414 15.3564 15.4051C16.0397 15.9813 16.1109 16.0798 16.1824 16.1787C16.2107 16.2178 16.239 16.257 16.3052 16.3259L16.4269 16.452C16.5719 16.6014 16.6841 16.7559 16.7682 16.9147C16.8944 17.153 16.8853 17.4334 16.7496 17.6672C16.6 17.915 16.3245 18.0692 16.0111 18.0738H15.9596L15.9361 18.0644L15.9268 18.0615C15.8653 18.0428 15.7688 18.0135 15.6932 17.9336C15.3866 17.6134 15.0845 17.289 14.7822 16.9644L14.7822 16.9643L14.749 16.9287C14.7052 16.8849 14.6614 16.8491 14.6134 16.81L14.6134 16.81L14.6134 16.81ZM19.2734 21.5745H19.3015L19.3716 21.5605C19.3716 21.5605 19.4182 21.5464 19.4603 21.537L19.4722 21.5339L19.4722 21.5339C19.5972 21.5017 19.7641 21.4587 19.9044 21.3453C20.0772 21.2005 20.367 20.9106 20.3299 20.6067C20.3064 20.3919 20.1381 20.1953 19.7782 19.9758C19.624 19.8777 19.4557 19.803 19.3246 19.747L19.2966 19.7329L19.2549 19.7138C19.1483 19.6648 19.0459 19.6178 18.9507 19.5601C18.876 19.5135 18.7964 19.4434 18.7263 19.3779L18.7234 19.3752L18.7234 19.3752C18.6215 19.2823 18.5101 19.1809 18.3709 19.1069C18.1701 19.0042 17.8242 19.0508 17.6559 19.2096C17.4971 19.3593 17.2399 19.6491 17.2725 19.9436C17.3612 20.6915 18.4456 21.5748 19.2777 21.5748L19.2734 21.5745ZM26.598 16.2785C26.953 15.6617 27.3225 15.0259 27.9909 14.6098L27.9957 14.6095C28.4633 14.3196 28.879 14.4132 29.2344 14.8759C29.5374 15.2673 29.2684 15.594 29.1373 15.7532L29.1362 15.7545L29.0801 15.8246C29.0113 15.9177 28.9376 16.0079 28.8643 16.0975L28.8643 16.0975C28.838 16.1297 28.8117 16.1619 28.7857 16.1941C28.4773 16.5681 28.1874 16.9231 28.0332 17.3812C27.9211 17.7037 27.4209 17.9515 27.061 17.9515C27.0469 17.9515 27.0341 17.9504 27.0212 17.9492L27.0211 17.9492C27.0083 17.9481 26.9954 17.9469 26.9814 17.9469C26.7196 17.9143 26.5654 17.6525 26.4297 17.4187C26.4143 17.394 26.3998 17.3697 26.3859 17.3463C26.3577 17.2991 26.3317 17.2554 26.3035 17.2179L26.21 17.0963L26.2706 16.9561C26.2879 16.9129 26.3051 16.8733 26.3213 16.8362L26.3326 16.8104C26.3386 16.7964 26.3445 16.7827 26.3502 16.7692C26.4017 16.6431 26.4437 16.5404 26.4998 16.4468L26.598 16.2785ZM31.5668 11.3245L31.4546 11.3666C30.6225 11.6564 29.7673 11.9554 29.2251 12.825L29.1504 12.9417L29.2345 13.138L29.2458 13.163C29.2619 13.1984 29.2793 13.2367 29.2906 13.2782C29.3068 13.3188 29.3195 13.3702 29.3317 13.4198L29.3372 13.4419L29.3397 13.4519C29.3906 13.6553 29.4484 13.8866 29.6691 13.9235C29.7298 13.9329 29.7953 13.942 29.8609 13.942C30.0757 13.942 30.3049 13.886 30.4826 13.7878C30.7445 13.6431 31.0014 13.4699 31.2211 13.3203C31.4034 13.1986 31.5811 13.0819 31.7679 12.9698C31.8433 12.9256 31.9394 12.8937 32.0327 12.8628L32.0483 12.8576L32.0698 12.8505C32.1614 12.8201 32.2563 12.7887 32.3476 12.7454C32.7262 12.5586 32.8664 12.2127 32.703 11.8387C32.5534 11.4928 31.913 11.2078 31.5579 11.3291L31.5668 11.3245ZM3.5536 16.6294C4.07236 15.8769 4.76425 15.3438 5.43266 14.8811L5.44173 14.871C5.75966 14.6513 6.36739 14.7263 6.62432 15.0207C6.877 15.3154 6.65725 15.9277 6.38141 16.1706L6.12905 16.3904L6.04565 16.4642L6.04564 16.4642C5.73991 16.7345 5.40472 17.031 5.10071 17.3392C5.01202 17.4327 4.94192 17.5589 4.87182 17.6991C4.8203 17.8067 4.76423 17.9143 4.69412 18.017L4.67065 18.0496L4.66427 18.0591C4.53973 18.2435 4.40081 18.4493 4.19853 18.5778C4.09582 18.6479 3.94161 18.6854 3.79195 18.6854C3.68891 18.6854 3.53925 18.6668 3.42253 18.5827C3.27913 18.4816 3.20035 18.3387 3.12127 18.1952L3.09517 18.1481V18.1295L2.96899 17.7461L2.99247 17.6995C3.04399 17.5967 3.0955 17.4937 3.14213 17.391L3.15615 17.3584L3.17903 17.3111C3.29644 17.068 3.40445 16.8444 3.5536 16.6294ZM10.2522 12.9129C9.51823 12.7727 8.77519 12.8663 8.04125 13.1838C7.3122 13.5017 7.1296 13.6514 7.16708 14.3149C7.1811 14.5487 7.29782 14.745 7.48498 14.8526C7.58312 14.9087 7.69528 14.9413 7.81233 14.9413C7.92906 14.9413 8.04122 14.9132 8.1537 14.8572L8.24728 14.8105C8.70082 14.5816 9.09341 14.3899 9.58412 14.4832L9.64966 14.4972L9.71519 14.4737C9.75324 14.4585 9.79129 14.4461 9.83007 14.4334L9.83009 14.4334C9.86275 14.4227 9.89593 14.4119 9.93006 14.3991C10.1218 14.3384 10.3181 14.2729 10.4909 14.1421C10.6966 13.9833 10.7807 13.6654 10.7758 13.4176C10.7713 13.1698 10.4625 12.955 10.2522 12.9175L10.2522 12.9129ZM37.1195 11.7123L36.9839 11.5816L36.9926 11.5854C36.9724 11.5656 36.9523 11.5458 36.9322 11.5261C36.6969 11.2953 36.4703 11.0731 36.2636 10.8235C36.0768 10.5991 36.0252 10.2532 36.0533 10.0149C36.0813 9.78596 36.3242 9.35591 36.6235 9.35591H36.7357C37.0536 9.36536 37.4837 9.37938 37.7876 9.75793C37.9607 9.96823 38.143 10.1789 38.3393 10.3937L38.4188 10.4824L38.6572 10.2486C38.844 10.0664 39.0171 9.89812 39.1899 9.73445C39.5407 9.40253 40.3445 9.35591 40.6999 9.65033C40.8401 9.76249 40.9242 9.94965 40.9382 10.1599C40.9522 10.3794 40.8821 10.5806 40.7514 10.7208C40.41 11.0853 40.0921 11.3986 39.7837 11.6836L39.7696 11.6976C39.9333 11.8658 40.083 12.0435 40.2277 12.2163L40.2376 12.228C40.3608 12.3737 40.4838 12.5193 40.6112 12.6558C40.8821 12.9457 40.9336 13.2777 40.7419 13.544C40.6718 13.6471 40.4054 13.9836 40.069 14.0256L40.061 14.0264C39.9749 14.0353 39.8886 14.0442 39.8026 14.0442C39.3914 14.0442 39.0921 13.876 38.8958 13.5255C38.8023 13.3572 38.648 13.203 38.4844 13.0393L38.4377 12.9878L38.4097 12.9598C38.2741 13.0954 38.1198 13.2496 37.9421 13.3804C37.7178 13.544 37.4469 13.6842 37.157 13.7918C36.8955 13.89 36.6243 13.876 36.414 13.7592C36.2314 13.6565 36.1146 13.4929 36.0726 13.2826C36.0071 12.9647 36.2177 12.5956 36.4045 12.3478C36.5281 12.1798 36.6897 12.0578 36.8373 11.9463C36.8458 11.9399 36.8542 11.9335 36.8626 11.9272C36.9373 11.8711 37.0074 11.815 37.0775 11.7544L37.1195 11.7123Z" fill="black"/>
</svg>
