<svg width="26" height="32" viewBox="0 0 26 32" fill="none" xmlns="http://www.w3.org/2000/svg">
<path fill-rule="evenodd" clip-rule="evenodd" d="M23.8984 25.3387C24.6215 26.3234 25.0976 27.4681 25.312 28.7472L25.3233 28.7514C25.3742 29.0675 25.2541 29.5291 25.0325 29.8417C24.1786 31.0444 22.8557 31.5714 21.5548 31.9638C21.4712 31.9891 21.3875 32 21.3112 32C20.9442 32 20.6535 31.742 20.4646 31.5057C18.4441 28.9692 16.7981 26.6144 15.4354 24.2997C15.0613 23.6675 14.6869 23.0533 14.2872 22.403L14.2362 22.3231C14.0727 22.058 13.9092 21.789 13.7457 21.5201L13.7275 21.4947L13.6948 21.5021C13.4952 21.5415 13.2934 21.5832 13.0889 21.6254C13.0475 21.634 13.0059 21.6426 12.9642 21.6511C12.8629 21.6717 12.7614 21.6924 12.6597 21.7132C12.1848 21.8103 11.7054 21.9082 11.2236 21.989C9.25053 22.3234 7.4192 22.1272 5.78021 21.404C4.57371 20.8696 3.53087 20.0048 2.76413 18.8966C1.88837 17.632 0.910695 16.1022 0.311222 14.318C-0.125014 13.0243 -0.103211 11.6908 0.380168 10.2444C0.547207 9.74309 0.7145 9.20163 0.892441 8.58746C1.84451 5.29176 3.60692 2.98408 6.27779 1.53068C6.83754 1.22404 7.46021 1.01892 8.06685 0.819071L8.10204 0.80748C8.47263 0.687582 8.84347 0.563889 9.20316 0.422196C11.1691 -0.359268 13.0553 0.080511 14.9738 0.643736C16.1111 0.974286 17.136 1.70482 18.1098 2.87485C20.0395 5.18934 21.1951 7.77307 21.5439 10.5494C21.7148 11.9121 21.7946 13.6816 20.8752 15.2769C20.545 15.8522 20.1557 16.4102 19.7785 16.9509L19.7523 16.9884C19.6815 17.0922 19.6107 17.1945 19.5401 17.2963C19.4551 17.419 19.3706 17.541 19.2872 17.6642C19.1926 17.8023 19.0872 17.9405 18.9673 18.0966C18.9369 18.1377 18.9048 18.1797 18.8714 18.2234C18.8368 18.2686 18.8008 18.3157 18.7638 18.3655L18.742 18.3909L19.7411 19.7536C19.943 20.0279 20.1469 20.3056 20.3521 20.585C20.8153 21.216 21.2848 21.8553 21.7507 22.4825C22.067 22.9079 22.394 23.3403 22.7101 23.7545L22.7284 23.7798C22.7968 23.8703 22.8657 23.9611 22.9349 24.0524C23.255 24.4746 23.5816 24.9054 23.8984 25.3387ZM11.9141 20.2768C12.2885 20.1858 12.6774 20.0913 13.0589 19.9896L13.0662 19.9934C15.4354 19.3683 17.2559 18.1111 18.6368 16.1451C19.9886 14.2228 20.4064 12.1516 19.9159 9.81861C19.5815 8.21965 18.9385 6.68261 18.0009 5.24361C16.7545 3.32864 15.3592 2.24576 13.6112 1.83513C12.87 1.66049 12.0597 1.47164 11.231 1.47164C10.813 1.47164 10.3915 1.52259 9.96995 1.64249C8.38547 2.09672 7.08461 2.52201 5.94729 3.48854L5.86364 3.55749C5.14784 4.16434 4.4064 4.79293 3.90857 5.63247C3.00011 7.16576 2.46961 8.4995 2.23337 9.83306C2.17533 10.1565 2.06608 10.5053 1.89904 10.905C1.45571 11.9588 1.43771 13.0598 1.85189 14.0882C2.6113 15.9743 3.53416 17.4749 4.67889 18.6815C5.46743 19.5098 6.40509 20.0403 7.54242 20.2948C8.30916 20.4657 9.03586 20.5493 9.76639 20.5493C10.3008 20.5493 10.8422 20.5022 11.3762 20.4076L11.9141 20.2768ZM18.4019 25.0159C18.4517 24.9863 18.501 24.9571 18.5496 24.9281L18.5608 24.9243L18.5861 24.9099C19.0586 24.63 19.5054 24.3646 19.9234 24.0703C20.1741 23.8924 20.3376 23.7469 20.3667 23.5689C20.3959 23.3798 20.2831 23.1836 20.0542 22.8675L19.6471 22.3043C19.3237 21.8572 19.0002 21.4103 18.6733 20.967C18.4226 20.6289 18.1719 20.291 17.9174 19.9531L17.5648 19.4844L15.3882 20.8253L15.4027 20.8616C15.7811 21.7616 16.2649 22.5737 16.7747 23.4292L16.8016 23.4744C17.1504 24.0594 17.5066 24.6591 17.8409 25.2987L17.8627 25.3423L17.9028 25.3169C18.0724 25.2112 18.2399 25.1119 18.4019 25.0159ZM23.288 29.3389C23.3121 29.3264 23.3327 29.3158 23.35 29.3033L23.3504 29.3108C23.6411 29.1037 23.7392 28.8348 23.6411 28.5078C23.2196 27.1159 22.3293 25.9676 21.5408 24.9537L21.5155 24.921L18.8917 26.7562L18.917 26.7924C18.9835 26.8867 19.0478 26.9807 19.11 27.0716C19.1295 27.1001 19.1487 27.1282 19.1677 27.1559L19.1931 27.1922L19.1953 27.1954C19.3689 27.4485 19.5352 27.691 19.7054 27.9189C19.9707 28.275 20.2541 28.6494 20.5666 28.9982C20.7105 29.16 20.8272 29.3022 20.931 29.4285C20.9531 29.4554 20.9745 29.4815 20.9955 29.5069C21.3189 29.8993 21.4969 30.1028 21.7514 30.1028C22.0347 30.1028 22.4415 29.8592 23.1939 29.3905C23.2082 29.379 23.2227 29.372 23.2391 29.3641C23.2432 29.3621 23.2475 29.3601 23.2519 29.3578C23.2647 29.3509 23.2767 29.3447 23.288 29.3389ZM11.1071 3.81574C12.2844 3.81574 13.4583 4.24441 14.5883 5.09479L14.5884 5.09455C15.7876 5.99568 16.5762 6.97688 17.0013 8.09241C17.9169 10.5126 17.6117 14.0121 14.7773 15.9707C13.6217 16.7699 12.2192 17.6238 10.5584 17.911C10.1513 17.9802 9.76627 18.0165 9.40279 18.0165C8.2763 18.0165 7.3352 17.6751 6.50655 16.9737C6.29946 16.7993 6.08502 16.6247 5.87793 16.4576L5.86703 16.4467C5.84599 16.4298 5.82488 16.4129 5.80372 16.3959C5.54729 16.1899 5.28303 15.9777 5.03131 15.7562C4.10484 14.9423 3.67241 14.0339 3.66506 12.8965L3.65771 12.8712C3.11271 11.6178 3.58141 10.3458 4.03564 9.11392C4.54788 7.7221 5.28931 6.70845 6.29588 6.02153C6.55389 5.84359 6.80813 5.6545 7.05172 5.4692C7.07472 5.45191 7.09775 5.43457 7.12081 5.41721C7.53854 5.10276 7.96743 4.77991 8.42888 4.53537C9.32287 4.05933 10.224 3.81574 11.1071 3.81574ZM13.6 14.9753C15.0752 14.0306 15.8166 12.8096 15.8747 11.2434L15.8747 11.2437C15.9328 9.64088 15.7875 7.98774 14.3412 6.77028C13.9234 6.41769 13.4728 6.05445 12.9749 5.81821C12.2373 5.46943 11.5834 5.29859 10.9583 5.29859C10.5185 5.29859 10.0934 5.38224 9.66452 5.55308C8.75956 5.91276 7.91301 6.43974 7.08436 7.15554C5.43828 8.57656 4.78051 10.3496 5.12929 12.421C5.17022 12.5609 5.20489 12.7104 5.23897 12.8574C5.24119 12.867 5.24342 12.8766 5.24564 12.8862C5.32904 13.2494 5.41268 13.6129 5.60533 13.9071C6.27752 14.9317 7.16418 15.6876 8.24349 16.1492C8.93042 16.4434 9.63181 16.5088 10.4021 16.3562C11.4378 16.1492 12.4552 15.7094 13.6 14.9753Z" fill="black"/>
</svg>
