<svg width="48" height="24" viewBox="0 0 48 24" fill="none" xmlns="http://www.w3.org/2000/svg">
<path fill-rule="evenodd" clip-rule="evenodd" d="M47.5322 5.55812C47.389 3.97287 46.5672 2.68938 45.2205 1.93671C43.7466 1.11485 41.9593 0.99279 40.0559 1.57608C39.109 1.86626 38.2304 2.3082 37.3026 2.77481L37.3026 2.77483L37.1872 2.83287L37.1502 2.84877C37.0551 2.89625 36.9594 2.9445 36.8631 2.99302L36.863 2.99307C36.5939 3.12861 36.3207 3.26626 36.0473 3.39507C35.9785 3.30482 35.899 3.18831 35.8298 3.06625C35.6441 2.74816 35.464 2.43007 35.2835 2.10641C35.233 2.01733 35.181 1.92553 35.128 1.83175L35.1266 1.82921L35.1263 1.8288L35.1257 1.82765C34.9457 1.50942 34.7529 1.16848 34.5571 0.833713C34.1805 0.191989 33.6768 -0.072842 33.0195 0.0170352C32.484 0.0913799 31.9484 0.154994 31.4287 0.213066C30.4001 0.329579 29.3397 0.451632 28.3055 0.674298C27.3755 0.872493 26.45 1.16347 25.5578 1.44395L25.5578 1.44397L25.4424 1.48025L25.4106 1.49097L25.376 1.50183C24.8143 1.67855 24.2373 1.86009 23.6607 2.02137C23.0245 2.19633 22.7275 2.60984 22.7804 3.25155L22.8174 3.7076C22.9077 4.87936 23.0031 6.09922 23.1621 7.2972C23.2627 8.06062 23.4166 8.84553 23.5653 9.60369C23.6237 9.90069 23.6818 10.2029 23.7403 10.521L22.5526 10.4574C21.4286 10.3989 20.3626 10.3408 19.3074 10.2665C18.8831 10.2347 18.7293 10.049 18.6764 9.48163C18.6127 8.7393 18.3742 7.94921 17.9925 7.19616C17.478 6.17789 16.0252 5.67965 14.8852 6.12506C13.5226 6.66063 12.9445 7.91749 12.4356 9.02562C11.4706 11.1361 11.1947 13.4478 11.6244 15.9082C11.9055 17.5201 12.6479 18.8298 13.8248 19.8004C14.6677 20.4898 15.4633 20.7017 16.2641 20.4366C18.0616 19.8481 19.1273 18.6974 19.4299 17.006C19.4669 16.7993 19.4776 16.5766 19.4883 16.3484L19.4885 16.345C19.5095 15.9536 19.5314 15.5471 19.7058 15.3675C19.8902 15.1781 20.2974 15.142 20.7028 15.1061L20.7452 15.1023L20.7823 15.0993L20.7824 15.0993C20.9635 15.0843 21.1627 15.0678 21.371 15.028L21.3894 15.0249C21.51 15.0049 21.6254 14.9857 21.7265 14.991C21.9968 15.0069 22.2092 15.0069 22.3841 15.0069C22.6844 15.0069 22.8509 15.2492 22.8827 15.7333L22.9038 16.0355C22.9166 16.2285 22.9157 16.4354 22.9149 16.6196L22.9146 16.6956L22.9145 16.746V16.783C22.9145 16.8372 22.9142 16.8916 22.9138 16.9463V16.9463V16.9464V16.9464V16.9464V16.9464V16.9464V16.9465V16.9465V16.9465C22.9129 17.1115 22.9119 17.2787 22.9197 17.4458L22.9211 17.4697C23.0212 19.1327 23.1245 20.8473 23.8051 22.4887C24.1125 23.231 24.5368 23.6183 25.2262 23.7825C25.8465 23.9308 26.5093 24 27.2676 24C28.0653 24 28.8629 23.9202 29.6367 23.8428L29.6367 23.8428H29.6367H29.6368L29.6368 23.8428L29.7069 23.8358L29.8075 23.825L29.8313 23.8226L29.8314 23.8225L29.8315 23.8225L29.8316 23.8225C30.0777 23.7968 30.3193 23.7715 30.5658 23.7507C33.0261 23.528 35.5768 22.897 38.5883 21.7623C39.6118 21.375 39.9406 20.9034 39.9458 19.8164V16.7568V15.5744C40.0146 15.5744 40.073 15.5744 40.1259 15.5795C43.5723 16.1099 45.9532 13.2678 46.6427 11.3481C47.4009 9.24836 47.6871 7.35017 47.5229 5.54704L47.5322 5.55812ZM37.7917 14.9539C37.8605 15.8764 37.8819 16.81 37.8978 17.7165C37.9085 18.2787 37.9245 18.9733 37.9507 19.6361C37.9666 19.9809 37.7968 20.1133 37.4736 20.2302C34.9655 21.1526 32.8339 21.8103 30.5909 22.017C29.4772 22.1176 28.3373 22.1391 27.2292 22.155C27.051 22.155 26.8728 22.1596 26.6946 22.1643C26.6024 22.1667 26.5102 22.1691 26.418 22.1709C25.5644 22.1868 25.3099 21.9959 25.2197 21.2166L25.2113 21.1441C24.9907 19.2265 24.7419 17.0645 24.6948 14.9332V14.6999C24.6789 13.9523 24.6682 13.5758 24.4137 13.3372C24.2177 13.1515 23.9099 13.1145 23.5123 13.1145C23.3374 13.1145 23.1358 13.1197 22.8706 13.1356C21.6882 13.1885 20.5056 13.2788 19.355 13.369L18.7347 13.4167C18.2468 13.4537 17.6846 13.7189 17.7538 14.7742C17.8703 16.5133 17.1654 18.0139 15.9563 18.592C15.4418 18.8357 15.0974 18.7721 14.6732 18.3482C13.8189 17.4939 13.5834 16.3666 13.3564 15.2793L13.3528 15.262C13.0239 13.687 13.1885 12.0962 13.8354 10.5375C14.2649 9.50338 14.9969 8.58093 15.6597 7.81747C15.8346 7.61589 16.0891 7.54709 16.3543 7.62662C16.6776 7.72204 16.9165 8.00832 16.9642 8.34787C17.0545 9.05321 17.0278 9.77964 16.9909 10.3311C16.959 10.8508 17.0756 11.2591 17.3408 11.5562C17.606 11.8532 18.0087 12.0122 18.534 12.0333C20.5861 12.1076 22.4154 12.2031 24.1279 12.3303C24.7005 12.3728 25.0878 12.2719 25.3212 12.0122C25.5546 11.7577 25.6234 11.3653 25.5331 10.8139C25.4111 10.0608 25.2787 9.31324 25.1407 8.55508L25.13 8.48629L25.0945 8.2884C24.9783 7.64037 24.8595 6.97741 24.7534 6.32287C24.696 5.9788 24.6643 5.62436 24.633 5.27466L24.633 5.27458L24.6314 5.25688C24.5996 4.88553 24.5626 4.50382 24.499 4.12726C24.4246 3.67121 24.5892 3.43264 25.093 3.2895C25.4218 3.19407 25.7451 3.09346 26.0846 2.98731L26.135 2.9717C26.9412 2.72205 27.7725 2.46461 28.6086 2.31932C29.9093 2.09489 31.2613 2.01939 32.5735 1.94612L32.6332 1.94279H32.7445C32.9406 1.93761 33.259 2.12291 33.3596 2.29823C33.8952 3.2366 34.3938 4.21783 34.8391 5.2147C35.0193 5.62304 35.3059 5.88269 35.6451 5.95703C35.8888 6.00474 36.2761 5.97811 36.727 5.56978C38.1373 4.27597 39.6116 3.5018 41.2446 3.19407C42.406 2.97658 43.4876 3.07756 44.4581 3.48553C45.3754 3.87278 46.0012 5.38922 45.7996 6.72525C45.6565 7.69021 45.4656 8.82504 45.1897 9.95456C44.6223 12.24 42.639 13.7195 40.1365 13.7195H39.9298H39.601H38.8904C38.4237 13.7143 38.127 13.7462 37.9465 13.9422C37.7449 14.1541 37.7557 14.4726 37.7926 14.9708L37.7917 14.9539ZM39.908 12.2393C40.1278 12.1271 40.3681 12.0272 40.5963 11.9324L40.6873 11.8946L40.7577 11.8657C41.1231 11.716 41.4989 11.562 41.8328 11.3379C43.4078 10.2775 44.1979 8.93037 44.2455 7.23377V7.20714L44.2348 7.15942C44.1763 6.9952 44.1234 6.83615 44.0705 6.67157L44.0546 6.61867L43.991 6.63976L44.0494 6.60277C43.917 6.19443 43.7791 5.77573 43.6041 5.37259C43.3127 4.69905 42.7771 4.35991 41.9127 4.3173C40.5501 4.24296 39.3676 4.74673 38.1796 5.31408C37.5537 5.61108 37.2623 6.15701 37.3844 6.79877C37.4181 6.97855 37.4571 7.15833 37.4958 7.33628L37.4959 7.33662L37.4959 7.3369L37.496 7.33711L37.496 7.33727L37.496 7.33739L37.4961 7.33748L37.4961 7.33757L37.4961 7.33763C37.5121 7.41111 37.528 7.48428 37.5434 7.55701C37.6337 7.96535 37.7235 8.38405 37.782 8.79789C37.8138 9.02055 37.8722 9.24321 37.9303 9.4607C38.0786 10.0122 38.2166 10.5318 37.8615 11.0619C37.6973 11.3004 37.9994 11.7617 38.1689 11.8944C38.4818 12.1382 38.8583 12.4034 39.3036 12.4034C39.5052 12.4034 39.7067 12.3505 39.9135 12.2443L39.908 12.2393ZM39.399 7.14358C39.3831 7.05888 39.4945 6.8573 39.5315 6.83621C40.3799 6.54476 41.0798 6.35353 41.7159 6.23702C41.7743 6.24775 42.0181 6.45969 42.0606 6.60283C42.4212 7.82789 41.7851 9.16384 40.5811 9.71009C40.401 9.78961 40.2205 9.86913 40.0189 9.95383L39.9712 9.97491L39.8491 9.40753C39.6794 8.6282 39.5203 7.8859 39.3931 7.14356L39.399 7.14358ZM7.32794 14.4723C7.19836 14.525 6.88659 14.6519 6.66118 14.6519L6.646 14.6575C6.53468 14.6575 6.44997 14.6257 6.40744 14.5569C6.2802 14.3605 5.99392 13.8622 6.13706 13.5068C6.2961 13.1144 6.68299 12.7855 6.9959 12.6106C7.83369 12.1335 8.74061 11.9478 9.69487 12.0591C10.2145 12.1175 10.4424 12.4992 10.3788 13.1938L10.368 13.3263L10.2408 13.3529L10.2365 13.3538L10.2365 13.3538C10.1051 13.3801 9.9741 13.4064 9.83764 13.4272C9.55136 13.4749 9.24881 13.5278 8.98916 13.634C8.68691 13.7549 8.39401 13.9142 8.10634 14.0707L8.10633 14.0707L8.10632 14.0707L8.10631 14.0707L8.1063 14.0707L8.10629 14.0707L8.06114 14.0952C7.84884 14.2117 7.59954 14.3445 7.3558 14.461L7.32794 14.4723ZM9.74716 14.9653C9.74716 14.9653 9.71017 14.9442 9.70462 14.9335L9.65173 14.8858H9.58294C8.79806 14.8858 7.23384 15.7502 6.95281 16.238C6.80967 16.4925 6.76195 16.7629 6.82556 16.9855C6.87846 17.1657 6.99534 17.3088 7.17028 17.4046C7.29752 17.4734 7.46729 17.5108 7.64742 17.5108C7.849 17.5108 8.05058 17.4682 8.20408 17.3887C8.72375 17.1183 9.24346 16.7684 9.75241 16.3493C10.0017 16.1426 10.1818 15.7553 10.1607 15.469C10.1449 15.2421 9.91882 15.0885 9.7701 14.9875L9.76831 14.9863L9.74723 14.9704L9.74716 14.9653ZM9.74186 17.4468C9.89018 17.2929 10.0814 17.2186 10.2774 17.2293L10.2719 17.2344C10.516 17.2452 10.7546 17.3724 10.9295 17.5899C11.3908 18.1629 11.1204 18.603 10.9188 18.815C10.6961 19.0484 10.4787 19.2976 10.2719 19.5362C10.1077 19.7271 9.9379 19.9179 9.76813 20.1036C9.67787 20.2046 9.56654 20.2575 9.49775 20.2893L9.41305 20.3263H9.38124C9.01544 20.3263 8.65999 20.1299 8.48504 19.8277C8.35262 19.5943 8.3419 19.3346 8.46396 19.1171C8.7661 18.5764 9.1852 18.0301 9.74186 17.4468ZM3.01765 18.2311L3.13416 18.1674C3.19036 18.1337 3.24398 18.1054 3.29488 18.0784L3.29497 18.0784L3.29525 18.0782C3.31624 18.0671 3.33677 18.0563 3.35683 18.0454C3.48924 17.9766 3.60612 17.913 3.71227 17.8279L3.73336 17.812C3.83685 17.7268 3.93529 17.6366 4.03938 17.5412C4.08447 17.4999 4.13061 17.4576 4.17868 17.4144L4.18687 17.4068C4.40707 17.2023 4.63779 16.9881 4.88403 16.8204C5.17548 16.6243 5.34526 16.3695 5.37188 16.115C5.39297 15.9031 5.31344 15.7015 5.14405 15.5317C4.88957 15.2721 4.23749 15.2614 3.9508 15.4415C3.38341 15.7969 2.90071 16.2844 2.4928 16.7194C2.31268 16.9102 2.28604 17.3134 2.37629 17.5679C2.43991 17.748 2.58823 17.8649 2.74764 17.9869L2.77427 18.008L2.79364 18.0236L2.79379 18.0237L2.79383 18.0237L2.79386 18.0237C2.84022 18.061 2.88631 18.098 2.92814 18.1353L3.02357 18.2255L3.01765 18.2311ZM8.32065 20.7128C8.51188 20.9407 8.63356 21.2114 8.73971 21.4552L8.74488 21.4611C8.77755 21.5359 8.8105 21.6067 8.84323 21.6769L8.85621 21.7048L8.88802 21.7736L8.86139 21.8424C8.81801 21.9632 8.77921 22.0793 8.74054 22.1951L8.72898 22.2297L8.69717 22.3303L8.66562 22.425C8.53937 22.8046 8.41775 23.1702 8.2463 23.5179C8.15642 23.7036 7.84351 23.8149 7.59422 23.8149C7.5147 23.8149 7.44553 23.8042 7.39263 23.7831C7.15961 23.6877 6.59741 23.3271 6.66102 23.0249C6.80417 22.3621 7.03238 21.6778 7.33974 20.9939C7.4459 20.7657 7.87532 20.6596 8.01846 20.6385C8.11907 20.6226 8.24112 20.6174 8.32065 20.7128ZM1.34743 18.7291H1.3208H1.26791L1.22019 18.7609C1.21414 18.767 1.20477 18.7713 1.19491 18.7758L1.19489 18.7758L1.19487 18.7758C1.18728 18.7793 1.17939 18.7829 1.17248 18.7876L1.15658 18.7983L1.12889 18.814C1.01787 18.8767 0.861862 18.9648 0.764144 19.1112C0.525487 19.4614 0.335643 19.836 0.147559 20.2071L0.12242 20.2567C-0.142781 20.7871 0.0321715 21.3227 0.557395 21.5983C0.684635 21.6671 0.817046 21.6989 0.944646 21.6989C1.01899 21.6989 1.09296 21.6881 1.16731 21.6619C1.41106 21.5824 1.62855 21.3704 1.78759 21.0575C1.83531 20.9621 1.88302 20.8667 1.93591 20.7712C2.07387 20.506 2.21147 20.2305 2.33352 19.9494C2.44485 19.6897 2.41822 19.4031 2.25918 19.1701C2.07905 18.8945 1.73432 18.7299 1.3578 18.7299L1.34743 18.7291ZM5.76446 17.8227C5.95013 17.6851 6.39029 17.8068 6.53343 17.9925L6.53344 17.9929C6.65032 18.1412 6.91514 18.6239 6.73502 18.8625C6.45391 19.2334 6.1251 19.5678 5.80183 19.8911C5.75415 19.9387 5.70776 19.9864 5.66137 20.0341L5.66117 20.0343C5.61479 20.082 5.5684 20.1297 5.52072 20.1773C5.46129 20.2416 5.37863 20.2597 5.3291 20.2706L5.31914 20.2728L5.25552 20.2887H5.22371C4.83645 20.2887 4.48655 19.9968 4.34342 19.7105C4.21618 19.4616 4.22691 19.2123 4.37522 19.0266C4.73589 18.5757 5.21816 18.2207 5.68494 17.8811L5.76446 17.8227ZM4.26392 20.8984C3.98281 20.7712 3.45797 20.9728 3.26714 21.2165C3.00194 21.5612 2.83772 22.0066 2.83217 22.3883C2.83217 22.8073 3.22978 23.226 3.35702 23.3425C3.42064 23.4061 3.5268 23.4379 3.66439 23.4379H3.74391C3.91886 23.422 4.14152 23.3636 4.2425 23.2312C4.41227 23.0033 4.54986 22.7485 4.67192 22.5047C4.91567 22.0276 4.85204 21.4603 4.5236 21.0996C4.4389 21.0093 4.35383 20.9457 4.26395 20.9036L4.26392 20.8984ZM15.5322 9.63052C15.8558 9.58281 16.418 9.79474 16.5504 10.0918L16.5505 10.1017C16.7043 10.4306 16.8105 10.7805 16.89 11.0775C17.065 11.714 17.1127 12.3661 17.028 13.013V13.0448C16.9274 13.8559 16.8105 14.7736 16.6781 15.6801C16.6196 16.0936 16.5028 16.3696 16.3226 16.5286C16.1158 16.7091 15.7182 17.0113 15.3628 17.0113C15.3203 17.0113 15.2781 17.0061 15.2355 16.9954C15.0022 16.9421 14.8165 16.8097 14.7051 16.6081C14.5672 16.3644 14.5461 16.0408 14.6467 15.7175C15.2618 13.7983 15.3624 12.2074 14.9648 10.712C14.8853 10.4098 14.9119 10.1343 15.0443 9.9327C15.1505 9.76848 15.3202 9.66233 15.5322 9.63052Z" fill="black"/>
</svg>
