<svg width="20" height="20" viewBox="0 0 20 20" fill="none" xmlns="http://www.w3.org/2000/svg">
<path fill-rule="evenodd" clip-rule="evenodd" d="M19.7258 2.17066C19.8994 3.39433 19.3968 4.44184 18.6876 5.4142L18.6855 5.42377C18.5492 5.60919 18.4506 5.94981 18.528 6.13773C19.2515 7.87345 19.2984 9.68425 19.1975 11.5162C19.0918 13.4583 18.5562 15.2646 17.45 16.8805C16.8065 17.8222 16.0033 18.5575 14.7914 18.602C13.5277 18.6466 12.6047 18.0312 11.9564 16.9814C10.9111 15.2904 10.9652 13.4185 11.1202 11.5513C11.2072 10.499 11.3033 9.42556 11.6017 8.42275C11.9421 7.28364 12.3861 6.13269 13.0155 5.13219C13.8963 3.73472 13.9174 2.65672 12.7665 1.46124C12.6351 1.3251 12.5129 1.16766 12.4354 0.998585C12.2545 0.608841 12.447 0.30821 12.8722 0.317549C13.0367 0.319839 13.241 0.345725 13.3537 0.444353C14.2462 1.23582 14.9696 2.12136 14.9461 3.41545C14.9437 3.50932 14.9673 3.60336 14.9977 3.69724C15.0564 3.87336 15.2373 3.97903 15.4204 3.9438C15.6388 3.90153 15.8549 3.8591 15.9371 3.73C16.5338 2.79061 16.9942 1.9921 15.9419 0.951586C15.9335 0.943236 15.9246 0.9348 15.9155 0.926233C15.876 0.889077 15.834 0.849448 15.8244 0.803648C15.7987 0.68618 15.7751 0.566422 15.7517 0.44666C15.7094 0.223534 15.8739 0.0192377 16.0993 0.00514809C16.3177 -0.00648212 16.5245 -0.00648218 16.6465 0.094436C17.8984 1.14673 18.0981 2.43134 17.2548 3.87583C17.0317 4.26117 17.0553 4.48889 17.2948 4.65567C17.4664 4.77314 17.7036 4.71908 17.8163 4.54525C18.4857 3.52127 18.8098 2.45014 18.2578 1.20307C18.2108 1.09969 18.2155 0.972884 18.2319 0.841328C18.2554 0.655706 18.4126 0.514809 18.5983 0.514809L18.5997 0.514795C18.8389 0.51251 19.0729 0.510275 19.1338 0.613438C19.4158 1.08561 19.6483 1.6305 19.7258 2.17066ZM16.7992 15.5112C17.0387 15.1542 17.2219 14.762 17.4098 14.351L17.4099 14.3506C17.5321 14.0806 17.3042 13.7964 17.0106 13.8386C16.9518 13.8457 16.8979 13.8482 16.8438 13.8434C15.7353 13.7402 15.0118 13.0615 14.7653 11.9387C14.4764 10.6164 14.6221 9.32003 15.0636 8.0564C15.0855 7.99349 15.1073 7.93042 15.1291 7.86728C15.4056 7.06512 15.6855 6.25336 16.3954 5.66774C16.6115 5.49163 16.574 5.14396 16.3156 5.03829C15.9304 4.87855 15.5428 4.88331 15.1272 5.03829C13.8847 5.50341 13.2646 6.50622 12.9969 7.70644C12.8564 8.33804 12.7648 8.98037 12.6734 9.62239C12.5736 10.3221 12.474 11.0215 12.3111 11.7062C12.0973 12.6058 11.9775 13.4866 12.0902 14.3908C12.2311 15.5228 12.5552 16.5915 13.4759 17.3666C14.0161 17.8222 14.7041 17.9303 15.2115 17.4559C15.8175 16.8876 16.3341 16.2041 16.7992 15.5112ZM9.28822 1.86772C9.68519 3.21587 9.28575 4.42301 8.61881 5.56686L8.62146 5.55993C8.43584 5.87709 8.44993 6.07435 8.60737 6.4102C9.76289 8.86207 9.92964 11.4082 9.17341 14.0082C8.60981 15.948 7.78999 17.7447 6.22115 19.107C4.64035 20.481 2.49596 20.2415 1.19956 18.5809C0.318789 17.4534 0.0206154 16.1311 0.00177469 14.7736C-0.0405017 11.7229 0.671193 8.86228 2.28231 6.22231C2.71204 5.52013 2.99153 4.64873 3.06673 3.82908C3.14991 2.91124 2.48915 2.22099 1.87268 1.57701C1.86279 1.56668 1.85292 1.55637 1.84306 1.54607C1.81243 1.51314 1.78425 1.47562 1.76082 1.43564C1.62697 1.21482 1.75607 0.933029 2.00739 0.878963C2.05195 0.869625 2.09668 0.864874 2.14124 0.864874C2.96122 0.881495 3.3229 1.49066 3.66592 2.06838C3.70806 2.13936 3.74993 2.20987 3.79232 2.27874C3.96108 2.55262 4.05145 2.87228 4.14227 3.19355C4.19552 3.38192 4.24893 3.57084 4.31839 3.75141C4.39359 3.94636 4.53924 4.25403 4.66833 4.26108C4.72494 4.26467 4.78393 4.27126 4.84398 4.27797C5.17518 4.31496 5.53893 4.35558 5.71589 3.91818C6.19985 2.725 6.04945 2.04376 5.1546 1.11846C5.0889 1.0503 5.04663 0.956263 5.0137 0.855345C4.94801 0.655656 5.06072 0.43956 5.26502 0.38091C5.46703 0.324552 5.66428 0.277534 5.81927 0.338642C6.6507 0.669723 7.30603 1.95697 7.20969 2.93159C7.17676 3.26519 7.09927 3.60103 7.00769 3.92509C7.00501 3.9346 7.00236 3.94399 6.99975 3.95324C6.85146 4.4786 6.82015 4.58955 7.24017 4.83877C7.44691 4.96328 7.71462 4.85761 7.78506 4.62743C7.8131 4.5351 7.84173 4.44375 7.87009 4.35322C8.02938 3.84491 8.18045 3.36278 8.17253 2.88231C8.16633 2.40377 7.99397 1.92896 7.8212 1.453C7.79806 1.38925 7.77491 1.32548 7.75215 1.26167C7.66285 1.01267 7.86012 0.749716 8.12323 0.766099C8.67761 0.799064 9.08622 1.18421 9.28822 1.86772ZM7.30106 15.5608L7.31063 15.5417L7.30584 15.5414C7.43508 15.2853 7.23785 14.9824 6.9536 15.0035C5.51859 15.1116 4.79513 14.5008 4.44994 12.9813C4.27382 12.2062 4.18224 11.389 4.20337 10.5951C4.25022 8.85002 4.59082 7.20829 5.91787 6.0269C5.89282 5.87551 5.87781 5.78144 5.86214 5.68321C5.84841 5.59714 5.83417 5.50787 5.8122 5.37405H5.80516C4.85851 4.96298 4.3254 5.50557 3.83687 6.17025C2.41596 8.09869 1.32617 10.1983 1.25097 12.5893C1.23459 13.1367 1.21574 13.6839 1.16643 14.2288L1.10532 14.6046C1.05847 14.9311 1.03488 15.2645 1.03963 15.3679C1.10073 16.5399 1.43186 17.6156 2.22806 18.5057C3.05724 19.431 4.0553 19.5369 4.95489 18.7007C5.58434 18.1158 6.13171 17.43 6.63664 16.7324C6.89117 16.3807 7.08863 15.9857 7.30106 15.5608Z" fill="black"/>
</svg>
