<svg width="46" height="24" viewBox="0 0 46 24" fill="none" xmlns="http://www.w3.org/2000/svg">
<path fill-rule="evenodd" clip-rule="evenodd" d="M43.9717 5.36956C41.9793 3.07078 39.3331 1.88057 36.4314 1.27766C34.7811 0.935209 33.0546 0.588124 31.3994 0.715694C28.0686 0.965851 25.2894 2.46284 23.2971 5.43587C23.1663 5.23205 23.0513 5.03782 22.9426 4.85412C22.7243 4.48538 22.5312 4.15908 22.2854 3.88294C20.4004 1.76305 18.2652 0.0208318 15.2458 0.000488602C12.5486 -0.0198236 9.97899 0.593095 7.56754 1.85491C4.27778 3.57141 1.83067 5.9928 0.885664 9.69672C0.839152 9.87897 0.802184 10.0634 0.765279 10.2475C0.704915 10.5486 0.644721 10.8488 0.543214 11.1374C-0.304897 13.5282 -0.115678 15.9292 0.803707 18.1924C1.79469 20.6395 3.90965 22.1158 6.31608 22.8973C10.7145 24.3277 14.7248 23.0352 18.3678 20.5116C19.2171 19.9231 19.9471 19.1621 20.6738 18.4045C21.0007 18.0637 21.3269 17.7237 21.663 17.4003C21.8851 17.637 22.0994 17.8829 22.3138 18.1288C22.7749 18.6578 23.2358 19.1865 23.7729 19.6225C28.4678 23.4386 34.8276 23.3363 39.8705 20.0975C42.752 18.2481 44.601 15.4945 45.4135 12.1637C46.0061 9.7167 45.6894 7.35123 43.9678 5.36425L43.9717 5.36956ZM21.8924 9.31861C21.4427 13.5638 19.5986 17.0325 16.1196 19.5668C14.2755 20.9103 12.2012 21.6921 9.9227 21.8913C6.08094 22.249 2.25477 19.1684 2.45401 15.3369C2.46361 15.1561 2.47271 14.9744 2.48184 14.7918C2.61358 12.1577 2.75337 9.3625 4.56897 7.11707C7.45041 3.54606 11.103 1.39552 15.8024 1.68671C19.3017 1.90124 22.2698 5.79394 21.8971 9.32399L21.8924 9.31861ZM43.1032 11.5768C41.6012 16.762 37.1415 21.212 30.9137 20.6804C27.915 20.4249 25.4067 19.1171 23.7105 16.5119C23.0976 15.5669 22.9137 14.6268 23.358 13.5029C23.6683 12.7212 23.8159 11.8691 23.9626 11.0225L23.9626 11.0225L23.9626 11.0224L23.9626 11.0224L23.9626 11.0224L23.9626 11.0224C23.9923 10.8509 24.022 10.6797 24.0529 10.5093C25.039 5.07354 28.2268 2.6215 33.0593 2.29473C35.7362 2.60618 38.7605 3.18346 41.3198 5.10948C43.5371 6.78 43.7925 9.18114 43.1026 11.5769L43.1032 11.5768ZM17.5346 12.6439C16.7478 12.4343 16.2371 12.7768 16.0227 13.6808C15.5936 15.5199 14.4954 16.838 12.6765 17.5123C10.5616 18.2937 7.40972 16.9913 8.0483 13.9057C8.1046 13.6402 8.08394 13.3334 8.01766 13.0679C7.84412 12.3631 7.42505 12.0206 6.63824 12.0616C5.85677 12.0972 5.68822 12.6492 5.61123 13.1905C4.98797 17.6146 8.52332 19.8318 11.7568 19.566C11.8464 19.5627 11.9371 19.563 12.028 19.5634H12.0281H12.0282H12.0282H12.0283H12.0284H12.0284C12.2223 19.5642 12.4172 19.565 12.6049 19.5303C15.348 19.045 17.8055 17.3542 18.3981 14.3554C18.5563 13.5586 18.3521 12.8687 17.5346 12.6492L17.5346 12.6439ZM11.9049 12.0466C11.8694 12.2205 11.1591 12.3328 10.7657 12.3328L10.766 12.3381C9.96883 12.3278 9.6727 11.8068 9.69302 10.8207C9.71911 10.6392 9.73928 10.4376 9.76072 10.2235L9.76073 10.2234L9.76074 10.2234C9.81894 9.64203 9.88643 8.96783 10.1067 8.34806C10.2447 7.96498 10.9545 7.6122 11.4196 7.59189C11.7364 7.58155 12.3646 8.17951 12.3596 8.49096C12.334 9.68117 12.1501 10.8768 11.9049 12.0466ZM15.8187 8.58342C15.5785 7.83758 15.0066 7.60777 14.2657 7.66907C13.4783 7.7364 13.5031 8.24133 13.5302 8.79384C13.532 8.82915 13.5337 8.86465 13.5352 8.90025C13.5555 9.46221 13.5249 10.0292 13.4483 10.5861C13.2951 11.71 13.9949 11.9552 14.8737 12.0521C15.7634 12.1464 15.7916 11.589 15.82 11.0257C15.824 10.9484 15.8279 10.8711 15.834 10.7953L15.8903 9.43118C15.8837 9.34023 15.8835 9.24712 15.8834 9.15394C15.883 8.9594 15.8826 8.76454 15.824 8.58841L15.8187 8.58342ZM37.4838 12.4394C37.5244 12.1992 38.2856 11.8774 38.6587 11.9387L38.658 11.9333C39.3119 12.0406 39.7922 12.5003 39.685 13.3024C39.4754 14.8758 38.5968 15.9947 37.2533 16.7252C34.8166 18.0537 32.2572 18.6003 29.662 17.2515C27.4501 16.1069 26.7246 14.1046 26.8729 11.7085C26.9188 10.9527 27.2257 10.452 28.0378 10.5183C28.743 10.5746 29.218 10.9577 29.2486 11.7341C29.2538 11.8772 29.2576 12.019 29.2615 12.1607C29.2653 12.3024 29.2691 12.4442 29.2743 12.5872C29.3662 15.5043 30.8682 16.6589 33.678 15.8517C35.4505 15.3461 37.1008 14.6106 37.4838 12.4394ZM36.9829 10.2939L36.9856 10.242L36.9856 10.2419C37.0153 9.66362 37.0433 9.11799 37.0136 8.57239C36.9726 7.8572 36.3647 7.30025 35.6445 7.31056C34.7098 7.32588 34.5769 7.8572 34.5819 8.57239L34.5822 8.62326C34.5921 10.3871 34.594 10.7165 35.864 11.0857C36.4057 11.244 36.9524 10.8509 36.983 10.2889L36.9829 10.2939ZM32.9369 10.5903C32.9216 10.9071 32.6764 11.1726 32.3596 11.1879L32.355 11.1878C30.9706 11.249 30.3829 10.2478 30.6281 8.9093C30.9243 7.3104 31.0675 6.91699 31.9869 7.17748C32.3903 7.29013 32.9166 7.80078 32.9626 8.17886C33.0419 8.86176 32.9995 9.55632 32.9568 10.2554C32.95 10.367 32.9432 10.4786 32.9369 10.5903Z" fill="black"/>
</svg>
