<svg width="31" height="33" viewBox="0 0 31 33" fill="none" xmlns="http://www.w3.org/2000/svg">
<path fill-rule="evenodd" clip-rule="evenodd" d="M10.5623 0.253677C18.0294 0.947911 24.1927 3.663 27.9608 9.99981L27.9607 10.0004C30.4985 14.2657 31.9023 18.8558 30.1899 23.7963C28.6237 28.3166 25.3801 30.9279 20.4665 32.0809C18.8617 32.4576 17.4609 32.1457 16.0653 31.8349C15.5323 31.7163 15.0001 31.5978 14.4576 31.5178C11.2104 31.0398 8.33714 29.5857 5.97667 27.3834C3.70092 25.2579 2.15832 22.7048 1.06683 19.8391C-0.792247 14.9443 -0.0787287 10.2582 2.10418 5.71884C3.12246 3.60528 4.80391 1.85448 7.16817 0.963408C7.89665 0.687921 8.6887 0.563432 9.48194 0.438755C9.84377 0.381884 10.2059 0.324975 10.5623 0.253677ZM7.44985 8.88491C7.39579 11.0103 9.08502 13.5287 10.6201 13.6097H10.6204C13.0194 13.7332 14.4579 12.2599 14.5467 9.59085C14.6236 7.22253 13.3933 5.96534 10.9018 5.86499C8.83832 5.78406 7.49989 6.95648 7.44985 8.88491ZM15.7996 27.7566C17.1459 29.5116 18.565 29.9202 20.9255 29.3649L20.921 29.3611C26.7837 27.9844 29.63 21.6786 28.7931 17.409C28.2263 14.5124 27.0113 11.9052 25.2874 9.50246C23.5558 7.08814 21.1337 5.46833 18.3299 4.35748L18.1216 4.58885C18.2308 4.68734 18.3432 4.78325 18.4557 4.87918C18.7089 5.09512 18.9621 5.31116 19.1784 5.55685C21.1144 7.75485 21.1953 10.3699 20.9602 13.0233C20.7057 15.9006 18.5728 17.7906 15.5104 17.9563C13.4507 18.0679 12.1279 19.7844 12.61 21.7244C13.1693 23.9729 14.3764 25.9014 15.7996 27.7566ZM19.774 18.9515C20.9387 19.0788 22.1267 19.4568 23.1757 19.9774L23.1753 19.9773C24.5985 20.683 24.8724 22.1256 24.8724 23.5372C24.8765 25.4928 22.9712 26.7578 20.9077 26.2525C18.1154 25.5697 17.1474 24.3588 17.1049 21.4893C17.0742 19.5646 17.8302 18.7433 19.774 18.9515Z" fill="black"/>
</svg>
