<svg width="248" height="5" viewBox="0 0 248 5" fill="none" xmlns="http://www.w3.org/2000/svg">
<path fill-rule="evenodd" clip-rule="evenodd" d="M211.319 2.14171C209.544 2.10813 207.762 2.08993 205.985 2.06422C202.131 2.00871 198.277 1.9532 194.423 1.89769C192.277 1.86671 190.128 1.8333 187.983 1.8049C187.361 1.79668 186.739 1.78982 186.116 1.78382C184.718 1.77035 183.319 1.76082 181.922 1.74787C175.563 1.68779 169.206 1.62789 162.846 1.56797C161.333 1.55373 159.818 1.54583 158.306 1.5352C154.557 1.50801 150.811 1.481 147.063 1.45432C142.835 1.4237 138.606 1.38723 134.379 1.36607C127.537 1.33171 120.696 1.29737 113.855 1.26319C109.895 1.24305 105.931 1.21532 101.972 1.20669C95.1492 1.19158 88.3275 1.17613 81.5048 1.1605C77.7775 1.15187 74.0465 1.13875 70.3218 1.14164C63.2671 1.14678 56.2134 1.15227 49.1577 1.15791C45.388 1.16089 41.6137 1.15353 37.8521 1.17718C30.8283 1.22106 23.8045 1.26512 16.7798 1.30917C15.2628 1.31858 13.7448 1.32798 12.226 1.33772C9.19294 1.35655 6.17066 1.40226 3.14572 1.4368C2.95619 1.43995 2.76575 1.44275 2.57622 1.44573C2.21455 1.46129 1.89965 1.49225 1.63151 1.53944C1.23159 1.61008 1.00342 1.70985 1.0024 1.81557C1.00138 1.92096 1.22759 2.02562 1.62607 2.10378C1.98874 2.17525 2.60627 2.24128 3.13802 2.23542C6.78764 2.19387 10.4318 2.14762 14.0904 2.12503C17.4813 2.10381 20.8713 2.08293 24.2613 2.06204C27.9614 2.03917 31.6605 2.01628 35.3596 1.99357C36.8499 1.98424 38.344 1.9674 39.836 1.96633C45.6047 1.96219 51.3725 1.9589 57.1421 1.95546C60.737 1.95302 64.3338 1.95078 67.9288 1.94835C69.4144 1.94739 70.9001 1.94266 72.3857 1.94599C78.1018 1.95816 83.8188 1.97429 89.5339 1.98852C92.9991 1.99702 96.4633 2.00603 99.9275 2.01453C101.092 2.01734 102.257 2.01809 103.421 2.024C109.594 2.05688 115.765 2.09026 121.938 2.12365C125.384 2.14211 128.83 2.16073 132.277 2.17918C133.505 2.18569 134.731 2.18979 135.958 2.19938C142.323 2.24837 148.687 2.29768 155.053 2.34684C159.024 2.37739 162.992 2.40859 166.963 2.44875C173.722 2.51698 180.482 2.58504 187.239 2.65308C188.573 2.66645 189.906 2.68977 191.239 2.70982C194.969 2.7662 198.7 2.82258 202.429 2.87895C205.227 2.92136 208.026 2.96361 210.825 3.00586C212.81 3.0358 214.793 3.08256 216.776 3.12175C222.616 3.2369 228.453 3.35392 234.291 3.47816C235.773 3.50978 237.254 3.545 238.737 3.57954C240.324 3.6163 241.917 3.65259 243.5 3.70131C243.746 3.71124 243.991 3.72218 244.237 3.73451C244.861 3.76507 245.461 3.76416 246.022 3.70811C246.542 3.65664 246.929 3.56648 247.09 3.46006C247.427 3.23604 246.692 2.98745 245.477 2.91291C244.414 2.84774 243.31 2.81513 242.214 2.78396C241.463 2.76248 240.713 2.74101 239.962 2.71987C238.518 2.67883 237.063 2.65108 235.617 2.61671C232.903 2.55245 230.18 2.50407 227.463 2.44835C222.085 2.33782 216.7 2.24404 211.319 2.14171Z" fill="black" stroke="black"/>
</svg>
