<svg width="154" height="4" viewBox="0 0 154 4" fill="none" xmlns="http://www.w3.org/2000/svg">
<path fill-rule="evenodd" clip-rule="evenodd" d="M130.871 1.37025C129.775 1.34266 128.675 1.33099 127.577 1.31155C125.198 1.26964 122.818 1.22772 120.438 1.18581C119.113 1.1624 117.787 1.13649 116.462 1.11574C116.078 1.10973 115.694 1.10515 115.31 1.10144C114.446 1.09312 113.582 1.08888 112.72 1.08109C108.794 1.0445 104.868 1.00808 100.941 0.971658C100.007 0.963009 99.0714 0.960911 98.1376 0.955992C95.8232 0.942911 93.5099 0.930018 91.1954 0.917469C88.585 0.902777 85.9736 0.882042 83.3637 0.87711C79.139 0.869033 74.9149 0.860962 70.6902 0.853062C68.245 0.848122 65.7977 0.835355 63.3529 0.842303C59.14 0.854027 54.9276 0.865404 50.7147 0.876596C48.4131 0.882618 46.1093 0.884005 43.8093 0.901926C39.453 0.935505 35.0973 0.969443 30.7404 1.00355C28.4126 1.02173 26.082 1.02925 23.7591 1.06877C19.4218 1.14226 15.0844 1.21593 10.7465 1.2896C9.80968 1.3054 8.87233 1.3212 7.93442 1.33735C6.06143 1.36896 4.19499 1.42831 2.32695 1.47611C2.20991 1.48013 2.0923 1.48379 1.97525 1.48762C1.75186 1.50516 1.55729 1.5384 1.39152 1.58825C1.14429 1.66284 1.00299 1.76684 1.00194 1.87609C1.00089 1.98499 1.14015 2.09223 1.3859 2.1714C1.60956 2.2438 1.99062 2.30955 2.319 2.30136C4.5728 2.2438 6.82323 2.18141 9.08252 2.14341C11.1765 2.10789 13.2699 2.07272 15.3633 2.03756C17.6482 1.99909 19.9324 1.96062 22.2167 1.92233C23.137 1.90672 24.0597 1.88333 24.981 1.87625C28.5432 1.84885 32.1048 1.82233 35.6675 1.79565C37.8874 1.77873 40.1085 1.762 42.3284 1.74508C43.2457 1.73814 44.1632 1.72729 45.0805 1.72478C48.6101 1.71445 52.1403 1.70821 55.6693 1.7C57.809 1.69491 59.9481 1.69033 62.0873 1.68523C62.8064 1.68347 63.5255 1.67958 64.2446 1.68101C68.0563 1.69025 71.8669 1.70001 75.678 1.70978C77.8063 1.71504 79.9339 1.72047 82.0622 1.72572C82.8204 1.72753 83.5776 1.72685 84.3352 1.73184C88.2655 1.75695 92.1952 1.78241 96.1255 1.80769C98.578 1.82334 101.028 1.83968 103.48 1.86526C107.653 1.90867 111.827 1.95191 116 1.99514C116.823 2.00361 117.646 2.02236 118.469 2.03774C120.772 2.08105 123.076 2.12435 125.378 2.16765C127.106 2.20026 128.834 2.2327 130.562 2.26514C131.788 2.28813 133.012 2.32849 134.237 2.36104C137.842 2.45663 141.446 2.55415 145.051 2.65913C145.966 2.68586 146.88 2.71632 147.796 2.74607C148.776 2.77769 149.759 2.8088 150.736 2.85281C150.888 2.86208 151.039 2.8724 151.192 2.88416C151.576 2.91323 151.947 2.90989 152.294 2.84972C152.615 2.79446 152.854 2.69974 152.954 2.58914C153.163 2.35631 152.71 2.10238 151.96 2.03023C151.304 1.96715 150.622 1.93788 149.946 1.91007C149.482 1.89088 149.019 1.87169 148.556 1.85286C147.664 1.81625 146.766 1.7934 145.873 1.76368C144.197 1.70816 142.516 1.66908 140.838 1.6224C137.518 1.52974 134.193 1.45441 130.871 1.37025Z" fill="black" stroke="black"/>
</svg>
