<svg width="58" height="4" viewBox="0 0 58 4" fill="none" xmlns="http://www.w3.org/2000/svg">
<path fill-rule="evenodd" clip-rule="evenodd" d="M48.8773 1.56837C48.4736 1.5491 48.0684 1.54423 47.6642 1.53233C46.7876 1.50674 45.9109 1.48115 45.0343 1.45556C44.5462 1.44124 44.0576 1.42468 43.5695 1.41276C43.4281 1.40932 43.2866 1.40715 43.145 1.40579C42.8269 1.40272 42.5086 1.40334 42.1908 1.40076C40.7443 1.38794 39.298 1.37528 37.8513 1.36262C37.5071 1.35963 37.1625 1.36255 36.8184 1.36292C35.9657 1.36303 35.1134 1.36331 34.2606 1.36391C33.2989 1.36409 32.3368 1.35882 31.3751 1.36782C29.8185 1.38229 28.2621 1.39677 26.7055 1.41141C25.8046 1.41955 24.9029 1.42063 24.002 1.43951C22.4496 1.47181 20.8975 1.50379 19.3451 1.53561C18.497 1.55291 17.6481 1.56604 16.8005 1.59408C15.1952 1.64686 13.5901 1.69996 11.9846 1.75321C11.1268 1.78163 10.268 1.80044 9.41187 1.8481C7.81332 1.93683 6.21477 2.02572 4.61601 2.11461C4.27075 2.13371 3.92529 2.15281 3.57962 2.17223C2.88932 2.21043 2.2013 2.27365 1.51274 2.32646C1.46959 2.33069 1.42624 2.33459 1.38309 2.33866C1.30069 2.35565 1.22882 2.38668 1.16749 2.43255C1.07601 2.5012 1.02341 2.59586 1.02246 2.69454C1.02151 2.7929 1.07227 2.88903 1.16241 2.95927C1.24445 3.0235 1.38452 3.08093 1.50556 3.07184C2.3363 3.00823 3.16583 2.94029 3.9985 2.89432C4.77024 2.85145 5.54178 2.8089 6.31331 2.76635C7.1554 2.71984 7.99728 2.67332 8.83915 2.62696C9.17834 2.60812 9.51842 2.58224 9.85795 2.5711C11.1706 2.52799 12.4831 2.48569 13.796 2.44323C14.614 2.41651 15.4325 2.38995 16.2505 2.36323C16.5886 2.35223 16.9267 2.3377 17.2647 2.33071C18.5653 2.30319 19.8661 2.27936 21.1665 2.25376C21.9549 2.23813 22.7431 2.22298 23.5313 2.20734C23.7963 2.20205 24.0613 2.19483 24.3262 2.19241C25.7307 2.18111 27.1347 2.17029 28.5389 2.15947C29.3231 2.15325 30.107 2.14719 30.8912 2.14097C31.1706 2.1387 31.4496 2.13418 31.7287 2.13478C33.1768 2.1372 34.6246 2.13994 36.0727 2.14252C36.9762 2.14402 37.8787 2.14615 38.7822 2.15662C40.3197 2.17432 41.8574 2.19186 43.3946 2.2094C43.698 2.21281 44.0011 2.2255 44.3042 2.23515C45.1527 2.26239 46.0012 2.28963 46.8495 2.31687C47.4859 2.33743 48.1224 2.35782 48.759 2.37821C49.2105 2.39266 49.6616 2.4228 50.1125 2.44589C51.4404 2.51364 52.7679 2.58314 54.0956 2.65938C54.4325 2.67881 54.7694 2.7016 55.1065 2.72376C55.4675 2.74726 55.8297 2.7703 56.1895 2.80501C56.2455 2.81259 56.3011 2.82114 56.3571 2.83097C56.4987 2.85525 56.6354 2.85032 56.7634 2.7942C56.8819 2.74263 56.9706 2.65585 57.008 2.55544C57.0862 2.34407 56.9208 2.11707 56.6447 2.05577C56.4033 2.00218 56.1522 1.97925 55.903 1.95762C55.7324 1.94268 55.5618 1.92774 55.3912 1.91312C55.0629 1.88464 54.732 1.86863 54.4031 1.8464C53.7859 1.80489 53.1668 1.77825 52.5488 1.74474C51.3259 1.67816 50.1011 1.62727 48.8773 1.56837Z" fill="black" stroke="black"/>
</svg>
