<svg width="102" height="3" viewBox="0 0 102 3" fill="none" xmlns="http://www.w3.org/2000/svg">
<path fill-rule="evenodd" clip-rule="evenodd" d="M86.4656 0.93062C85.7446 0.908292 85.0208 0.900356 84.299 0.885389C82.7336 0.853161 81.1679 0.820929 79.6025 0.788701C78.7309 0.770688 77.8581 0.750422 76.9865 0.734812C76.7339 0.730295 76.4814 0.72706 76.2284 0.724623C75.6605 0.719149 75.0921 0.717358 74.5246 0.712369C71.9415 0.688597 69.3589 0.664988 66.7755 0.641373C66.1609 0.63577 65.5454 0.636087 64.9311 0.633852C63.4085 0.627508 61.8865 0.621333 60.3639 0.61547C58.6465 0.608372 56.9285 0.595818 55.2114 0.597534C52.432 0.600226 49.6529 0.602923 46.8735 0.605776C45.2648 0.607094 43.6546 0.601349 42.0462 0.613404C39.2745 0.633954 36.5031 0.654188 33.7313 0.674257C32.2171 0.685137 30.7014 0.691837 29.1881 0.713461C26.322 0.754089 23.4563 0.795039 20.5898 0.836144C19.0582 0.858072 17.5249 0.870372 15.9965 0.911556C13.1428 0.988189 10.289 1.06498 7.43486 1.14177C6.8185 1.15826 6.20178 1.17475 5.58467 1.19155C4.35234 1.22453 3.12425 1.28255 1.89514 1.33014C1.81813 1.33405 1.74074 1.33762 1.66373 1.34137C1.51672 1.35773 1.38862 1.38822 1.27945 1.43363C1.11661 1.50159 1.02341 1.59586 1.02246 1.69454C1.02151 1.7929 1.11288 1.88942 1.27437 1.96035C1.42135 2.02521 1.67189 2.0837 1.88796 2.07553C3.37089 2.0182 4.85162 1.95653 6.33812 1.91687C7.71585 1.87984 9.0932 1.84313 10.4706 1.80642C11.9739 1.76627 13.4768 1.72613 14.9798 1.68614C15.5853 1.66987 16.1924 1.64656 16.7985 1.63798C19.1422 1.60482 21.4855 1.57245 23.8295 1.53993C25.29 1.5194 26.7513 1.49903 28.2118 1.4785C28.8154 1.47006 29.419 1.4581 30.0225 1.45366C32.3447 1.43599 34.6673 1.422 36.9891 1.40625C38.3968 1.39658 39.8042 1.3874 41.2115 1.37773C41.6846 1.37444 42.1578 1.36923 42.6308 1.36882C45.1386 1.36815 47.6456 1.36796 50.153 1.36777C51.5531 1.36749 52.9529 1.36736 54.3531 1.36708C54.852 1.36692 55.3501 1.36451 55.8486 1.36723C58.4343 1.38062 61.0196 1.39432 63.6054 1.40786C65.2188 1.4162 66.8304 1.42517 68.4438 1.44248C71.1893 1.47182 73.9351 1.501 76.6803 1.53018C77.222 1.53589 77.7634 1.55088 78.3047 1.56282C79.82 1.59649 81.3353 1.63016 82.8503 1.66382C83.9867 1.68919 85.1236 1.71441 86.2605 1.73962C87.0667 1.75749 87.8724 1.79105 88.6778 1.81755C91.0495 1.89536 93.4205 1.97492 95.7917 2.06122C96.3935 2.0832 96.9953 2.10855 97.5974 2.13325C98.2421 2.15949 98.8891 2.18527 99.5318 2.22271C99.6319 2.23072 99.7312 2.23969 99.8312 2.24995C100.084 2.2753 100.328 2.2714 100.556 2.21624C100.768 2.16557 100.926 2.07945 100.991 1.97932C101.13 1.76853 100.832 1.54025 100.339 1.47686C99.9076 1.42144 99.4591 1.39661 99.0139 1.37309C98.7091 1.35686 98.4043 1.34062 98.0996 1.32471C97.5132 1.29375 96.9222 1.27523 96.3347 1.25051C95.2324 1.20432 94.1266 1.17299 93.0227 1.1348C90.8386 1.05896 88.6513 0.998786 86.4656 0.93062Z" fill="black" stroke="black"/>
</svg>
