<svg width="179" height="5" viewBox="0 0 179 5" fill="none" xmlns="http://www.w3.org/2000/svg">
<path fill-rule="evenodd" clip-rule="evenodd" d="M152.644 1.6144C151.364 1.5801 150.08 1.56635 148.799 1.54256C146.021 1.49129 143.242 1.44003 140.464 1.38876C138.917 1.36012 137.368 1.32826 135.821 1.30305C135.373 1.29576 134.925 1.2903 134.476 1.28597C133.468 1.27626 132.459 1.2718 131.452 1.26278C126.868 1.22021 122.285 1.17786 117.7 1.13551C116.609 1.12546 115.517 1.12386 114.427 1.11862C111.725 1.10447 109.024 1.09058 106.322 1.07712C103.274 1.06125 100.225 1.03759 97.1778 1.03431C92.2453 1.02889 87.3135 1.02347 82.381 1.01828C79.5261 1.0148 76.6687 1.00122 73.8144 1.01308C68.8955 1.03319 63.9774 1.05286 59.0586 1.07228C56.3714 1.08277 53.6816 1.08729 50.9962 1.11314C45.91 1.16162 40.8244 1.21056 35.7376 1.25972C33.0197 1.28594 30.2987 1.2984 27.5865 1.35214C22.5223 1.4521 17.4582 1.55229 12.3934 1.65247C11.2996 1.67397 10.2052 1.69547 9.11011 1.71741C6.92327 1.76042 4.74405 1.83921 2.56298 1.9031C2.42632 1.90842 2.289 1.91328 2.15234 1.91837C1.8915 1.94126 1.66428 1.98438 1.47068 2.04889C1.18194 2.14544 1.01685 2.2798 1.01549 2.42077C1.01413 2.56128 1.1766 2.69948 1.46343 2.80135C1.72448 2.8945 2.16931 2.97889 2.55272 2.96794C5.1842 2.89099 7.81176 2.80783 10.4496 2.75612C12.8945 2.70782 15.3387 2.65996 17.7829 2.61211C20.4506 2.55978 23.1176 2.50743 25.7847 2.45532C26.8592 2.43409 27.9365 2.40282 29.0122 2.39259C33.1712 2.35303 37.3296 2.3146 41.4893 2.27595C44.0811 2.2515 46.6743 2.22728 49.2661 2.20282C50.3372 2.19278 51.4084 2.17769 52.4794 2.17337C56.6004 2.15587 60.7221 2.14363 64.8424 2.12887C67.3406 2.11976 69.8381 2.11133 72.3356 2.10221C73.1752 2.09909 74.0148 2.09322 74.8544 2.09422C79.3047 2.10163 83.7538 2.10972 88.2035 2.11781C90.6883 2.12208 93.1724 2.12656 95.6572 2.13083C96.5425 2.13226 97.4265 2.13049 98.3111 2.13604C102.9 2.16378 107.488 2.19198 112.077 2.21995C114.94 2.23724 117.8 2.25542 120.663 2.28553C125.536 2.33661 130.409 2.38746 135.28 2.4383C136.242 2.44826 137.203 2.47148 138.163 2.49035C140.853 2.5435 143.542 2.59665 146.23 2.6498C148.247 2.68983 150.265 2.72965 152.283 2.76946C153.713 2.79767 155.143 2.8483 156.573 2.88885C160.782 3.00792 164.99 3.12949 169.198 3.26068C170.266 3.29409 171.334 3.33231 172.403 3.36961C173.547 3.40925 174.695 3.44824 175.836 3.50386C176.014 3.51564 176.19 3.52879 176.368 3.54377C176.817 3.58083 177.25 3.57608 177.654 3.49804C178.029 3.42635 178.309 3.30385 178.426 3.16102C178.67 2.86035 178.142 2.53324 177.266 2.44103C176.5 2.36042 175.704 2.32345 174.914 2.28837C174.373 2.26416 173.832 2.23995 173.291 2.2162C172.251 2.17001 171.202 2.14159 170.159 2.1043C168.203 2.03464 166.24 1.98621 164.281 1.92796C160.405 1.81233 156.523 1.71907 152.644 1.6144Z" fill="black" stroke="black"/>
</svg>
