<svg width="220" height="5" viewBox="0 0 220 5" fill="none" xmlns="http://www.w3.org/2000/svg">
<path fill-rule="evenodd" clip-rule="evenodd" d="M187.247 1.61544C185.676 1.57037 184.098 1.55329 182.525 1.52254C179.113 1.45629 175.7 1.39004 172.287 1.32379C170.387 1.28677 168.485 1.24537 166.585 1.21303C166.035 1.20367 165.484 1.1968 164.933 1.19149C163.695 1.17956 162.456 1.17479 161.219 1.16381C155.588 1.11173 149.959 1.05997 144.328 1.00819C142.988 0.995906 141.647 0.995138 140.308 0.989405C136.989 0.973632 133.671 0.958188 130.352 0.943351C126.609 0.925671 122.864 0.897371 119.121 0.896847C113.063 0.895832 107.005 0.894827 100.947 0.894123C97.4404 0.893069 93.9307 0.878264 90.4248 0.898106C84.3832 0.931862 78.3424 0.965006 72.3008 0.997827C69.0002 1.01559 65.6964 1.02522 62.3981 1.0639C56.1508 1.13652 49.9044 1.20977 43.6563 1.28332C40.318 1.32255 36.9758 1.34304 33.6445 1.41975C27.4243 1.56247 21.204 1.70551 14.983 1.84854C13.6396 1.87924 12.2953 1.90993 10.9502 1.94125C8.26416 2.00266 5.5874 2.11281 2.90839 2.20267C2.74053 2.2101 2.57186 2.21689 2.404 2.224C2.08359 2.25552 1.80446 2.31457 1.56658 2.4027C1.21181 2.5346 1.00886 2.71785 1.00701 2.9099C1.00516 3.10133 1.20453 3.2894 1.5567 3.4278C1.87722 3.55436 2.42347 3.66875 2.89441 3.65334C6.12666 3.54511 9.3541 3.42843 12.5942 3.35457C15.5971 3.28561 18.5993 3.21726 21.6015 3.14891C24.8782 3.07417 28.1541 2.99941 31.43 2.92497C32.7498 2.89466 34.073 2.85067 35.3943 2.83534C40.5027 2.77607 45.6103 2.71834 50.7196 2.66032C53.9031 2.62365 57.0882 2.58731 60.2717 2.55065C61.5873 2.53557 62.9029 2.51364 64.2185 2.50637C69.2802 2.4772 74.3426 2.45521 79.4035 2.42977C82.4719 2.41413 85.5395 2.39942 88.6072 2.38377C89.6384 2.37843 90.6697 2.36935 91.7009 2.36962C97.1671 2.37397 102.632 2.37924 108.097 2.38452C111.149 2.38712 114.2 2.39002 117.252 2.39262C118.34 2.39343 119.425 2.38987 120.512 2.39629C126.148 2.42815 131.783 2.46064 137.42 2.49282C140.936 2.51268 144.449 2.53375 147.966 2.57107C153.95 2.63436 159.936 2.69734 165.919 2.7603C167.1 2.77262 168.28 2.80301 169.46 2.82748C172.763 2.89642 176.066 2.96535 179.369 3.03428C181.846 3.08622 184.324 3.13785 186.802 3.18948C188.559 3.22606 190.316 3.29319 192.071 3.34659C197.241 3.50336 202.409 3.66354 207.578 3.83683C208.89 3.88096 210.202 3.93164 211.514 3.98108C212.92 4.0336 214.33 4.08523 215.731 4.15953C215.949 4.17536 216.166 4.19304 216.384 4.21322C216.935 4.26313 217.467 4.25609 217.964 4.14926C218.425 4.05111 218.768 3.88387 218.912 3.68913C219.213 3.2792 218.564 2.83426 217.489 2.70977C216.548 2.60093 215.571 2.5516 214.6 2.50483C213.936 2.47255 213.271 2.44027 212.607 2.40861C211.329 2.34703 210.041 2.30967 208.76 2.26022C206.357 2.16785 203.947 2.1044 201.541 2.02758C196.78 1.87506 192.012 1.75303 187.247 1.61544Z" fill="black" stroke="black"/>
</svg>
