<svg width="168" height="4" viewBox="0 0 168 4" fill="none" xmlns="http://www.w3.org/2000/svg">
<path fill-rule="evenodd" clip-rule="evenodd" d="M143.074 1.48786C141.875 1.45927 140.672 1.44661 139.471 1.42617C136.868 1.38211 134.264 1.33804 131.661 1.29397C130.212 1.26936 128.761 1.24225 127.311 1.2203C126.891 1.21394 126.471 1.20901 126.051 1.20495C125.106 1.19585 124.161 1.19083 123.217 1.18226C118.922 1.14211 114.627 1.10214 110.332 1.06216C109.31 1.05266 108.286 1.04972 107.265 1.04395C104.733 1.02878 102.202 1.01379 99.6701 0.999143C96.8144 0.982087 93.9575 0.958986 91.1024 0.951691C86.4807 0.939788 81.8596 0.927892 77.2379 0.916165C74.563 0.909011 71.8856 0.894027 69.2111 0.898761C64.6023 0.90667 59.9941 0.914232 55.3853 0.921609C52.8674 0.925546 50.3471 0.924847 47.831 0.940686C43.0654 0.97032 38.3004 1.00031 33.5341 1.03047C30.9875 1.04655 28.438 1.05196 25.8968 1.08937C21.1519 1.15894 16.407 1.22868 11.6615 1.29842C10.6367 1.31337 9.61131 1.32832 8.58527 1.34362C6.5363 1.37354 4.49452 1.4312 2.45098 1.47731C2.32294 1.48122 2.19428 1.48477 2.06624 1.4885C1.82188 1.50584 1.60905 1.5389 1.42775 1.5886C1.15735 1.66297 1.00287 1.76684 1.00182 1.87609C1.00077 1.98499 1.15321 2.09236 1.42213 2.17175C1.66687 2.24435 2.0838 2.31045 2.44303 2.30256C4.90857 2.24703 7.37043 2.18668 9.84199 2.15073C12.1327 2.11711 14.4228 2.08384 16.7129 2.05057C19.2124 2.01417 21.7113 1.97777 24.2103 1.94154C25.217 1.92677 26.2264 1.90421 27.2343 1.89796C31.1312 1.87379 35.0274 1.8505 38.9249 1.82705C41.3534 1.81214 43.7832 1.79742 46.2116 1.78251C47.2152 1.77639 48.2189 1.76638 49.2224 1.7647C53.0837 1.75757 56.9456 1.75452 60.8063 1.74951C63.147 1.74635 65.4871 1.74372 67.8273 1.74055C68.614 1.73944 69.4007 1.7362 70.1873 1.73828C74.3572 1.75098 78.5259 1.76419 82.6952 1.77741C85.0235 1.78459 87.3511 1.79195 89.6793 1.79913C90.5088 1.80163 91.3371 1.80163 92.166 1.80731C96.4656 1.83598 100.765 1.86499 105.064 1.89384C107.747 1.91171 110.427 1.93026 113.11 1.95807C117.675 2.00526 122.241 2.05228 126.806 2.09929C127.707 2.1085 128.607 2.128 129.508 2.14412C132.027 2.18952 134.547 2.23491 137.067 2.28029C138.956 2.31447 140.847 2.34847 142.737 2.38248C144.078 2.40658 145.418 2.44805 146.757 2.48171C150.702 2.58056 154.644 2.68135 158.588 2.78959C159.589 2.81715 160.589 2.84844 161.591 2.87902C162.663 2.91152 163.739 2.94353 164.808 2.98842C164.974 2.99783 165.14 3.00829 165.306 3.02018C165.727 3.0496 166.133 3.0466 166.512 2.98675C166.863 2.93177 167.125 2.83727 167.234 2.72676C167.462 2.49411 166.967 2.23978 166.146 2.16695C165.428 2.10327 164.683 2.07338 163.942 2.04496C163.435 2.02535 162.928 2.00574 162.422 1.98649C161.446 1.94907 160.464 1.92541 159.486 1.89488C157.653 1.83784 155.814 1.79724 153.979 1.74904C150.346 1.65337 146.709 1.57503 143.074 1.48786Z" fill="black" stroke="black"/>
</svg>
