<svg width="94" height="3" viewBox="0 0 94 3" fill="none" xmlns="http://www.w3.org/2000/svg">
<path fill-rule="evenodd" clip-rule="evenodd" d="M79.9192 0.829196C79.2534 0.812892 78.5852 0.805834 77.9187 0.794261C76.4732 0.769311 75.0273 0.744357 73.5819 0.719407C72.777 0.705471 71.9712 0.690083 71.1663 0.677691C70.9331 0.674105 70.6999 0.671343 70.4663 0.669092C69.9419 0.664038 69.4171 0.66135 68.893 0.656608C66.508 0.634343 64.1233 0.612185 61.7379 0.59002C61.1703 0.584756 60.6021 0.583297 60.0348 0.580199C58.6289 0.572005 57.2236 0.563921 55.8176 0.556036C54.2319 0.54683 52.6455 0.534116 51.0601 0.530577C48.4938 0.524795 45.9277 0.519017 43.3614 0.513338C41.876 0.509837 40.3893 0.501791 38.9042 0.505194C36.345 0.510912 33.7861 0.51643 31.2269 0.521839C29.8288 0.524741 28.4293 0.524951 27.0321 0.534762C24.3858 0.553134 21.7399 0.571714 19.0932 0.590391C17.6792 0.600348 16.2634 0.604111 14.8523 0.626456C12.2175 0.668008 9.58275 0.709664 6.94762 0.751316C6.37856 0.760251 5.80916 0.769181 5.23941 0.778315C4.10163 0.796188 2.96785 0.830166 1.83309 0.85744C1.76199 0.859742 1.69055 0.861834 1.61945 0.864032C1.48375 0.874157 1.36556 0.89341 1.26487 0.922307C1.11471 0.965558 1.0289 1.02591 1.02829 1.08935C1.02768 1.15258 1.1123 1.21488 1.26161 1.26091C1.39749 1.30301 1.62899 1.34129 1.82847 1.33662C3.19757 1.30377 4.56462 1.26813 5.93705 1.24665C7.20906 1.22657 8.48073 1.20669 9.7524 1.18681C11.1404 1.16507 12.528 1.14332 13.9156 1.12167C14.4747 1.11285 15.0351 1.09951 15.5948 1.09563C17.7587 1.08065 19.9223 1.06617 22.0865 1.0516C23.435 1.04235 24.7842 1.03321 26.1327 1.02396C26.69 1.02016 27.2473 1.0141 27.8045 1.01288C29.9487 1.00779 32.0931 1.00508 34.2369 1.00123C35.5367 0.998823 36.8361 0.996721 38.1356 0.99431C38.5724 0.993473 39.0093 0.9914 39.4461 0.992417C41.7616 0.998769 44.0764 1.00542 46.3916 1.01208C47.6844 1.01568 48.9769 1.01938 50.2697 1.02299C50.7303 1.02423 51.1903 1.02403 51.6505 1.02713C54.0381 1.04272 56.4252 1.05852 58.8128 1.07421C60.3026 1.08394 61.7906 1.09405 63.2804 1.10954C65.8155 1.13583 68.3509 1.16202 70.8857 1.18819C71.3859 1.19332 71.8858 1.20443 72.3857 1.21357C73.7849 1.23931 75.1842 1.26505 76.583 1.29079C77.6325 1.31017 78.6822 1.32945 79.732 1.34874C80.4765 1.3624 81.2205 1.38615 81.9642 1.40537C84.1544 1.4618 86.3438 1.51936 88.5335 1.58125C89.0892 1.59701 89.6449 1.61493 90.2009 1.63244C90.7963 1.65105 91.3937 1.66937 91.9873 1.69518C92.0797 1.7006 92.1714 1.70663 92.2638 1.7135C92.4976 1.73048 92.7229 1.72863 92.9334 1.69379C93.1283 1.66178 93.2738 1.60685 93.3344 1.54265C93.4613 1.40751 93.1864 1.25995 92.7306 1.21787C92.3321 1.18107 91.9179 1.16389 91.5068 1.14757C91.2253 1.13631 90.9439 1.12505 90.6624 1.114C90.1209 1.09251 89.5752 1.07901 89.0326 1.06152C88.0147 1.02885 86.9936 1.00572 85.9743 0.978184C83.9573 0.923523 81.9376 0.878927 79.9192 0.829196Z" fill="black" stroke="black"/>
</svg>
