<svg width="193" height="4" viewBox="0 0 193 4" fill="none" xmlns="http://www.w3.org/2000/svg">
<path fill-rule="evenodd" clip-rule="evenodd" d="M164.312 1.6887C162.934 1.65894 161.551 1.64458 160.171 1.6227C157.179 1.57549 154.186 1.52828 151.193 1.48108C149.527 1.45472 147.859 1.42594 146.193 1.40216C145.71 1.39527 145.227 1.38976 144.743 1.3851C143.658 1.37464 142.571 1.36812 141.487 1.35818C136.549 1.3118 131.613 1.26559 126.675 1.21938C125.5 1.2084 124.323 1.20376 123.149 1.19639C120.239 1.17727 117.33 1.15833 114.419 1.13972C111.136 1.11821 107.852 1.09085 104.57 1.07879C99.2578 1.05918 93.9459 1.03957 88.6333 1.02013C85.5585 1.00852 82.4808 0.989327 79.4066 0.989224C74.1088 0.988806 68.8117 0.988052 63.5139 0.987119C60.6197 0.986519 57.7226 0.981428 54.8304 0.992349C49.3524 1.01268 43.8752 1.03336 38.3964 1.0542C35.4692 1.0653 32.5385 1.06607 29.6176 1.09782C24.1635 1.15683 18.7094 1.21602 13.2546 1.27519C12.0766 1.28787 10.898 1.30054 9.71857 1.31355C7.36335 1.33892 5.01644 1.39114 2.6675 1.43219C2.52033 1.43575 2.37244 1.43896 2.22527 1.44234C1.9444 1.45869 1.69981 1.49032 1.4915 1.53809C1.18081 1.6096 1.00342 1.70985 1.0024 1.81557C1.00138 1.92096 1.17681 2.02513 1.48606 2.10243C1.76752 2.17312 2.24689 2.23782 2.65981 2.23081C5.49382 2.1814 8.3236 2.1273 11.1646 2.09684C13.7977 2.06831 16.4301 2.04013 19.0624 2.01194C21.9356 1.98109 24.808 1.95024 27.6804 1.91956C28.8376 1.90703 29.9978 1.88697 31.1564 1.88269C35.6358 1.86612 40.1145 1.8504 44.5946 1.83453C47.3861 1.82436 50.179 1.81437 52.9705 1.80419C54.1241 1.80003 55.2777 1.7921 56.4313 1.79223C60.8698 1.79209 65.309 1.79591 69.7468 1.79782C72.4374 1.79886 75.1274 1.80041 77.8174 1.80145C78.7216 1.80175 79.6259 1.8 80.5302 1.80339C85.3235 1.82298 90.1154 1.84307 94.908 1.86316C97.5843 1.87419 100.26 1.88539 102.936 1.89642C103.89 1.90029 104.842 1.90174 105.795 1.90869C110.737 1.94396 115.679 1.97957 120.621 2.01502C123.705 2.03701 126.786 2.05966 129.87 2.09127C135.118 2.14494 140.366 2.19844 145.614 2.25192C146.649 2.26242 147.684 2.28286 148.719 2.30005C151.616 2.34839 154.512 2.39673 157.408 2.44507C159.581 2.48145 161.754 2.51767 163.927 2.55389C165.468 2.57956 167.008 2.62204 168.548 2.65696C173.082 2.75953 177.615 2.86398 182.148 2.97564C183.298 3.00407 184.448 3.03609 185.6 3.06744C186.832 3.10078 188.069 3.13364 189.298 3.17895C189.489 3.18835 189.679 3.19876 189.87 3.21056C190.354 3.23977 190.821 3.23757 191.256 3.18032C191.66 3.12773 191.961 3.03674 192.086 2.92998C192.348 2.70523 191.778 2.45823 190.835 2.38631C190.01 2.32343 189.152 2.29319 188.301 2.26439C187.718 2.24453 187.136 2.22467 186.553 2.20515C185.432 2.16722 184.302 2.1426 183.179 2.11135C181.072 2.05294 178.958 2.01042 176.848 1.96056C172.672 1.86162 168.491 1.77943 164.312 1.6887Z" fill="black" stroke="black"/>
</svg>
