<svg width="220" height="6" viewBox="0 0 220 6" fill="none" xmlns="http://www.w3.org/2000/svg">
<path fill-rule="evenodd" clip-rule="evenodd" d="M187.247 2.00344C185.676 1.95837 184.098 1.94129 182.525 1.91054C179.113 1.84429 175.7 1.77804 172.287 1.71179C170.387 1.67478 168.485 1.63337 166.585 1.60103C166.035 1.59167 165.484 1.5848 164.933 1.57949C163.695 1.56756 162.456 1.56279 161.219 1.55181C155.588 1.49973 149.959 1.44797 144.328 1.39619C142.988 1.38391 141.647 1.38314 140.308 1.37741C136.989 1.36163 133.671 1.34619 130.352 1.33135C126.609 1.31367 122.864 1.28537 119.121 1.28485C113.063 1.28383 107.005 1.28283 100.947 1.28212C97.4404 1.28107 93.9308 1.26626 90.4249 1.28611C84.3833 1.31986 78.3425 1.35301 72.3009 1.38583C69.0002 1.40359 65.6965 1.41322 62.3981 1.4519C56.1508 1.52452 49.9044 1.59777 43.6563 1.67132C40.318 1.71055 36.9759 1.73104 33.6446 1.80775C27.4243 1.95047 21.2041 2.09351 14.983 2.23654C13.6396 2.26724 12.2953 2.29794 10.9503 2.32925C8.26419 2.39067 5.58743 2.50081 2.90842 2.59067C2.74056 2.5981 2.57189 2.60489 2.40403 2.612C2.08362 2.64352 1.80449 2.70257 1.56661 2.7907C1.21184 2.9226 1.00889 3.10585 1.00704 3.2979C1.00519 3.48933 1.20456 3.6774 1.55673 3.8158C1.87725 3.94236 2.4235 4.05676 2.89444 4.04134C6.12669 3.93311 9.35413 3.81643 12.5942 3.74257C15.5972 3.67361 18.5993 3.60526 21.6015 3.53691C24.8782 3.46217 28.1541 3.38741 31.43 3.31297C32.7498 3.28266 34.073 3.23867 35.3943 3.22334C40.5028 3.16407 45.6104 3.10634 50.7196 3.04832C53.9031 3.01165 57.0882 2.97531 60.2717 2.93865C61.5873 2.92357 62.903 2.90164 64.2185 2.89437C69.2802 2.8652 74.3427 2.84321 79.4035 2.81777C82.472 2.80213 85.5396 2.78742 88.6072 2.77178C89.6384 2.76644 90.6697 2.75735 91.7009 2.75762C97.1671 2.76197 102.632 2.76724 108.097 2.77252C111.149 2.77512 114.2 2.77802 117.252 2.78062C118.34 2.78144 119.425 2.77787 120.512 2.78429C126.148 2.81616 131.783 2.84864 137.42 2.88082C140.936 2.90068 144.449 2.92175 147.966 2.95907C153.95 3.02236 159.936 3.08534 165.919 3.14831C167.1 3.16062 168.28 3.19102 169.46 3.21548C172.763 3.28442 176.066 3.35335 179.369 3.42228C181.846 3.47422 184.324 3.52585 186.802 3.57748C188.559 3.61406 190.316 3.68119 192.071 3.73459C197.241 3.89136 202.409 4.05154 207.578 4.22483C208.89 4.26896 210.202 4.31964 211.514 4.36909C212.92 4.4216 214.33 4.47323 215.731 4.54753C215.949 4.56336 216.166 4.58104 216.384 4.60122C216.935 4.65113 217.467 4.64409 217.964 4.53726C218.425 4.43911 218.769 4.27187 218.912 4.07713C219.213 3.66721 218.564 3.22226 217.489 3.09777C216.548 2.98893 215.571 2.9396 214.6 2.89283C213.936 2.86055 213.271 2.82827 212.607 2.79661C211.329 2.73503 210.041 2.69767 208.76 2.64822C206.357 2.55585 203.947 2.4924 201.541 2.41558C196.78 2.26306 192.012 2.14103 187.247 2.00344Z" fill="black" stroke="black"/>
</svg>
