<?xml version="1.0" standalone="no"?>
<!DOCTYPE svg PUBLIC "-//W3C//DTD SVG 20010904//EN"
 "http://www.w3.org/TR/2001/REC-SVG-20010904/DTD/svg10.dtd">
<svg version="1.0" xmlns="http://www.w3.org/2000/svg"
 width="512.000000pt" height="512.000000pt" viewBox="0 0 512.000000 512.000000"
 preserveAspectRatio="xMidYMid meet">
<metadata>
Created by potrace 1.14, written by Peter Selinger 2001-2017
</metadata>
<g transform="translate(0.000000,512.000000) scale(0.100000,-0.100000)"
fill="#000000" stroke="none">
<path d="M2560 5113 c-1 -4 -1 -122 -1 -261 1 -199 -2 -251 -12 -246 -9 6 -9
5 0 -7 17 -21 17 -1443 0 -1432 -9 5 -9 3 0 -8 18 -22 18 -963 0 -952 -9 5 -9
3 0 -8 18 -22 18 -723 0 -713 -9 6 -9 5 0 -7 9 -11 12 -191 12 -729 0 -393 1
-723 1 -734 0 -17 7 -18 120 -12 118 6 205 16 325 37 250 43 439 105 680 224
178 87 301 164 447 278 237 184 434 404 602 667 50 80 167 308 204 401 45 111
106 314 126 419 41 209 54 348 51 565 -2 110 -6 220 -10 245 -57 377 -114 569
-250 845 -259 525 -647 912 -1170 1170 -217 107 -481 195 -655 220 -24 4 -47
8 -50 10 -3 2 -37 6 -75 10 -39 4 -73 9 -76 11 -13 7 -269 15 -269 7z"/>
<path d="M959 4193 c-13 -16 -12 -17 4 -4 9 7 17 15 17 17 0 8 -8 3 -21 -13z"/>
<path d="M1236 3833 c-6 -14 -5 -15 5 -6 7 7 10 15 7 18 -3 3 -9 -2 -12 -12z"/>
<path d="M2279 3833 c-13 -16 -12 -17 4 -4 9 7 17 15 17 17 0 8 -8 3 -21 -13z"/>
<path d="M319 3473 c-13 -16 -12 -17 4 -4 9 7 17 15 17 17 0 8 -8 3 -21 -13z"/>
<path d="M999 1913 c-13 -16 -12 -17 4 -4 9 7 17 15 17 17 0 8 -8 3 -21 -13z"/>
<path d="M1580 926 c0 -2 8 -10 18 -17 15 -13 16 -12 3 4 -13 16 -21 21 -21
13z"/>
</g>
</svg>
