<svg width="32" height="32" viewBox="0 0 32 32" fill="none" xmlns="http://www.w3.org/2000/svg">
<path fill-rule="evenodd" clip-rule="evenodd" d="M3.52582 9.45687C3.69517 9.54527 3.91644 9.60412 4.15209 9.61516C5.01965 9.66124 5.87821 9.70138 6.77777 9.74343L6.77825 9.74346L6.77849 9.74347L7.10659 9.75882L8.11602 9.80302C7.98714 10.9476 8.37695 12.0228 8.75593 13.068L8.75694 13.0708L8.76439 13.0929C8.78925 13.1629 8.81479 13.2329 8.84045 13.3032L8.84052 13.3034C8.87557 13.3995 8.91082 13.4961 8.94479 13.594C9.11414 14.0766 9.39425 14.3789 9.7368 14.4487C9.75145 14.4487 9.76635 14.4523 9.7774 14.4562C9.81415 14.4636 9.85116 14.4636 9.88791 14.4636C10.1606 14.4636 10.4368 14.3164 10.6949 14.0363C11.1554 13.5351 11.6344 12.9901 11.9916 12.382C12.2717 11.9105 12.5073 11.4094 12.7358 10.9196L12.7432 10.9011C12.8979 10.5732 13.0565 10.2381 13.2258 9.91376C13.3032 9.76651 13.5059 9.58225 13.6385 9.5784C15.2043 9.5121 16.5085 9.48254 17.7389 9.48999H17.7464C18.2326 9.48999 18.5975 9.23584 18.719 8.81206C18.8074 8.50625 18.6859 8.02004 18.4649 7.78801C17.5292 6.81916 16.6375 5.97551 15.7496 5.20922C15.2228 4.75616 14.9206 4.43543 15.164 3.7871C15.2709 3.50339 15.3223 3.15339 15.3223 2.71885V2.40199C15.3333 1.60255 15.3444 0.773496 14.6924 0.0477982L14.6482 0L14.5894 0.0185026C13.0346 0.523215 11.5572 1.45529 10.0762 2.86636C9.81104 3.12052 9.66739 3.16112 9.33561 3.07272C8.16046 2.75946 7.01096 2.46496 5.85791 2.26222H5.84326C5.49685 2.20697 5.03631 2.44262 4.75646 2.68213C4.55755 2.85148 4.77496 3.45947 4.84486 3.6142C5.12857 4.24046 5.43052 4.85205 5.72529 5.44157L5.78054 5.55207C5.81119 5.6148 5.84241 5.67756 5.87352 5.74012C5.92091 5.83542 5.96806 5.93023 6.01259 6.02363C5.90652 6.10514 5.80108 6.18666 5.696 6.26788L5.6946 6.26896L5.69372 6.26965L5.69354 6.26978C5.54767 6.38255 5.40251 6.49477 5.25736 6.6057L5.23525 6.62035L5.08648 6.73479L5.08646 6.73481C4.48496 7.19744 3.91034 7.63939 3.34539 8.11595C3.00643 8.40326 2.86278 8.62066 2.88488 8.8306C2.90698 9.04415 3.09483 9.22841 3.50754 9.4494L3.52582 9.45687ZM7.89501 6.49493C7.98342 6.20377 7.93176 5.88331 7.74031 5.56286C7.59382 5.32136 7.45124 5.07793 7.30835 4.83398L7.30832 4.83394L7.30819 4.83371C7.25711 4.74651 7.206 4.65924 7.15465 4.57197L6.89664 4.13356L6.92234 4.08576C7.10659 4.13356 7.29085 4.17776 7.4823 4.22196L7.49478 4.22493L7.49479 4.22494C7.95506 4.33452 8.43291 4.44829 8.86021 4.63827C9.51217 4.92943 9.94339 4.81147 10.3929 4.22556C11.2771 3.07606 12.489 2.3026 13.5537 1.69841H13.6236H13.6457C13.8115 2.6341 13.7526 3.49624 13.4615 4.32885C13.1189 5.30875 13.1888 5.38993 14.0289 5.9905C14.6051 6.3997 15.1679 6.83958 15.7663 7.30732L15.7664 7.30737L15.7664 7.3074L15.7665 7.30745L15.8303 7.35736L15.9421 7.44473L15.9423 7.44482C16.142 7.60097 16.345 7.75966 16.556 7.92092C15.506 8.16042 14.5814 8.18612 13.5609 7.99827C12.6952 7.83997 12.2568 8.09772 11.9324 8.95988L11.833 9.22894L11.8289 9.23981C11.447 10.2605 11.0529 11.3138 10.2893 12.2315C9.79924 11.1964 9.61886 10.3268 9.71469 9.42788C9.77739 8.83477 9.77354 8.4958 9.58209 8.29331C9.49009 8.19746 9.36108 8.13861 9.17323 8.10905C9.07738 8.09441 8.96688 8.08695 8.82323 8.08695C8.71632 8.08695 8.59118 8.09055 8.44007 8.098C7.78811 8.13116 7.12485 8.16071 6.48007 8.18641L6.24417 8.19746C6.03061 8.20491 5.81321 8.21596 5.5994 8.22701L5.5773 8.15711C5.7135 8.07616 5.84636 7.99496 5.98256 7.91016L6.01211 7.89165L6.0777 7.85122C6.42182 7.63902 6.7761 7.42056 7.14306 7.25434C7.53367 7.07394 7.79502 6.80848 7.89086 6.4916L7.89501 6.49493ZM31.0123 14.7804C30.585 13.6458 29.8482 12.5808 28.6987 11.4278C28.1683 10.8935 28.2418 10.4551 28.415 9.84376C28.7429 8.69071 28.9418 7.48233 29.1336 6.2406C29.1778 5.95329 29.0894 5.69914 28.8866 5.54418C28.6692 5.37842 28.3634 5.35992 28.0651 5.49252L27.9104 5.56242C27.4755 5.75387 27.0261 5.95303 26.6247 6.22181C25.8473 6.74116 25.0774 7.2865 24.3332 7.81688L24.2152 7.90169C23.981 8.06625 23.7506 8.23082 23.5202 8.39538L23.5152 8.39895C23.4247 8.31019 23.335 8.22143 23.2454 8.1327L23.2453 8.1326L23.2452 8.1325L23.2451 8.13241C23.1488 8.03704 23.0525 7.9417 22.9552 7.84644L22.9036 7.79479C22.3326 7.22377 21.743 6.63785 21.1242 6.09281C20.8184 5.82375 20.2806 5.59555 19.9159 5.68395C19.4849 5.787 19.2639 6.21822 19.3007 6.8997C19.3125 7.14695 19.3052 7.39891 19.2981 7.64607L19.2981 7.64621L19.298 7.64633L19.298 7.64646C19.2963 7.70486 19.2947 7.76298 19.2932 7.82072C19.2822 8.08233 19.2711 8.35113 19.2786 8.62016C19.2786 8.73427 19.2822 8.84862 19.286 8.96272V9.03262L19.2862 9.039C19.3008 9.72957 19.3159 10.4458 19.4261 11.1398C19.4849 11.5045 19.4076 11.6556 19.0982 11.7918C18.9509 11.8545 18.7888 11.917 18.6451 11.9686C18.354 12.0755 18.0556 12.186 17.7904 12.3518L17.5915 12.4733C16.8841 12.9153 16.1547 13.3722 15.5431 13.9397C15.2669 14.1977 15.16 14.4811 15.2409 14.7355C15.3293 15.0118 15.6277 15.2071 16.0589 15.2734H16.0884C16.5122 15.3361 16.9799 15.3433 17.5178 15.2991C18.2805 15.2364 19.0283 15.1591 19.8204 15.0745L19.9309 15.0635L19.9549 15.061L19.9551 15.061L19.9553 15.0609L19.9554 15.0609C20.198 15.0361 20.4439 15.0108 20.6897 14.9825C20.6897 15.1226 20.6933 15.2588 20.6972 15.3878C20.7008 15.7231 20.7082 16.0693 20.7193 16.4083L20.7303 16.7844L20.7414 17.1635L20.7428 17.2138C20.7645 17.957 20.7868 18.7242 20.8408 19.4771C20.8629 19.7975 21.0654 20.0702 21.364 20.1917C21.4229 20.2174 21.4856 20.2323 21.5519 20.2434C21.5925 20.2508 21.6292 20.2508 21.6698 20.2508C21.8577 20.2508 22.0384 20.1845 22.182 20.0594C23.2578 19.0978 24.584 17.7643 25.2951 15.9626C25.4608 15.5389 25.6451 15.4911 26.0799 15.572C27.4835 15.8336 28.7361 16.0472 29.9077 16.235H29.9187C30.335 16.3013 30.696 16.1834 30.9135 15.9146C31.1455 15.6309 31.1825 15.2181 31.0204 14.7836L31.0123 14.7804ZM22.1706 13.4983C22.0857 13.4174 21.9717 13.3657 21.8316 13.3436C21.7838 13.3361 21.7322 13.3325 21.6769 13.3325C21.618 13.3325 21.5517 13.3361 21.4816 13.3472C20.6896 13.4466 19.8976 13.5425 19.0942 13.6384L18.1768 13.7489C18.339 13.6862 18.5047 13.6199 18.6669 13.5535L18.7332 13.5279L18.7864 13.5065C19.2303 13.3289 19.6872 13.146 20.1443 12.9936C20.9658 12.7209 21.2496 12.2126 21.0838 11.2988C20.918 10.3703 20.8075 9.34983 20.7412 8.09731C21.5001 8.48407 21.9128 9.1103 22.3327 9.82883C22.3479 9.85284 22.3618 9.87811 22.376 9.90389C22.3859 9.92171 22.3958 9.93977 22.4064 9.95783L22.4069 9.95877C22.5801 10.2719 22.7976 10.6652 23.3164 10.5951C23.5449 10.5656 23.8579 10.4404 24.0015 10.2377C24.8091 9.09229 25.9569 8.33476 27.0694 7.60048L27.0694 7.60047L27.0814 7.59258L27.1071 7.57408C27.1605 7.53913 27.213 7.50412 27.2655 7.4691C27.318 7.43409 27.3705 7.39907 27.424 7.36413L27.4938 7.38982C27.4607 7.54453 27.4311 7.69563 27.4019 7.85033L27.3874 7.92323C27.3112 8.30901 27.2331 8.70364 27.1292 9.08818C26.9745 9.65174 26.8123 10.083 26.6245 10.4476C26.2413 11.1733 26.5913 11.6228 27.0187 12.0537C27.5455 12.5916 28.0538 13.1662 28.5475 13.7264L28.5482 13.7273C28.7433 13.948 28.9383 14.1687 29.1331 14.3858L29.0668 14.5038L28.9582 14.4983L28.8494 14.4927H28.8309L28.7966 14.4908C28.606 14.4803 28.3918 14.4685 28.1972 14.4339L28.0831 14.4118C27.2911 14.2645 26.4695 14.1096 25.6736 13.9107C24.9662 13.7339 24.4614 14.0101 24.2112 14.7101C23.8648 15.6828 23.375 16.8138 22.3286 17.8563C22.3211 17.687 22.3139 17.5248 22.3065 17.3663V17.2704C22.2733 16.7179 22.2512 16.2389 22.2512 15.7488C22.2512 15.3104 22.2918 14.8646 22.3322 14.4372L22.3579 14.1681C22.3835 13.8623 22.3283 13.6449 22.181 13.5012L22.1706 13.4983ZM6.58325 12.3044C6.78215 12.2859 6.9885 12.3743 7.17636 12.5475L7.17608 12.5514C7.60344 12.942 7.29404 13.3141 7.10619 13.5351C6.05642 14.7876 5.16856 16.2871 4.3174 18.2543C3.13863 20.977 2.30218 23.9647 1.76072 27.3836C1.72011 27.6416 1.6574 27.9767 1.53226 28.2935C1.42535 28.5698 1.27425 28.7466 1.0864 28.824C1.01624 28.8535 0.93889 28.8682 0.857939 28.8682C0.825653 28.8682 0.7963 28.8652 0.764933 28.8621L0.764886 28.8621L0.751035 28.8607C0.673682 28.8497 0.592738 28.8237 0.507931 28.7869C0.0695218 28.5991 -0.0887779 28.2452 0.0474212 27.7701C0.0576455 27.729 0.0643641 27.6843 0.0712475 27.6385L0.0712512 27.6385C0.0742283 27.6187 0.0772364 27.5986 0.0805723 27.5786V27.564L0.0178694 27.5455L0.0399698 27.4535C0.209576 26.783 0.375326 26.0869 0.518979 25.4753L0.52359 25.4558C0.876018 23.9662 1.23961 22.4295 1.72012 20.9586C2.29859 19.1828 3.07593 17.3148 4.09642 15.2482C4.47213 14.4893 5.04316 13.8224 5.59952 13.1777L5.61417 13.1592C5.66115 13.1038 5.70872 13.0482 5.75647 12.9923L5.75662 12.9921C5.87731 12.851 5.99914 12.7085 6.11529 12.5661C6.24429 12.4075 6.40645 12.3155 6.58325 12.3044ZM19.8167 19.4999V19.3894L19.7137 19.3969C19.6309 19.4042 19.5412 19.4007 19.4512 19.3971L19.4446 19.3969L19.4007 19.3968H19.4006C19.1967 19.3963 18.9861 19.3959 18.8109 19.4853C18.4904 19.6546 18.2363 19.9532 18.026 20.222C16.1655 22.6276 13.9331 24.9081 11.0006 27.3988C10.1937 28.0839 9.31332 28.7176 8.46605 29.3256C7.97239 29.6792 7.4124 30.0808 6.88565 30.4861C6.63509 30.6776 6.37348 31.0276 6.36244 31.3187C6.35502 31.502 6.55181 31.6561 6.73903 31.8026L6.74199 31.805C6.81189 31.8566 6.88205 31.9155 6.93345 31.9633L6.9702 32L7.02185 31.989C7.1249 31.9633 7.21716 31.9483 7.2945 31.9373C7.4528 31.9116 7.57821 31.8895 7.68511 31.8193C7.92462 31.6646 8.18623 31.5099 8.39976 31.3845C9.02242 31.0124 9.66333 30.6293 10.2012 30.1392C12.4706 28.0651 14.7768 25.8695 17.0569 23.6111C17.9667 22.7122 18.7701 21.693 19.5509 20.7027L19.5509 20.7026L19.599 20.6417L19.7316 20.4723C19.8606 20.3066 19.8421 20.0486 19.8236 19.7983C19.8161 19.6988 19.8089 19.5883 19.8125 19.4961L19.8167 19.4999ZM12.935 16.3022C13.1781 15.9522 13.5834 15.6317 14.0439 15.4218L14.0403 15.4182C14.2428 15.3262 14.4492 15.3519 14.6039 15.4845C14.8028 15.6577 14.8691 15.9635 14.7771 16.2839L14.7696 16.306C14.6699 16.4533 14.5705 16.6008 14.4674 16.7555C14.4068 16.8468 14.3454 16.9387 14.2836 17.0312C14.1015 17.3038 13.9158 17.5818 13.7342 17.868L13.4541 18.3064C12.0212 20.5574 10.5438 22.8895 9.08494 25.2252C8.86394 25.5824 8.67249 25.9694 8.48823 26.3451C8.39829 26.5323 8.3081 26.7091 8.21815 26.8855L8.21198 26.8976C8.07552 27.1556 7.93187 27.2954 7.75507 27.3471C7.71086 27.3581 7.66667 27.3656 7.61887 27.3656C7.59317 27.3656 7.56361 27.3617 7.53792 27.3581C7.44591 27.3471 7.34646 27.3067 7.23956 27.244C6.98515 27.0929 6.50639 26.8056 6.87105 26.1793C7.25037 25.5235 7.6299 24.8566 7.99456 24.2083L8.02771 24.1456L8.10448 24.0096C8.6736 23.002 9.2599 21.9639 9.86975 20.9662C10.9308 19.2274 12.0657 17.5622 12.935 16.3022Z" fill="black"/>
</svg>
