<svg width="14" height="12" viewBox="0 0 14 12" fill="none" xmlns="http://www.w3.org/2000/svg">
<mask id="path-1-outside-1_26_267" maskUnits="userSpaceOnUse" x="0" y="0" width="14" height="12" fill="black">
<rect fill="white" width="14" height="12"/>
<path d="M13.6199 7.98708C12.5184 7.08961 11.4171 6.19227 10.3158 5.29468C10.8703 4.53368 11.425 3.77242 11.9797 3.0113C12.1995 2.7097 11.8903 2.39163 11.6023 2.3536C8.27698 1.91446 4.95167 1.47527 1.62606 1.036C1.55337 0.999292 1.47166 0.991974 1.39166 1.00807C1.13445 0.990268 1.00593 1.18186 1.00727 1.39246C0.991417 1.47759 1.00044 1.57101 1.04471 1.66674C2.33793 4.46036 3.53309 7.29862 4.82646 10.0922C4.95061 10.3604 5.32356 10.3542 5.51282 10.1807C6.27966 9.4782 6.96651 8.7122 7.58667 7.88364C8.68536 9.0477 9.91077 10.0666 11.2563 10.9412C11.4039 11.0372 11.6698 11.0166 11.7861 10.8728C12.3975 10.1168 13.0087 9.36076 13.6201 8.60501C13.7566 8.43646 13.8179 8.14853 13.62 7.98706L13.6199 7.98708ZM11.3904 9.9797C10.0856 9.09516 8.91066 8.0661 7.85591 6.88949C7.65432 6.6646 7.32113 6.76095 7.1693 6.9779C6.62538 7.75598 6.01499 8.46663 5.34387 9.12907C4.25639 6.75446 3.22465 4.3545 2.14095 1.9783C5.0341 2.36025 7.92737 2.74249 10.8206 3.12457C10.3284 3.79996 9.83629 4.47536 9.34407 5.15084C9.24053 5.2928 9.27431 5.56804 9.41249 5.68063C10.5084 6.57369 11.6044 7.46679 12.7003 8.35973C12.2637 8.89975 11.8271 9.43965 11.3904 9.97967L11.3904 9.9797Z"/>
</mask>
<path d="M13.6199 7.98708C12.5184 7.08961 11.4171 6.19227 10.3158 5.29468C10.8703 4.53368 11.425 3.77242 11.9797 3.0113C12.1995 2.7097 11.8903 2.39163 11.6023 2.3536C8.27698 1.91446 4.95167 1.47527 1.62606 1.036C1.55337 0.999292 1.47166 0.991974 1.39166 1.00807C1.13445 0.990268 1.00593 1.18186 1.00727 1.39246C0.991417 1.47759 1.00044 1.57101 1.04471 1.66674C2.33793 4.46036 3.53309 7.29862 4.82646 10.0922C4.95061 10.3604 5.32356 10.3542 5.51282 10.1807C6.27966 9.4782 6.96651 8.7122 7.58667 7.88364C8.68536 9.0477 9.91077 10.0666 11.2563 10.9412C11.4039 11.0372 11.6698 11.0166 11.7861 10.8728C12.3975 10.1168 13.0087 9.36076 13.6201 8.60501C13.7566 8.43646 13.8179 8.14853 13.62 7.98706L13.6199 7.98708ZM11.3904 9.9797C10.0856 9.09516 8.91066 8.0661 7.85591 6.88949C7.65432 6.6646 7.32113 6.76095 7.1693 6.9779C6.62538 7.75598 6.01499 8.46663 5.34387 9.12907C4.25639 6.75446 3.22465 4.3545 2.14095 1.9783C5.0341 2.36025 7.92737 2.74249 10.8206 3.12457C10.3284 3.79996 9.83629 4.47536 9.34407 5.15084C9.24053 5.2928 9.27431 5.56804 9.41249 5.68063C10.5084 6.57369 11.6044 7.46679 12.7003 8.35973C12.2637 8.89975 11.8271 9.43965 11.3904 9.97967L11.3904 9.9797Z" fill="black"/>
<path d="M13.6199 7.98708L13.4935 8.14213L13.5676 8.20247L13.6611 8.18279L13.6199 7.98708ZM10.3158 5.29468L10.1541 5.17689L10.0426 5.33001L10.1894 5.44971L10.3158 5.29468ZM11.9797 3.0113L12.1414 3.1291L12.1414 3.12908L11.9797 3.0113ZM11.6023 2.3536L11.5761 2.55188L11.5761 2.55188L11.6023 2.3536ZM1.62606 1.036L1.53589 1.21452L1.5662 1.22983L1.59987 1.23428L1.62606 1.036ZM1.39166 1.00807L1.37785 1.2076L1.40471 1.20946L1.43112 1.20414L1.39166 1.00807ZM1.00727 1.39246L1.20389 1.42908L1.20739 1.41029L1.20727 1.39119L1.00727 1.39246ZM1.04471 1.66674L0.86318 1.75068L0.863215 1.75076L1.04471 1.66674ZM4.82646 10.0922L5.00796 10.0082L5.00795 10.0082L4.82646 10.0922ZM5.51282 10.1807L5.37772 10.0332L5.37765 10.0332L5.51282 10.1807ZM7.58667 7.88364L7.73212 7.74636L7.56898 7.57351L7.42656 7.76379L7.58667 7.88364ZM11.2563 10.9412L11.3654 10.7735L11.3653 10.7735L11.2563 10.9412ZM11.7861 10.8728L11.9416 10.9986L11.9416 10.9985L11.7861 10.8728ZM13.6201 8.60501L13.4646 8.47915L13.4646 8.47922L13.6201 8.60501ZM13.62 7.98706L13.7464 7.83208L13.6723 7.77165L13.5788 7.79135L13.62 7.98706ZM11.3904 9.9797L11.2782 10.1452L11.4849 10.2854L11.5765 10.053L11.3904 9.9797ZM7.85591 6.88949L7.70698 7.02299L7.70699 7.02299L7.85591 6.88949ZM7.1693 6.9779L7.00544 6.86323L7.00539 6.86332L7.1693 6.9779ZM5.34387 9.12907L5.16203 9.21234L5.28101 9.47214L5.48437 9.2714L5.34387 9.12907ZM2.14095 1.9783L2.16712 1.78002L1.80915 1.73276L1.95898 2.06129L2.14095 1.9783ZM10.8206 3.12457L10.9822 3.24236L11.1805 2.97035L10.8468 2.92629L10.8206 3.12457ZM9.34407 5.15084L9.50566 5.2687L9.50571 5.26863L9.34407 5.15084ZM9.41249 5.68063L9.53883 5.52559L9.53882 5.52558L9.41249 5.68063ZM12.7003 8.35973L12.8559 8.48547L12.9811 8.33053L12.8267 8.20468L12.7003 8.35973ZM11.3904 9.97967L11.2349 9.85391L11.2156 9.87779L11.2043 9.90637L11.3904 9.97967ZM13.7462 7.83203C12.6447 6.93456 11.5434 6.03723 10.4421 5.13965L10.1894 5.44971C11.2907 6.34731 12.392 7.24466 13.4935 8.14213L13.7462 7.83203ZM10.4774 5.41246C11.032 4.65144 11.5866 3.89022 12.1414 3.1291L11.8181 2.89349C11.2633 3.65463 10.7087 4.41591 10.1541 5.17689L10.4774 5.41246ZM12.1414 3.12908C12.2207 3.02027 12.2581 2.90041 12.2539 2.77956C12.2497 2.66097 12.2058 2.55496 12.145 2.46852C12.0268 2.30053 11.8275 2.1816 11.6285 2.15532L11.5761 2.55188C11.6651 2.56363 11.7644 2.62275 11.8179 2.69871C11.8429 2.73423 11.8532 2.76666 11.8541 2.79373C11.855 2.81853 11.8487 2.85153 11.8181 2.89351L12.1414 3.12908ZM11.6285 2.15533C8.30317 1.71618 4.97786 1.277 1.65225 0.837723L1.59987 1.23428C4.92549 1.67355 8.25079 2.11273 11.5761 2.55188L11.6285 2.15533ZM1.71622 0.857478C1.5978 0.797669 1.46943 0.788413 1.3522 0.812004L1.43112 1.20414C1.47389 1.19554 1.50895 1.20092 1.53589 1.21452L1.71622 0.857478ZM1.40547 0.808551C1.21996 0.795709 1.06156 0.859871 0.953148 0.981607C0.849489 1.09801 0.806359 1.24993 0.807276 1.39374L1.20727 1.39119C1.20684 1.32439 1.2273 1.27521 1.25187 1.24762C1.27169 1.22536 1.30615 1.20263 1.37785 1.2076L1.40547 0.808551ZM0.810652 1.35584C0.787142 1.48208 0.801642 1.6176 0.86318 1.75068L1.22624 1.5828C1.19924 1.52441 1.19569 1.4731 1.20389 1.42908L0.810652 1.35584ZM0.863215 1.75076C1.50897 3.14572 2.13036 4.55208 2.75259 5.96032C3.37459 7.36803 3.99742 8.7776 4.64497 10.1763L5.00795 10.0082C4.36213 8.61326 3.7407 7.2069 3.11847 5.79866C2.49647 4.39096 1.87368 2.98138 1.22621 1.58272L0.863215 1.75076ZM4.64497 10.1763C4.7438 10.3898 4.94168 10.4869 5.12975 10.5015C5.31271 10.5157 5.50916 10.4554 5.64798 10.3281L5.37765 10.0332C5.32721 10.0795 5.24256 10.109 5.1607 10.1027C5.08394 10.0967 5.03327 10.0629 5.00796 10.0082L4.64497 10.1763ZM5.64791 10.3281C6.42439 9.61685 7.11954 8.84151 7.74679 8.00348L7.42656 7.76379C6.81348 8.58289 6.13492 9.33955 5.37772 10.0332L5.64791 10.3281ZM7.44123 8.02091C8.55098 9.1967 9.78866 10.2258 11.1474 11.1089L11.3653 10.7735C10.0329 9.90747 8.81974 8.89869 7.73212 7.74636L7.44123 8.02091ZM11.1473 11.1089C11.2686 11.1878 11.4212 11.2106 11.5552 11.1957C11.689 11.1807 11.8405 11.1235 11.9416 10.9986L11.6307 10.747C11.6154 10.7658 11.5758 10.7908 11.5107 10.7981C11.4458 10.8054 11.3916 10.7906 11.3654 10.7735L11.1473 11.1089ZM11.9416 10.9985C12.553 10.2425 13.1642 9.48653 13.7756 8.73079L13.4646 8.47922C12.8532 9.23499 12.242 9.99103 11.6306 10.747L11.9416 10.9985ZM13.7755 8.73086C13.8669 8.61803 13.9343 8.46543 13.945 8.30687C13.956 8.1431 13.9057 7.96202 13.7464 7.83208L13.4935 8.14203C13.5322 8.17357 13.5501 8.21719 13.5459 8.27989C13.5413 8.3478 13.5098 8.42344 13.4646 8.47915L13.7755 8.73086ZM13.5788 7.79135L13.5787 7.79137L13.6611 8.18279L13.6612 8.18277L13.5788 7.79135ZM11.5026 9.81416C10.2115 8.93888 9.04885 7.92062 8.00483 6.75599L7.70699 7.02299C8.77248 8.21157 9.95969 9.25144 11.2782 10.1452L11.5026 9.81416ZM8.00483 6.75599C7.85176 6.58523 7.6449 6.5374 7.45829 6.57121C7.27776 6.60392 7.11091 6.71253 7.00544 6.86323L7.33317 7.09257C7.37953 7.02632 7.45518 6.97828 7.5296 6.9648C7.59793 6.95242 7.65847 6.96886 7.70698 7.02299L8.00483 6.75599ZM7.00539 6.86332C6.46903 7.63056 5.86667 8.33201 5.20337 8.98673L5.48437 9.2714C6.16331 8.60125 6.78173 7.88141 7.33322 7.09249L7.00539 6.86332ZM5.52571 9.04579C4.98255 7.85975 4.45321 6.66717 3.92383 5.47321C3.3946 4.27961 2.86529 3.08455 2.32292 1.89531L1.95898 2.06129C2.50031 3.24825 3.02872 4.44127 3.55816 5.63535C4.08744 6.82907 4.61771 8.02378 5.16203 9.21234L5.52571 9.04579ZM2.11477 2.17658C5.00792 2.55853 7.90117 2.94076 10.7944 3.32284L10.8468 2.92629C7.95357 2.54421 5.06028 2.16197 2.16712 1.78002L2.11477 2.17658ZM10.659 3.00677C10.1667 3.68217 9.67464 4.35759 9.18243 5.03306L9.50571 5.26863C9.99795 4.59312 10.49 3.91775 10.9822 3.24236L10.659 3.00677ZM9.18248 5.03299C9.09126 5.15806 9.07236 5.31905 9.08923 5.45194C9.10612 5.58498 9.16483 5.73682 9.28616 5.83568L9.53882 5.52558C9.52197 5.51185 9.4947 5.46978 9.48604 5.40156C9.47736 5.3332 9.49334 5.28558 9.50566 5.2687L9.18248 5.03299ZM9.28614 5.83567C10.3821 6.72873 11.4781 7.62183 12.574 8.51478L12.8267 8.20468C11.7307 7.31174 10.6347 6.41865 9.53883 5.52559L9.28614 5.83567ZM12.5448 8.23399C12.1082 8.774 11.6716 9.31388 11.2349 9.85391L11.5459 10.1054C11.9826 9.56541 12.4193 9.0255 12.8559 8.48547L12.5448 8.23399ZM11.2043 9.90637L11.2043 9.9064L11.5765 10.053L11.5765 10.053L11.2043 9.90637Z" fill="black" mask="url(#path-1-outside-1_26_267)"/>
</svg>
