<svg width="32" height="32" viewBox="0 0 32 32" fill="none" xmlns="http://www.w3.org/2000/svg">
<path fill-rule="evenodd" clip-rule="evenodd" d="M30.4879 8.68877C30.0629 7.6223 29.4587 6.60063 28.6458 5.56379C27.5794 4.21018 26.1959 3.27795 24.8722 2.43881C24.0633 1.9268 23.1655 1.5217 22.2932 1.12811L22.2804 1.12236L22.0903 1.03652C21.4527 0.749357 20.7777 0.506936 20.088 0.313171C19.3271 0.104304 18.5143 0 17.5972 0C17.0117 0 16.3814 0.0410974 15.6991 0.126671C14.3492 0.29444 12.9435 0.477297 11.5189 0.66744L11.4742 0.674983C11.161 0.716081 10.8367 0.760822 10.5531 0.876306C8.36432 1.77132 5.60118 3.13225 3.63196 5.70888C3.50611 5.87327 3.37682 6.03424 3.24753 6.19521L3.24752 6.19522L3.22177 6.22728L3.21867 6.23115C2.70512 6.87138 2.1735 7.53416 1.89053 8.33779C1.72277 8.81874 1.53627 9.29993 1.35367 9.76604C1.01812 10.6348 0.675068 11.5298 0.425096 12.4361C0.141577 13.469 -0.00382556 14.5914 7.65104e-05 15.6841C0.00761962 16.9334 0.220131 18.2012 0.410273 19.3199C0.5744 20.2894 0.798096 21.4005 1.37973 22.3627C1.48207 22.5333 1.58634 22.702 1.69109 22.8714C1.73517 22.9428 1.77934 23.0142 1.82348 23.086L1.91439 23.234L1.9144 23.234C2.3077 23.8739 2.71253 24.5326 3.06888 25.2041C3.21064 25.4689 3.37477 25.7262 3.53864 25.9761C3.90774 26.5466 4.28829 27.1357 4.40375 27.8593C4.42248 27.9748 4.49323 28.1093 4.60508 28.236C5.9959 29.8169 7.62185 31.3123 10.0754 31.5547C10.5388 31.5993 11.0024 31.6661 11.4572 31.7316L11.4572 31.7316L11.5745 31.7485C13.0212 31.961 14.5202 32.1811 16.0156 31.7633C16.5277 31.6227 17.0538 31.496 17.5633 31.3732L17.6152 31.3607L17.7223 31.3351L17.7223 31.3351C18.5618 31.1343 19.4287 30.927 20.2478 30.6373C21.3178 30.2607 22.3918 29.7126 23.3504 29.06C24.279 28.4261 25.1402 27.6504 25.9718 26.9008L26.3783 26.5353C27.7431 25.3123 28.7349 23.7946 29.328 22.0232C29.5146 21.4668 29.6582 20.8815 29.7975 20.3134L29.7975 20.3134L29.8053 20.2818C29.9582 19.6515 30.1184 19.0028 30.3349 18.3837C30.825 16.9911 30.9232 15.5652 31.027 14.0582L31.0283 14.0397L31.039 13.8889C31.0691 13.4658 31.1002 13.0293 31.1402 12.5929L31.0431 11.8544C30.9537 11.1571 30.8566 10.4337 30.7484 9.70284C30.685 9.27392 30.6067 8.96072 30.4985 8.6923L30.4879 8.68877ZM28.2715 19.8081L28.2714 19.8081L28.2655 19.8306C28.0717 20.5803 27.8665 21.3596 27.5494 22.0754C26.5613 24.3129 24.7863 25.9014 23.3469 27.0349C21.3781 28.5862 19.0699 29.5967 16.2918 30.1187C15.7175 30.2269 15.1395 30.2678 14.5876 30.2678C13.7373 30.2678 12.9356 30.1707 12.2682 30.0701C11.6119 29.9731 11.0228 29.8875 10.4298 29.85C9.25873 29.7754 8.34914 29.1379 7.47284 28.5224L7.33108 28.4217C6.57783 27.896 6.13768 27.2658 5.98113 26.4901C5.94394 26.3075 5.82454 26.1247 5.70516 25.9494L5.64924 25.8635C5.40317 25.4905 5.15711 25.1178 4.90711 24.7487C4.5081 24.1559 4.09427 23.5405 3.71005 22.9253C1.83806 19.9496 1.264 16.6158 1.99854 13.0217C2.30807 11.5114 2.68832 9.91545 3.61304 8.49833C5.17553 6.10062 6.97288 4.37791 9.10217 3.22927C11.1456 2.12923 13.4278 1.55131 15.8848 1.51775C17.697 1.47301 19.2073 1.56249 20.6878 2.12563C23.0967 3.05034 25.2595 4.41899 27.1127 6.19403C27.4928 6.55956 27.7689 7.03224 28.0361 7.48969L28.0525 7.51774C28.1719 7.72661 28.2986 7.93912 28.4291 8.1368C29.3601 9.55375 29.3946 11.1626 29.428 12.7212L29.4285 12.7457C29.4285 12.8687 29.4318 12.9917 29.4351 13.1146C29.4367 13.1781 29.4384 13.2415 29.4397 13.3049C29.4844 14.8971 29.2123 16.6125 28.5782 18.7006L28.5751 18.7083C28.4655 19.0699 28.3667 19.4459 28.2715 19.8081ZM23.656 6.20103C23.5171 6.09147 23.3605 5.99613 23.2104 5.90475L23.201 5.89904C23.1079 5.84312 23.0145 5.78355 22.9214 5.72373C22.7461 5.60824 22.5784 5.48495 22.4069 5.35827L22.4043 5.35637L22.4043 5.35636C22.0545 5.09969 21.6899 4.83218 21.2994 4.66482C20.3372 4.25463 19.3603 3.92636 18.3984 3.69537C17.936 3.5844 17.4441 3.55409 16.9667 3.52466L16.9553 3.52396C16.6757 3.50913 16.3849 3.4904 16.1014 3.45685C14.7961 3.3039 13.7336 3.3861 12.7602 3.72528C11.8504 4.04235 10.6945 4.53086 9.85166 5.53381C9.24769 6.2499 9.26615 7.08119 9.8964 7.75253C10.2834 8.16478 10.6603 8.59745 11.0267 9.01801L11.0711 9.06898L11.4254 9.47554C11.7908 9.89327 12.2941 9.95648 12.7043 9.63576C13.3494 9.13245 14.1063 8.79302 15.1655 8.53572C16.396 8.23737 17.2573 8.53572 17.9585 9.50904C18.4059 10.1281 18.5737 10.6203 18.4954 11.064C18.4171 11.4966 18.1039 11.8808 17.5109 12.2758C15.706 13.4804 13.5918 13.9801 11.578 14.3416L11.4251 14.3676L11.4235 14.3679C10.4738 14.5355 10.1534 14.592 10.2132 15.8032C10.2392 16.3924 10.2356 16.9779 10.228 17.597C10.228 17.7365 10.2262 17.8778 10.2244 18.0213C10.2225 18.1694 10.2205 18.3199 10.2205 18.4733C10.2541 18.891 10.2876 19.316 10.3175 19.745L10.3351 19.9746C10.4114 20.9695 10.4899 21.9938 10.5971 23.0114C10.6343 23.3545 10.7389 23.5858 10.9254 23.7088C11.1566 23.8654 11.5146 23.869 12.0218 23.72C13.0659 23.418 14.0912 23.1345 15.128 22.9519C15.5194 22.8848 15.7582 22.7693 15.8776 22.5901C15.9858 22.4299 16.0007 22.1986 15.926 21.8891C15.8576 21.6028 15.7865 21.3192 15.715 21.0338L15.6724 20.8638C15.6138 20.64 15.5586 20.4159 15.5036 20.1921L15.501 20.1815C15.4339 19.9019 15.4487 19.6894 15.5533 19.5253C15.6651 19.35 15.8776 19.2381 16.2171 19.1746C16.37 19.1447 16.5266 19.1151 16.6832 19.0888L16.6963 19.0864C17.4156 18.9566 18.1601 18.8222 18.8088 18.5257C19.8016 18.0737 20.7613 17.5039 21.6914 16.9517L21.7098 16.9408C21.8119 16.8808 21.9139 16.8202 22.0162 16.7595L22.0163 16.7594C22.1682 16.6692 22.3205 16.5787 22.4742 16.4895C23.813 15.7102 24.6407 14.5579 24.9354 13.0626C25.1107 12.1714 25.286 11.2688 25.2972 10.3813C25.3196 8.39379 24.8087 7.10364 23.6489 6.19744L23.656 6.20103ZM23.7119 10.6757C23.5441 11.9398 23.3017 12.9132 22.9511 13.7296C22.6639 14.397 21.9928 14.949 21.4781 15.2921C19.3116 16.7464 17.0107 17.5855 14.6395 17.7829C14.2852 17.8128 14.0092 17.947 13.8451 18.1671C13.6661 18.4059 13.6177 18.7375 13.6997 19.1292C13.8152 19.696 13.9234 20.2704 14.024 20.8296L14.0388 20.9154C14.0724 21.1092 14.0948 21.3292 13.9717 21.4785C13.8823 21.5904 13.7257 21.65 13.4981 21.6575C13.2376 21.6649 12.9736 21.73 12.6917 21.7994L12.6777 21.8029L12.6387 21.8124C12.5119 21.8434 12.3762 21.8764 12.2376 21.9036L12.1481 21.9223L12.1258 21.8328C12.1148 21.7858 12.1017 21.741 12.0896 21.6997L12.0896 21.6997L12.0774 21.6575C12.0438 21.542 12.0139 21.4338 12.0103 21.3219C11.9507 19.7818 11.8948 18.1934 11.8461 16.6048C11.8313 16.1574 11.9991 15.9486 12.4652 15.8328C13.9008 15.4785 15.1948 15.0907 16.429 14.6469C17.2418 14.3561 18.0139 13.9085 18.6777 13.5134C19.3787 13.0957 19.9082 12.3239 20.0909 11.4552C20.281 10.5528 20.0872 9.63545 19.5428 8.86343L19.5411 8.86101C18.9489 8.0226 18.3336 7.15167 17.3165 6.89827C16.705 6.74533 15.9666 6.73415 15.1277 6.86108C14.4919 6.95725 13.8598 7.1705 13.2458 7.37766L13.2458 7.37767L13.2297 7.38312C13.0655 7.43904 12.9014 7.49497 12.7412 7.54725C12.4616 7.64036 12.126 7.59953 11.8649 7.44658C11.6487 7.31991 11.5031 7.13341 11.4583 6.917C11.4248 6.76041 11.5442 6.58146 11.6521 6.4397C12.1778 5.74991 12.961 5.33606 14.1205 5.13836C15.8172 4.84756 17.5883 5.01169 19.3857 5.62321C20.7877 6.10051 21.9475 7.02522 22.8945 7.86796C23.6179 8.51303 23.8752 9.40055 23.7074 10.6683L23.7119 10.6757ZM13.0972 24.28L13.1184 24.2751L13.1185 24.2677C14.0806 24.402 14.953 25.1329 15.3372 26.1359C15.6428 26.9375 15.5422 27.7914 15.0537 28.4776C14.5612 29.1675 13.7744 29.5628 12.9392 29.5405C11.9063 29.5108 11.0264 29.0671 10.5303 28.3286C10.0718 27.65 9.99711 26.8036 10.3142 25.9421C10.5976 25.1737 11.3845 24.7935 12.0332 24.5474C12.272 24.4579 12.5329 24.402 12.7829 24.3497C12.8877 24.3288 12.9924 24.3044 13.0972 24.28ZM12.8687 27.8662C13.0812 27.8662 13.2825 27.7803 13.4355 27.6274L13.4318 27.6276C13.6108 27.4448 13.7078 27.1914 13.7003 26.9079C13.6854 26.3299 13.2864 25.849 12.8203 25.849H12.8055C12.6078 25.8526 12.3953 25.9684 12.2163 26.1622C12.0111 26.3895 11.892 26.6842 11.9068 26.9303C11.9292 27.2846 12.5144 27.8625 12.8539 27.8662H12.8687Z" fill="black"/>
</svg>
