<svg width="23" height="37" viewBox="0 0 23 37" fill="none" xmlns="http://www.w3.org/2000/svg">
<path d="M21.5974 6.16788C20.8783 4.64494 19.9896 3.10591 18.3497 2.16479C15.0251 0.254133 11.8059 -0.375948 8.50573 0.238048C4.74104 0.940781 2.15969 3.15467 0.822854 6.82241C0.075629 8.87034 -0.16277 11.1124 0.108002 13.4795C0.625051 18.0078 2.69721 20.7584 6.44582 21.8938L6.49823 21.9099C6.52246 21.918 6.54275 21.9259 6.56698 21.9301C6.88623 22.0068 7.10008 22.1401 7.22125 22.3421C7.34635 22.552 7.35453 22.8267 7.25365 23.1784C7.03162 23.946 6.79718 24.7417 6.61938 25.5334C6.48217 26.1392 6.51429 26.5472 6.71632 26.8219C6.91835 27.1006 7.30606 27.2502 7.93609 27.3066C8.31168 27.339 8.70365 27.3226 9.07925 27.3066C9.23676 27.2984 9.39849 27.2944 9.556 27.2905H9.68111C10.0567 27.2905 10.7879 27.3471 10.8766 27.9932C10.9454 28.5184 10.4565 29.1606 10.3072 29.3466C10.1215 29.5728 9.87495 29.7506 9.63658 29.9203C9.43455 30.0657 9.22463 30.2153 9.06289 30.3888C8.49739 30.9989 8.22269 31.6774 8.27109 32.3519C8.31956 33.0468 8.70333 33.701 9.3779 34.2466C9.45059 34.3072 9.52724 34.3638 9.6081 34.4202C9.83436 34.5858 10.0646 34.7555 10.2139 34.9896C10.4968 35.434 10.8763 35.7408 11.4094 35.955C11.6236 36.0398 11.8698 36.0277 12.0758 35.9268C12.2615 35.8338 12.3951 35.6805 12.4435 35.4906C12.4517 35.4543 12.4596 35.4179 12.4596 35.3855C12.4959 34.3796 11.8335 33.782 11.1305 33.1477C10.8882 32.9296 10.6337 32.6994 10.4035 32.4489L10.3308 32.3681L10.9772 31.8389C11.377 31.5118 11.7529 31.2046 12.1364 30.8978C13.215 30.0415 13.5261 29.1165 13.1462 27.8964C13.0896 27.7186 12.9927 27.5529 12.8633 27.3391C12.7946 27.2219 12.7179 27.0928 12.6371 26.9432L12.5804 26.8423L12.6895 26.7978C12.8349 26.7412 12.9682 26.6806 13.1014 26.6282C13.3883 26.507 13.663 26.3898 13.9416 26.3171C14.1194 26.2726 14.3012 26.2726 14.4829 26.2726C14.8222 26.2726 15.1372 26.2726 15.3837 25.9736C15.5857 25.7273 15.6584 25.3718 15.5815 25.0243C15.4079 24.2286 15.2059 23.4208 15.0121 22.6369C14.9233 22.2734 14.8303 21.9099 14.7413 21.5422L14.7292 21.4856L14.7737 21.4453C15.2625 20.9928 15.7512 20.5324 16.24 20.0719C17.3065 19.0702 18.409 18.0319 19.5322 17.0463C22.4406 14.5014 23.3294 9.82365 21.6004 6.16434L21.5974 6.16788ZM12.5656 24.4911C11.8223 24.6122 11.0832 24.7416 10.3036 24.8788C9.9601 24.9394 9.61296 25 9.25339 25.0645L9.13223 25.0848V24.9636C9.14434 23.7881 9.3785 23.0247 9.87556 22.5519C10.2996 22.1479 10.9299 21.9661 11.7862 21.9985C12.6507 22.0309 13.2647 22.5883 13.3495 23.4203C13.414 24.0425 13.1517 24.402 12.5698 24.4989L12.5656 24.4911ZM19.3477 13.5767C18.443 14.9664 17.2917 16.267 15.8335 17.5555C13.8138 19.3411 11.6486 20.1771 8.8211 20.2779C8.55455 20.2455 8.3001 20.2255 8.04964 20.2053C7.49229 20.1607 6.91859 20.1165 6.38943 19.9387C4.43426 19.2723 3.08905 17.8908 2.4954 15.9438C1.48951 12.6476 1.77241 9.42814 3.33171 6.37028C4.86677 3.36096 7.58532 1.86623 11.4027 1.91463C13.4748 1.9428 15.5187 2.58524 17.4739 3.82139C17.4861 3.82956 17.5021 3.83745 17.5185 3.84562C17.5466 3.86168 17.5709 3.8738 17.5993 3.89409C20.419 5.92196 21.2753 10.6317 19.3525 13.5808L19.3477 13.5767Z" fill="black"/>
</svg>
