<svg width="32" height="31" viewBox="0 0 32 31" fill="none" xmlns="http://www.w3.org/2000/svg">
<path fill-rule="evenodd" clip-rule="evenodd" d="M31.4255 1.61234C31.3194 1.12034 30.9937 0.518709 30.5867 0.292335C30.0912 0.0197946 29.3869 -0.054513 28.81 0.0375723C27.3555 0.264193 25.9078 0.536486 24.4639 0.812755C22.9916 1.09591 21.6045 1.701 20.3975 2.59291L17.6618 4.61719C16.6023 5.46344 15.5795 6.35826 14.5592 7.25091L14.5591 7.25093L14.3172 7.46254C14.0203 7.72386 13.7534 8.01994 13.4871 8.31534L13.4871 8.31536C13.4359 8.37212 13.3848 8.42887 13.3335 8.48533C13.1327 8.70819 12.9358 8.93349 12.7389 9.15868L12.7387 9.15887C12.4634 9.47368 12.1884 9.78826 11.9036 10.0956C11.8222 10.184 11.6595 10.2264 11.5427 10.1911C9.50781 9.55051 7.44794 9.06913 5.29625 9.30985C4.83264 9.36293 4.27346 9.50092 3.96196 9.80877C2.9335 10.8117 1.96819 11.8776 1.00417 12.942L0.68137 13.2982C0.270832 13.7478 -0.118459 14.2077 0.154062 14.9263C0.411794 15.6176 0.924807 15.648 1.49386 15.6818L1.49396 15.6818C1.54243 15.6847 1.59131 15.6876 1.64047 15.6909C3.11815 15.7914 4.59376 15.9135 6.13672 16.0412L6.13681 16.0412C6.65962 16.0845 7.19017 16.1284 7.73115 16.1723C7.60378 16.4508 7.48482 16.7085 7.37212 16.9527C7.14971 17.4345 6.95165 17.8636 6.76144 18.2958C6.46767 18.9683 6.42175 19.5911 7.09767 20.1044C7.50409 20.4132 7.90272 20.7327 8.30109 21.0521L8.30117 21.0521L8.3012 21.0522C9.04422 21.6478 9.78636 22.2427 10.5765 22.7658C11.5462 23.4065 12.6292 23.516 13.6448 22.7127C13.8121 22.5818 14.0077 22.4858 14.2064 22.3882L14.2065 22.3882C14.2978 22.3433 14.3898 22.2982 14.48 22.2491C14.5192 22.2883 14.568 22.3265 14.6167 22.3646L14.6167 22.3646C14.7219 22.4469 14.8267 22.5289 14.834 22.6207C14.9277 23.6042 15.0099 24.5891 15.092 25.5737C15.1465 26.2259 15.2009 26.8779 15.2586 27.5294C15.267 27.6208 15.2708 27.7188 15.2747 27.8181C15.2869 28.1335 15.2996 28.4621 15.4637 28.637C15.6938 28.8849 16.2708 29.0688 16.5574 28.952C18.026 28.347 19.5089 27.731 20.8785 26.9311C22.0358 26.2552 22.5772 25.1757 22.2978 23.7105C21.9368 21.8348 21.151 20.1856 20.0081 18.6248C20.256 18.4033 20.4974 18.1899 20.7337 17.981C21.1958 17.5725 21.6382 17.1813 22.0714 16.781C22.5007 16.3832 22.9227 15.9766 23.3447 15.5699C24.1991 14.7466 25.0534 13.9234 25.9679 13.1748C27.7552 11.7096 29.1354 9.97913 30.0271 7.85209C30.1085 7.65386 30.2041 7.45933 30.328 7.28578C31.549 5.55871 31.8534 3.64054 31.4251 1.61252L31.4255 1.61234ZM4.57012 14.3765L4.5701 14.3765C4.08422 14.3112 3.59822 14.2459 3.11296 14.1757C2.97133 14.1552 2.83269 14.1111 2.66466 14.0576L2.66465 14.0576C2.5723 14.0283 2.47108 13.9961 2.3556 13.9634C2.61439 13.67 2.86172 13.3776 3.10492 13.0901L3.10493 13.09C3.68321 12.4063 4.23816 11.7501 4.86846 11.1746C5.21531 10.8561 5.90528 10.7712 6.42224 10.8099C7.45222 10.8844 8.47881 11.0181 9.59355 11.1633C10.0683 11.2251 10.559 11.289 11.0727 11.3513C10.7749 11.7613 10.5 12.1361 10.241 12.4891L10.241 12.4892C9.76442 13.1389 9.34208 13.7146 8.93163 14.2994C8.58824 14.7877 8.20264 14.94 7.59039 14.8301L7.58988 14.827C6.58877 14.6478 5.57968 14.5122 4.57012 14.3765ZM10.0141 20.5002C9.58946 20.1356 9.19643 19.7288 8.82147 19.3076C8.26948 18.6882 8.43932 17.8425 9.2214 16.9047L13.7267 20.7728C12.1907 21.7744 11.4439 21.7284 10.0143 20.5003L10.0141 20.5002ZM20.3975 24.28C20.5248 24.7933 20.3691 25.1895 19.7746 25.462C19.1589 25.7397 18.5779 26.0931 17.9314 26.4864L17.9314 26.4864C17.6302 26.6696 17.3149 26.8614 16.9751 27.0583C17.3883 25.4832 16.9902 24.2449 16.6049 23.0461C16.5313 22.8173 16.4582 22.5899 16.3913 22.3619C16.1968 21.7 16.1825 21.2399 16.9292 20.8967C17.3827 20.6877 17.7996 20.3976 18.2995 20.0497L18.2995 20.0497C18.5447 19.879 18.81 19.6945 19.1093 19.4987C19.2376 19.9714 19.3649 20.4332 19.49 20.8875C19.8101 22.049 20.1166 23.1616 20.394 24.2835L20.3975 24.28ZM29.9529 3.10564C29.8043 4.88232 29.1284 6.46428 28.003 7.86917C27.6499 8.30958 27.3372 8.78146 27.0248 9.25309C26.7171 9.71757 26.4095 10.1818 26.0636 10.6155C25.6809 11.0937 25.2285 11.5191 24.7765 11.9441C24.6098 12.1009 24.443 12.2576 24.2799 12.4169C24.1949 12.5001 24.1007 12.5741 24.0061 12.6482L24.0061 12.6483C23.9157 12.7192 23.8251 12.7904 23.742 12.8699C23.162 13.4209 22.5858 13.9762 22.0097 14.5314C20.7577 15.7379 19.5057 16.9444 18.2139 18.1077C17.5593 18.6987 16.7453 19.1941 15.9171 19.4808C15.5723 19.6025 15.0851 19.3803 14.644 19.1791C14.5463 19.1345 14.4509 19.091 14.3598 19.0525C14.0896 18.939 13.8595 18.7215 13.6369 18.5112C13.6029 18.479 13.5691 18.447 13.5353 18.4156C12.4913 17.4425 11.4473 16.4656 10.428 15.4641C10.2865 15.3261 10.2688 15.0854 10.3855 14.9261C11.6418 13.2381 12.9124 11.5604 14.1618 9.91475C14.9404 8.88854 15.8536 7.97193 16.8727 7.18613L17.1107 7.00338C18.4134 6.00326 19.6743 5.0352 20.9319 4.06106C21.0939 3.93606 21.2425 3.79218 21.3909 3.64854L21.3909 3.64851C21.5827 3.46279 21.7742 3.27747 21.9937 3.13383C23.3954 2.20788 25.0071 1.95248 26.6129 1.69803C26.7993 1.6685 26.9856 1.63898 27.1714 1.60843C27.4177 1.56745 27.6677 1.54125 27.9174 1.51509L27.9174 1.51509C28.0122 1.50516 28.1069 1.49523 28.2014 1.4845C29.5463 1.32873 30.063 1.75358 29.9497 3.1126L29.9529 3.10564ZM9.45168 23.8982C8.84661 23.6999 8.53854 24.1211 8.59529 24.7582C8.73675 26.2836 7.96529 27.4303 7.02401 28.4956C6.90724 28.6301 6.64531 28.7397 6.48955 28.7044C6.36216 28.6726 6.18516 28.3788 6.22046 28.2442L6.24245 28.1538C6.34862 27.7161 6.46079 27.2538 6.71247 26.903C6.74265 26.861 6.77364 26.8191 6.80459 26.7773C7.0893 26.3926 7.3696 26.0139 6.96723 25.6148C6.58508 25.2362 6.11084 25.1053 5.4843 25.5159C4.62791 26.0785 3.61207 26.3935 2.377 25.8309C2.56794 25.6812 2.74374 25.5375 2.91085 25.401L2.91093 25.4009C3.27333 25.1048 3.59486 24.842 3.94139 24.6239C3.99704 24.5888 4.05424 24.5554 4.11076 24.5225C4.46393 24.3167 4.79057 24.1264 4.54646 23.6046C4.26676 23.003 3.79624 22.964 3.17336 23.102C2.81684 23.1807 2.43304 23.1433 2.05043 23.1059C1.88225 23.0895 1.71429 23.0732 1.54899 23.0667L1.51603 22.8451L1.4853 22.6384C1.67122 22.5582 1.85522 22.4687 2.03924 22.3792C2.46464 22.1723 2.89016 21.9653 3.33977 21.8738C3.68234 21.8038 4.04105 21.8188 4.40136 21.8338C4.71488 21.8469 5.0296 21.86 5.33593 21.8173C5.46332 21.7995 5.58725 21.7252 5.70401 21.6333C6.00124 21.3961 6.02617 20.9362 5.73586 20.692C5.68278 20.6496 5.6297 20.6177 5.56947 20.6036C4.10088 20.2921 2.66383 20.4444 1.35791 21.2193C0.940216 21.4672 0.575844 21.8634 0.285514 22.2634C-0.319553 23.1022 0.0307513 23.7956 1.39691 24.5742C0.278625 26.9984 2.27453 27.8548 4.55015 27.5507C4.55298 27.6835 4.55689 27.8052 4.56058 27.9203L4.56058 27.9203C4.56623 28.0966 4.57138 28.2572 4.57138 28.4177C4.57854 29.2388 5.02439 29.8935 5.6934 30.166C6.45796 30.4776 7.33211 30.35 8.02925 29.8086C9.63238 28.5557 10.3545 26.8287 10.4251 24.854C10.4357 24.5355 9.85185 24.0295 9.44822 23.8984L9.45168 23.8982ZM21.046 5.22561C21.8458 4.34798 22.7022 3.71453 23.9657 3.9056L23.9657 3.90591C25.2716 4.10385 27.211 5.44535 26.9809 7.1228C26.8251 8.24823 25.3316 9.79831 24.0753 10C22.8933 10.1911 21.8671 9.95387 21.0813 9.04439C19.9948 7.95764 20.0267 6.34389 21.046 5.22561ZM22.2351 8.08901C22.936 8.71873 24.0365 8.59139 24.8894 7.74561C25.2716 7.43064 25.5831 7.02351 25.2715 6.45029C24.7973 5.58331 23.3287 5.20461 22.4758 5.71069C21.4599 6.31599 21.3575 7.30321 22.2351 8.08901Z" fill="black"/>
</svg>
