<svg width="114" height="3" viewBox="0 0 114 3" fill="none" xmlns="http://www.w3.org/2000/svg">
<path fill-rule="evenodd" clip-rule="evenodd" d="M96.7169 1.02941C95.9094 1.00625 95.0988 0.99748 94.2904 0.981678C92.5371 0.947639 90.7834 0.913597 89.0301 0.879558C88.0539 0.860537 87.0765 0.839261 86.1002 0.822644C85.8174 0.817835 85.5345 0.814308 85.2512 0.811577C84.6151 0.805447 83.9785 0.802998 83.3428 0.797353C80.4499 0.770594 77.5573 0.743999 74.664 0.717396C73.9756 0.711082 73.2863 0.710688 72.5982 0.707742C70.8929 0.699637 69.1883 0.691702 67.4829 0.684078C65.5595 0.674994 63.6353 0.660453 61.7122 0.660184C58.5993 0.659662 55.4867 0.659146 52.3738 0.658784C50.5721 0.658242 48.7688 0.650635 46.9674 0.66083C43.863 0.678175 40.7591 0.695205 37.6548 0.712069C35.9589 0.721198 34.2613 0.726146 32.5666 0.74602C29.3566 0.783334 26.147 0.820971 22.9366 0.858761C21.2213 0.878918 19.5041 0.889446 17.7923 0.928863C14.5963 1.0022 11.4002 1.07569 8.20363 1.14918C7.51335 1.16496 6.82264 1.18073 6.13151 1.19682C4.75135 1.22838 3.37597 1.28497 1.99943 1.33115C1.91318 1.33496 1.82652 1.33845 1.74027 1.34211C1.57563 1.3583 1.43221 1.38864 1.30998 1.43392C1.12769 1.5017 1.02341 1.59586 1.02246 1.69454C1.02151 1.7929 1.12395 1.88953 1.3049 1.96064C1.46959 2.02567 1.75027 2.08445 1.99225 2.07653C3.65305 2.02092 5.31138 1.96097 6.97619 1.92302C8.5192 1.88758 10.0618 1.85246 11.6044 1.81734C13.288 1.77894 14.9712 1.74053 16.6545 1.70228C17.3326 1.68671 18.0125 1.6641 18.6914 1.65623C21.3163 1.62577 23.9407 1.59611 26.5659 1.5663C28.2016 1.54746 29.8382 1.52878 31.474 1.50994C32.15 1.5022 32.826 1.49093 33.5019 1.48719C36.1027 1.4722 38.7039 1.4609 41.3043 1.44784C42.881 1.4398 44.4572 1.43224 46.0334 1.4242C46.5633 1.42146 47.0932 1.41679 47.623 1.41693C50.4317 1.41916 53.2395 1.42187 56.0477 1.42458C57.6159 1.42592 59.1836 1.42741 60.7518 1.42875C61.3105 1.42916 61.8684 1.42733 62.4267 1.43063C65.3227 1.447 68.2183 1.46369 71.1143 1.48023C72.9213 1.49043 74.7263 1.50126 76.5333 1.52044C79.6082 1.55295 82.6836 1.58532 85.7582 1.61767C86.365 1.624 86.9712 1.63962 87.5776 1.65219C89.2747 1.68761 90.9719 1.72303 92.6686 1.75845C93.9415 1.78513 95.2148 1.81166 96.4881 1.83819C97.3911 1.85699 98.2935 1.89148 99.1956 1.91891C101.852 1.99947 104.508 2.08177 107.163 2.17081C107.837 2.19349 108.511 2.21953 109.186 2.24493C109.908 2.27192 110.633 2.29845 111.352 2.33663C111.465 2.34476 111.576 2.35384 111.688 2.36421C111.971 2.38985 112.245 2.38624 112.5 2.33134C112.737 2.28092 112.913 2.19498 112.987 2.09492C113.141 1.88429 112.808 1.65567 112.256 1.59171C111.772 1.53578 111.27 1.51043 110.771 1.4864C110.43 1.46982 110.089 1.45323 109.747 1.43696C109.091 1.40532 108.429 1.38612 107.771 1.36072C106.536 1.31325 105.297 1.28065 104.061 1.24118C101.615 1.16281 99.165 1.10011 96.7169 1.02941Z" fill="black" stroke="black"/>
</svg>
