<svg width="126" height="4" viewBox="0 0 126 4" fill="none" xmlns="http://www.w3.org/2000/svg">
<path fill-rule="evenodd" clip-rule="evenodd" d="M106.949 1.13971C106.055 1.11407 105.158 1.10435 104.263 1.08686C102.322 1.04917 100.38 1.01148 98.4389 0.973796C97.3581 0.952738 96.2759 0.929182 95.1951 0.910784C94.8819 0.90546 94.5687 0.901555 94.255 0.898532C93.5508 0.891745 92.8461 0.889034 92.1423 0.882783C88.9394 0.853158 85.7369 0.823713 82.5335 0.79426C81.7714 0.787269 81.0082 0.786833 80.2465 0.783571C78.3584 0.774599 76.4712 0.765813 74.5831 0.757372C72.4536 0.747315 70.3232 0.731216 68.1941 0.730918C64.7476 0.73034 61.3016 0.729768 57.8551 0.729368C55.8604 0.728768 53.8638 0.720346 51.8694 0.731634C48.4325 0.750837 44.996 0.769691 41.5591 0.788362C39.6815 0.79847 37.802 0.803947 35.9257 0.825951C32.3718 0.867262 28.8183 0.908932 25.264 0.950771C23.3649 0.973088 21.4636 0.984743 19.5685 1.02838C16.03 1.10958 12.4914 1.19094 8.95244 1.27231C8.18819 1.28978 7.42348 1.30724 6.6583 1.32505C5.13026 1.35999 3.60752 1.42265 2.0835 1.47377C1.98801 1.47799 1.89205 1.48186 1.79656 1.4859C1.61429 1.50384 1.4555 1.53742 1.32018 1.58756C1.11836 1.66259 1.0029 1.76684 1.00185 1.87609C1.0008 1.98499 1.11422 2.09198 1.31456 2.17071C1.49689 2.24271 1.80764 2.30779 2.07555 2.29902C3.91429 2.23745 5.7503 2.17107 7.59349 2.12906C9.30181 2.08982 11.0097 2.05094 12.7175 2.01206C14.5816 1.96954 16.4451 1.92701 18.3087 1.88467C19.0595 1.86742 19.8123 1.8424 20.5639 1.83368C23.47 1.79996 26.3756 1.76712 29.2821 1.73411C31.0931 1.71325 32.905 1.69258 34.716 1.67172C35.4644 1.66315 36.2129 1.65067 36.9613 1.64653C39.8407 1.62994 42.7206 1.61743 45.5996 1.60296C47.3452 1.59406 49.0903 1.58569 50.8354 1.57679C51.422 1.57376 52.0087 1.56859 52.5953 1.56874C55.7049 1.57122 58.8135 1.57422 61.9227 1.57722C63.6589 1.5787 65.3946 1.58035 67.1308 1.58183C67.7494 1.58229 68.367 1.58026 68.9851 1.58391C72.1914 1.60204 75.3972 1.62052 78.6035 1.63882C80.6042 1.65012 82.6025 1.66211 84.6031 1.68334C88.0075 1.71934 91.4124 1.75517 94.8164 1.79099C95.4882 1.798 96.1594 1.81529 96.8307 1.82921C98.7097 1.86842 100.589 1.90764 102.467 1.94685C103.877 1.9764 105.286 2.00577 106.696 2.03514C107.696 2.05595 108.695 2.09414 109.694 2.12451C112.635 2.2137 115.575 2.30482 118.515 2.4034C119.261 2.42851 120.007 2.45734 120.754 2.48546C121.554 2.51534 122.356 2.54471 123.153 2.58698C123.277 2.59598 123.4 2.60604 123.524 2.61752C123.838 2.64591 124.141 2.64191 124.423 2.58113C124.685 2.5253 124.881 2.43016 124.963 2.31938C125.133 2.08618 124.765 1.83306 124.153 1.76225C123.618 1.70033 123.062 1.67227 122.51 1.64566C122.132 1.6273 121.754 1.60893 121.376 1.59092C120.649 1.55589 119.916 1.53464 119.187 1.50651C117.82 1.45396 116.449 1.41786 115.08 1.37416C112.372 1.2874 109.66 1.21798 106.949 1.13971Z" fill="black" stroke="black"/>
</svg>
