<svg width="248" height="6" viewBox="0 0 248 6" fill="none" xmlns="http://www.w3.org/2000/svg">
<path fill-rule="evenodd" clip-rule="evenodd" d="M210.867 1.84313C209.096 1.79613 207.318 1.77713 205.545 1.74445C201.7 1.67404 197.854 1.60361 194.009 1.53319C191.868 1.49385 189.725 1.45012 187.584 1.41545C186.963 1.40542 186.343 1.39789 185.722 1.3919C184.327 1.37845 182.931 1.37217 181.536 1.35967C175.192 1.30071 168.849 1.24207 162.503 1.18341C160.993 1.16949 159.482 1.16708 157.973 1.15971C154.233 1.13988 150.495 1.12038 146.755 1.10149C142.537 1.07923 138.317 1.04636 134.099 1.04126C127.273 1.03284 120.447 1.02443 113.62 1.01632C109.669 1.01098 105.714 0.991882 101.763 1.00744C94.9556 1.03381 88.1486 1.05957 81.3408 1.08501C77.6216 1.09874 73.8988 1.10433 70.1821 1.13898C63.1426 1.20396 56.104 1.26958 49.0636 1.33549C45.302 1.37064 41.5359 1.38704 37.7822 1.45969C30.7732 1.59481 23.7642 1.73024 16.7543 1.86567C15.2405 1.89473 13.7258 1.92378 12.2102 1.95345C9.18352 2.01159 6.1674 2.11846 3.14872 2.20505C2.95957 2.21227 2.76952 2.21886 2.58038 2.22576C2.21937 2.25689 1.9049 2.3156 1.63696 2.40344C1.23736 2.53491 1.00889 2.71791 1.00704 2.90996C1.00519 3.10139 1.23008 3.2897 1.62708 3.42854C1.98841 3.55549 2.60408 3.67056 3.13474 3.65572C6.7768 3.55144 10.4134 3.43869 14.0643 3.3688C17.4481 3.30351 20.831 3.23883 24.2138 3.17415C27.906 3.10341 31.5973 3.03266 35.2886 2.96222C36.7758 2.93352 38.2668 2.89115 39.7556 2.87743C45.5119 2.8244 51.2672 2.77292 57.0244 2.72114C60.6116 2.68837 64.2007 2.65592 67.7879 2.62314C69.2703 2.60968 70.7528 2.58936 72.2352 2.58369C77.9388 2.5607 83.6433 2.5449 89.3461 2.52565C92.8037 2.51376 96.2603 2.5028 99.717 2.4909C100.879 2.48682 102.041 2.479 103.203 2.48053C109.363 2.49157 115.52 2.50351 121.679 2.51547C125.118 2.5218 128.556 2.52843 131.995 2.53476C133.22 2.53691 134.444 2.53467 135.668 2.54241C142.019 2.58117 148.369 2.62054 154.72 2.65961C158.683 2.68377 162.642 2.70913 166.605 2.75076C173.348 2.82136 180.093 2.89166 186.835 2.96194C188.166 2.9757 189.496 3.00753 190.825 3.03344C194.547 3.10642 198.269 3.17939 201.991 3.25236C204.782 3.30732 207.575 3.36198 210.367 3.41664C212.347 3.45537 214.326 3.52465 216.305 3.58019C222.131 3.74328 227.954 3.90979 233.779 4.08939C235.257 4.13513 236.735 4.18742 238.214 4.23846C239.798 4.2927 241.387 4.34605 242.966 4.42207C243.212 4.43816 243.456 4.4561 243.702 4.47655C244.324 4.52713 244.923 4.52075 245.483 4.41452C246.002 4.31694 246.389 4.15011 246.55 3.95555C246.888 3.54598 246.157 3.10024 244.945 2.97444C243.885 2.86445 242.783 2.81392 241.69 2.76597C240.941 2.73287 240.193 2.69978 239.444 2.66731C238.004 2.60416 236.552 2.56523 235.109 2.51421C232.401 2.4189 229.685 2.3525 226.973 2.27274C221.608 2.1144 216.236 1.98654 210.867 1.84313Z" fill="black" stroke="black"/>
</svg>
