<svg width="122" height="4" viewBox="0 0 122 4" fill="none" xmlns="http://www.w3.org/2000/svg">
<path fill-rule="evenodd" clip-rule="evenodd" d="M103.532 1.10294C102.667 1.07813 101.799 1.06873 100.932 1.0518C99.0538 1.01533 97.1749 0.978854 95.2964 0.942383C94.2504 0.922004 93.2032 0.899209 92.1572 0.881404C91.8541 0.876252 91.551 0.872473 91.2475 0.869547C90.5659 0.862979 89.8839 0.860355 89.2029 0.854307C86.1032 0.825636 83.0041 0.797141 79.904 0.768639C79.1665 0.761874 78.4279 0.761451 77.6908 0.758295C75.8636 0.749612 74.0373 0.741109 72.2101 0.732941C70.1493 0.723208 68.0876 0.707628 66.0272 0.70734C62.6919 0.706781 59.357 0.706227 56.0217 0.70584C54.0913 0.70526 52.1592 0.697109 50.2291 0.708033C46.9031 0.726616 43.5775 0.744863 40.2514 0.762931C38.4343 0.772713 36.6155 0.778013 34.7997 0.799307C31.3604 0.839286 27.9216 0.879611 24.4819 0.920101C22.6441 0.941698 20.8041 0.952977 18.9702 0.99521C15.5458 1.07378 12.1214 1.15253 8.69655 1.23127C7.95695 1.24817 7.21691 1.26507 6.47641 1.28231C4.99767 1.31612 3.52405 1.37676 2.04919 1.42623C1.95678 1.43032 1.86392 1.43405 1.77151 1.43797C1.59512 1.45532 1.44145 1.48783 1.31049 1.53635C1.11518 1.60896 1.00345 1.70985 1.00243 1.81557C1.00142 1.92096 1.11118 2.0245 1.30505 2.10069C1.4815 2.17037 1.78223 2.23334 2.04149 2.22485C3.82092 2.16527 5.59771 2.10103 7.38144 2.06038C9.03465 2.02241 10.6874 1.98478 12.3402 1.94716C14.1441 1.90601 15.9476 1.86485 17.751 1.82387C18.4776 1.80719 19.2061 1.78297 19.9335 1.77453C22.7458 1.7419 25.5576 1.71012 28.3704 1.67818C30.123 1.65799 31.8765 1.63798 33.6291 1.6178C34.3533 1.6095 35.0776 1.59742 35.8019 1.59342C38.5885 1.57736 41.3755 1.56525 44.1616 1.55125C45.8508 1.54264 47.5396 1.53454 49.2284 1.52593C49.7962 1.52299 50.3639 1.51799 50.9316 1.51814C53.9409 1.52053 56.9492 1.52343 59.9581 1.52634C61.6383 1.52777 63.318 1.52937 64.9982 1.5308C65.5968 1.53125 66.1946 1.52928 66.7927 1.53282C69.8956 1.55036 72.998 1.56824 76.1008 1.58596C78.0369 1.59689 79.9708 1.60849 81.9069 1.62904C85.2015 1.66388 88.4965 1.69855 91.7907 1.73322C92.4408 1.74 93.0904 1.75673 93.74 1.7702C95.5584 1.80815 97.3768 1.8461 99.1948 1.88405C100.559 1.91264 101.923 1.94106 103.287 1.96949C104.255 1.98963 105.221 2.02658 106.188 2.05598C109.034 2.14229 111.879 2.23047 114.725 2.32587C115.447 2.35017 116.169 2.37807 116.892 2.40529C117.665 2.4342 118.442 2.46262 119.213 2.50353C119.333 2.51224 119.452 2.52197 119.572 2.53308C119.876 2.56056 120.169 2.55668 120.443 2.49787C120.696 2.44384 120.885 2.35177 120.964 2.24456C121.13 2.01888 120.773 1.77393 120.181 1.7054C119.663 1.64548 119.125 1.61832 118.591 1.59258C118.225 1.5748 117.859 1.55703 117.493 1.5396C116.79 1.5057 116.08 1.48513 115.375 1.45791C114.053 1.40706 112.726 1.37213 111.401 1.32983C108.78 1.24587 106.155 1.17869 103.532 1.10294Z" fill="black" stroke="black"/>
</svg>
