<svg width="119" height="4" viewBox="0 0 119 4" fill="none" xmlns="http://www.w3.org/2000/svg">
<path fill-rule="evenodd" clip-rule="evenodd" d="M101.088 1.07939C100.243 1.05477 99.3953 1.04557 98.5498 1.02884C96.7161 0.992799 94.882 0.956757 93.0483 0.920718C92.0273 0.900579 91.005 0.878024 89.9839 0.86046C89.6881 0.855377 89.3922 0.851668 89.0959 0.848812C88.4306 0.842401 87.7649 0.839934 87.1 0.834042C84.0743 0.806084 81.0491 0.778301 78.023 0.75051C77.303 0.743915 76.5821 0.743662 75.8625 0.740675C74.0788 0.732412 72.2961 0.724329 70.5125 0.716581C68.5008 0.707321 66.4883 0.692215 64.477 0.6924C61.2212 0.692608 57.9659 0.692821 54.7101 0.6932C52.8257 0.693063 50.9397 0.685356 49.0556 0.696723C45.8088 0.716071 42.5625 0.735082 39.3158 0.753915C37.542 0.764113 35.7666 0.769832 33.994 0.791543C30.6368 0.832312 27.2799 0.873428 23.9222 0.914708C22.1282 0.936727 20.3322 0.948429 18.5419 0.991083C15.1992 1.07044 11.8564 1.14997 8.5132 1.2295C7.79123 1.24657 7.06883 1.26364 6.34599 1.28105C4.90249 1.3152 3.464 1.37618 2.02429 1.42599C1.93408 1.4301 1.84344 1.43386 1.75323 1.43779C1.58104 1.45519 1.43102 1.48773 1.30318 1.53628C1.11251 1.60894 1.00342 1.70985 1.0024 1.81557C1.00138 1.92096 1.1085 2.02447 1.29774 2.10062C1.46997 2.17025 1.76351 2.23316 2.0166 2.22461C3.75361 2.16463 5.48804 2.09998 7.22925 2.05891C8.84306 2.02056 10.4564 1.98256 12.0698 1.94455C13.8307 1.90299 15.5912 1.86142 17.3516 1.82002C18.0609 1.80317 18.772 1.77878 19.4821 1.77018C22.2273 1.7369 24.9722 1.70447 27.7178 1.67189C29.4287 1.6513 31.1403 1.63089 32.8511 1.6103C33.5581 1.60183 34.2652 1.5896 34.9721 1.58542C37.6923 1.56872 40.4129 1.55598 43.1325 1.54134C44.7815 1.53234 46.4301 1.52385 48.0786 1.51485C48.6328 1.51178 49.187 1.50665 49.7411 1.50667C52.6787 1.50837 55.6153 1.51058 58.5524 1.51279C60.1925 1.51384 61.8322 1.51505 63.4723 1.51609C64.0567 1.5164 64.6402 1.5143 65.2241 1.5177C68.2529 1.53453 71.2814 1.5517 74.3102 1.5687C76.2002 1.57919 78.088 1.59035 79.9779 1.61045C83.1939 1.64453 86.4104 1.67845 89.626 1.71236C90.2606 1.71899 90.8947 1.73557 91.5288 1.74889C93.3039 1.78642 95.0789 1.82396 96.8535 1.86148C98.1848 1.88976 99.5165 1.91787 100.848 1.94599C101.793 1.9659 102.736 2.00263 103.68 2.03181C106.458 2.11746 109.235 2.20499 112.013 2.29974C112.718 2.32387 113.423 2.3516 114.128 2.37866C114.884 2.40739 115.641 2.43563 116.394 2.47636C116.512 2.48505 116.628 2.49475 116.745 2.50584C117.042 2.53324 117.328 2.5293 117.595 2.47042C117.842 2.41633 118.027 2.32422 118.104 2.21699C118.265 1.99128 117.917 1.74641 117.339 1.67801C116.834 1.61821 116.308 1.59118 115.787 1.56556C115.43 1.54787 115.073 1.53018 114.716 1.51284C114.029 1.47909 113.337 1.45869 112.648 1.43163C111.357 1.38108 110.062 1.34645 108.769 1.30447C106.21 1.22111 103.648 1.15453 101.088 1.07939Z" fill="black" stroke="black"/>
</svg>
