<svg width="30" height="11" viewBox="0 0 30 11" fill="none" xmlns="http://www.w3.org/2000/svg">
<path fill-rule="evenodd" clip-rule="evenodd" d="M19.7342 6.46656C19.7457 6.42896 19.8198 6.3901 19.8783 6.37209C19.9312 6.35566 20.0532 6.35692 20.0574 6.36703C20.2848 6.93672 20.6531 7.48999 20.5413 8.10044C20.5284 8.17059 20.3635 8.23915 20.2498 8.28655C20.0938 8.35227 19.986 8.30329 19.888 8.19807C19.5965 7.8859 19.6978 7.52506 19.5684 7.09439C19.6066 6.94399 19.6628 6.70417 19.7342 6.46656ZM21.5558 5.7745C21.5633 5.64635 21.5603 5.47315 21.6091 5.40841C21.6495 5.35505 21.7887 5.38479 21.8323 5.45652C22.0694 5.84448 22.2939 6.25124 22.5141 6.66369C22.5829 6.79271 22.5418 6.9108 22.4592 7.0184C22.0771 7.51613 21.8001 7.43172 21.6953 6.76997C21.6537 6.5058 21.6246 6.2368 21.6116 6.13621C21.5747 5.90571 21.552 5.83792 21.5558 5.7745ZM25.4765 5.90744C25.3015 6.06678 25.127 6.23106 24.9409 6.3517C24.8896 6.38505 24.7627 6.30641 24.7342 6.2253C24.5549 5.71063 24.5296 5.14162 24.537 4.56891C24.5378 4.51991 24.5758 4.45362 24.607 4.42933C24.6409 4.4038 24.7024 4.3898 24.7262 4.41945C24.9805 4.73813 25.2351 5.05845 25.4765 5.40019C25.523 5.46606 25.5132 5.62829 25.5293 5.74645C25.5121 5.80121 25.5045 5.88233 25.4765 5.90744ZM22.8941 4.8886C22.8165 4.90942 22.687 4.82955 22.6135 4.76094C21.8357 4.03559 21.2299 3.11533 20.2023 2.6733C20.0635 2.6139 20.0225 2.22102 20.1144 2.08039C20.229 1.90562 20.3903 1.94795 20.5411 2.01485C21.0816 2.25345 21.6173 2.50297 22.1588 2.73918C22.5311 2.90097 22.768 3.15459 22.8388 3.56795C22.8931 3.88403 22.9864 4.19363 23.0435 4.42711C23.0435 4.65888 23.075 4.83944 22.8941 4.8886ZM1.67892 6.23542C7.4688 6.22734 -2.62502 6.28505 3.16252 6.14924C7.88938 6.03844 10.8717 6.80331 15.5849 6.36434C16.2658 6.30124 16.9428 6.19506 17.6229 6.12273C18.0572 6.07617 18.31 6.30239 18.3244 6.76753C18.3521 7.68973 18.3552 8.61192 18.3778 9.53412C18.3836 9.77765 18.4117 10.0223 18.4533 10.2624C18.4974 10.5171 18.8974 10.8045 19.1603 10.7572C19.4618 10.7029 19.7727 10.6448 20.0508 10.5248C21.3615 9.9577 22.6707 9.38638 23.9651 8.78428C25.6525 7.99866 27.3275 7.18573 29.0036 6.37549C29.2805 6.24161 29.5458 6.07579 29.7962 5.89728C30.0592 5.70914 30.0689 5.09204 29.8181 4.89429C29.6256 4.7427 29.4239 4.59074 29.2034 4.48724C26.8448 3.37615 24.4808 2.27659 22.1207 1.16972C21.559 0.906569 21.0129 0.610329 20.4454 0.361794C20.1073 0.213288 19.7454 0.111335 19.3862 0.0186148C19.0283 -0.0729504 18.5733 0.184817 18.5188 0.536844C18.4339 1.08008 18.3805 1.63101 18.3567 2.1804C18.3275 2.85445 18.3587 3.53119 18.3306 4.20562C18.3197 4.46108 18.1511 4.66999 17.8706 4.70654C16.7609 4.85081 15.6527 5.03971 14.5375 5.10742C11.6799 5.28055 10.5662 4.44451 7.70864 4.61917C1.11596 5.02275 8.41643 4.95873 1.81681 4.94927C-0.0518831 4.94659 -1.04537 5.92499 1.67892 6.23542Z" fill="black"/>
</svg>
