<svg width="147" height="4" viewBox="0 0 147 4" fill="none" xmlns="http://www.w3.org/2000/svg">
<path fill-rule="evenodd" clip-rule="evenodd" d="M124.606 1.34419C123.563 1.31217 122.516 1.30071 121.472 1.2792C119.208 1.23289 116.943 1.18658 114.679 1.14027C113.418 1.11438 112.156 1.08528 110.895 1.06283C110.529 1.05633 110.164 1.05167 109.798 1.04814C108.977 1.04023 108.155 1.03757 107.334 1.03034C103.597 0.995939 99.8617 0.961767 96.125 0.927586C95.2359 0.919475 94.3457 0.919822 93.4571 0.916523C91.2546 0.907198 89.0532 0.898113 86.8507 0.889475C84.3666 0.879039 81.8815 0.860808 79.3978 0.862963C75.3774 0.86633 71.3576 0.869704 67.3372 0.8733C65.0103 0.874906 62.6813 0.86642 60.3548 0.883365C56.3455 0.912243 52.3368 0.940672 48.3276 0.968864C46.1373 0.984146 43.9449 0.993456 41.756 1.02409C37.6103 1.08163 33.4651 1.13964 29.3188 1.19786C27.1035 1.22893 24.8856 1.24623 22.6749 1.3048C18.547 1.41379 14.4191 1.523 10.2907 1.63221C9.39919 1.65566 8.50711 1.6791 7.6145 1.703C5.83198 1.74991 4.05559 1.83257 2.27774 1.90035C2.16634 1.90592 2.0544 1.91102 1.943 1.91635C1.73036 1.93971 1.54508 1.98324 1.38717 2.04809C1.15165 2.14515 1.01685 2.2798 1.01549 2.42077C1.01413 2.56128 1.14631 2.69919 1.37992 2.80054C1.59253 2.89323 1.95495 2.97682 2.26747 2.96519C4.41247 2.88355 6.55429 2.79571 8.70445 2.7393C10.6973 2.68664 12.6896 2.63443 14.6819 2.58223C16.8564 2.52514 19.0303 2.46804 21.2043 2.41118C22.0801 2.38804 22.9582 2.35485 23.8351 2.3427C27.2251 2.29572 30.6145 2.24988 34.0051 2.20383C36.1177 2.17475 38.2313 2.14591 40.3439 2.11684C41.217 2.10488 42.0901 2.08789 42.9631 2.08166C46.3221 2.05681 49.6815 2.03723 53.0399 2.01513C55.0762 2.00157 57.1119 1.98868 59.1476 1.97512C59.8319 1.9705 60.5163 1.96313 61.2006 1.96263C64.828 1.96211 68.4543 1.96227 72.0811 1.96244C74.1064 1.96227 76.1312 1.96233 78.1565 1.96217C78.878 1.96203 79.5986 1.95867 80.3196 1.96265C84.0597 1.98221 87.7994 2.00223 91.5395 2.02203C93.8733 2.03422 96.2044 2.0473 98.5381 2.07231C102.509 2.1147 106.481 2.15687 110.452 2.19902C111.236 2.20726 112.019 2.22877 112.802 2.24593C114.994 2.29429 117.185 2.34265 119.377 2.391C121.021 2.42744 122.665 2.46366 124.309 2.49988C125.476 2.52553 126.641 2.57361 127.806 2.61162C131.237 2.72318 134.666 2.83726 138.096 2.96094C138.967 2.99245 139.837 3.02876 140.708 3.06416C141.641 3.10176 142.576 3.1387 143.506 3.19229C143.651 3.20375 143.794 3.21658 143.939 3.23125C144.305 3.26751 144.658 3.26198 144.988 3.18323C145.294 3.11087 145.522 2.98788 145.617 2.84484C145.817 2.54374 145.387 2.21758 144.674 2.12693C144.05 2.04768 143.401 2.01213 142.757 1.97846C142.316 1.95522 141.875 1.93197 141.434 1.90918C140.586 1.86485 139.731 1.8383 138.881 1.80287C137.287 1.7367 135.687 1.69176 134.091 1.63701C130.931 1.52829 127.768 1.44195 124.606 1.34419Z" fill="black" stroke="black"/>
</svg>
