<svg width="203" height="4" viewBox="0 0 203 4" fill="none" xmlns="http://www.w3.org/2000/svg">
<path fill-rule="evenodd" clip-rule="evenodd" d="M173.043 1.77667C171.591 1.74565 170.134 1.73054 168.68 1.70766C165.528 1.65831 162.375 1.60894 159.222 1.55958C157.467 1.53202 155.709 1.50196 153.954 1.47706C153.446 1.46985 152.937 1.46407 152.428 1.45916C151.284 1.44814 150.14 1.44119 148.997 1.4307C143.795 1.38182 138.595 1.33312 133.393 1.2844C132.155 1.27283 130.916 1.2678 129.679 1.25996C126.613 1.23964 123.548 1.21951 120.482 1.19971C117.024 1.17685 113.564 1.14794 110.107 1.13484C104.51 1.11354 98.9142 1.09225 93.3176 1.07113C90.0784 1.05854 86.8362 1.03811 83.5976 1.03741C78.0165 1.03595 72.4363 1.03414 66.8553 1.03215C63.8063 1.03097 60.7543 1.02514 57.7075 1.03587C51.9366 1.05581 46.1665 1.07612 40.3949 1.09659C37.3112 1.10749 34.2238 1.10772 31.1467 1.13997C25.401 1.19989 19.6554 1.25999 13.909 1.32008C12.668 1.33295 11.4263 1.34581 10.1839 1.35903C7.70275 1.38478 5.23038 1.43829 2.75587 1.48025C2.60082 1.4839 2.44503 1.48719 2.28999 1.49066C1.99411 1.5075 1.73645 1.54013 1.51701 1.58946C1.18973 1.66328 1.00287 1.76684 1.00182 1.87609C1.00077 1.98499 1.18559 2.09267 1.51139 2.17261C1.80791 2.24571 2.31292 2.31266 2.74791 2.3055C5.73343 2.25498 8.71449 2.19964 11.7073 2.1687C14.4812 2.13974 17.2543 2.11112 20.0274 2.08251C23.0542 2.05119 26.0801 2.01987 29.1061 1.98872C30.3252 1.976 31.5474 1.95549 32.768 1.95129C37.4868 1.93504 42.2049 1.91967 46.9246 1.90414C49.8653 1.89417 52.8075 1.88439 55.7483 1.87442C56.9635 1.87034 58.1788 1.86236 59.3941 1.86272C64.0699 1.86344 68.7464 1.86825 73.4215 1.87109C76.256 1.87269 79.0897 1.87481 81.9235 1.8764C82.8761 1.87689 83.8288 1.87525 84.7814 1.87893C89.831 1.9001 94.879 1.92179 99.9279 1.94348C102.747 1.9554 105.566 1.96749 108.385 1.97941C109.39 1.98359 110.393 1.98527 111.396 1.99264C116.603 2.03005 121.809 2.0678 127.016 2.10539C130.265 2.12872 133.51 2.15272 136.759 2.18598C142.287 2.24245 147.817 2.29875 153.345 2.35504C154.435 2.36609 155.526 2.38742 156.616 2.40537C159.667 2.45589 162.719 2.5064 165.77 2.55691C168.058 2.59493 170.348 2.63278 172.637 2.67063C174.261 2.69745 175.883 2.74165 177.505 2.77803C182.281 2.8849 187.056 2.99371 191.832 3.10997C193.044 3.13957 194.256 3.17289 195.468 3.2055C196.767 3.24019 198.07 3.27438 199.364 3.32145C199.566 3.3312 199.766 3.34199 199.967 3.35422C200.477 3.3845 200.969 3.38232 201.428 3.32324C201.852 3.26898 202.169 3.17501 202.301 3.06471C202.577 2.83253 201.977 2.57718 200.983 2.50268C200.114 2.43754 199.211 2.40613 198.314 2.37621C197.7 2.35557 197.086 2.33493 196.472 2.31465C195.291 2.27524 194.101 2.24958 192.918 2.21707C190.698 2.1563 188.471 2.11196 186.248 2.06003C181.849 1.95697 177.445 1.87124 173.043 1.77667Z" fill="black" stroke="black"/>
</svg>
