<svg width="153" height="4" viewBox="0 0 153 4" fill="none" xmlns="http://www.w3.org/2000/svg">
<path fill-rule="evenodd" clip-rule="evenodd" d="M130.433 1.36603C129.341 1.33847 128.244 1.32684 127.151 1.30744C124.779 1.2656 122.407 1.22376 120.036 1.18193C118.715 1.15856 117.393 1.13269 116.073 1.11199C115.69 1.10599 115.307 1.10142 114.924 1.09773C114.064 1.08944 113.203 1.08522 112.343 1.07746C108.43 1.041 104.518 1.00471 100.604 0.968412C99.673 0.959793 98.7407 0.957726 97.8101 0.952837C95.5035 0.939831 93.198 0.927014 90.8913 0.914539C88.2897 0.899932 85.6871 0.879282 83.086 0.874435C78.8755 0.866495 74.6657 0.858562 70.4552 0.850799C68.0183 0.845938 65.5792 0.83325 63.1427 0.840277C58.9439 0.852139 54.7458 0.863652 50.547 0.874982C48.2532 0.881078 45.9572 0.88254 43.6649 0.900536C39.3233 0.934257 34.9823 0.968336 30.6401 1.00258C28.3201 1.02084 25.9974 1.02844 23.6823 1.06803C19.3596 1.14166 15.0368 1.21548 10.7135 1.28928C9.77989 1.30512 8.8457 1.32094 7.91095 1.33712C6.04427 1.3688 4.18412 1.42821 2.32238 1.47607C2.20573 1.48009 2.08851 1.48375 1.97186 1.48759C1.74922 1.50514 1.5553 1.53839 1.39009 1.58823C1.14369 1.66284 1.00287 1.76684 1.00182 1.87609C1.00077 1.98499 1.13956 2.09222 1.38447 2.17139C1.60738 2.24378 1.98715 2.30952 2.31443 2.30132C4.56063 2.24368 6.80348 2.18122 9.05515 2.14314C11.1421 2.10756 13.2284 2.07233 15.3148 2.03709C17.5919 1.99855 19.8685 1.96001 22.1451 1.92164C23.0623 1.906 23.9818 1.88258 24.9001 1.87547C28.4503 1.84796 31.9999 1.82132 35.5506 1.79453C37.763 1.77753 39.9765 1.76073 42.1889 1.74374C43.1032 1.73677 44.0176 1.72589 44.9318 1.72335C48.4495 1.7129 51.9678 1.70655 55.4849 1.69823C57.6174 1.69306 59.7493 1.68842 61.8812 1.68325C62.5979 1.68146 63.3146 1.67755 64.0313 1.67895C67.8302 1.68807 71.6279 1.69771 75.4262 1.70736C77.5473 1.71254 79.6678 1.7179 81.7888 1.72309C82.5445 1.72487 83.2991 1.72417 84.0542 1.72914C87.9713 1.75412 91.8878 1.77944 95.8048 1.8046C98.249 1.82017 100.69 1.83643 103.134 1.86193C107.294 1.90521 111.453 1.94831 115.612 1.9914C116.433 1.99985 117.253 2.01857 118.073 2.03392C120.368 2.07715 122.664 2.12038 124.959 2.16361C126.681 2.19617 128.403 2.22855 130.125 2.26093C131.347 2.28388 132.567 2.3242 133.788 2.35671C137.381 2.45218 140.973 2.54959 144.565 2.65445C145.477 2.68115 146.388 2.71158 147.301 2.7413C148.277 2.77289 149.258 2.80397 150.231 2.84794C150.383 2.85721 150.534 2.86753 150.685 2.87928C151.069 2.90834 151.438 2.90498 151.784 2.84481C152.103 2.78954 152.342 2.69481 152.442 2.5842C152.65 2.35137 152.199 2.09745 151.451 2.02533C150.798 1.96227 150.118 1.93302 149.443 1.90523C148.982 1.88606 148.52 1.86689 148.058 1.84807C147.17 1.81148 146.275 1.78866 145.384 1.75898C143.714 1.70351 142.039 1.66448 140.367 1.61786C137.058 1.5253 133.744 1.45009 130.433 1.36603Z" fill="black" stroke="black"/>
</svg>
