<svg width="134" height="4" viewBox="0 0 134 4" fill="none" xmlns="http://www.w3.org/2000/svg">
<path fill-rule="evenodd" clip-rule="evenodd" d="M114.048 1.19644C113.094 1.17186 112.136 1.16168 111.182 1.14446C109.111 1.10736 107.039 1.07026 104.968 1.03316C103.815 1.01244 102.661 0.989453 101.508 0.971131C101.174 0.965828 100.84 0.961807 100.505 0.958582C99.7536 0.951342 99.0018 0.947782 98.251 0.941027C94.834 0.909218 91.4175 0.877573 88.0001 0.845919C87.187 0.838404 86.3728 0.836806 85.5602 0.83266C83.5459 0.821578 81.5326 0.810668 79.5183 0.800067C77.2465 0.787625 74.9738 0.769725 72.7024 0.766099C69.0256 0.760144 65.3494 0.754195 61.6726 0.7484C59.5446 0.744713 57.4147 0.733958 55.287 0.741009C51.6205 0.752935 47.9544 0.764548 44.2879 0.775994C42.2848 0.782163 40.2798 0.784147 38.2781 0.801064C34.4868 0.832775 30.696 0.86481 26.9042 0.896998C24.8783 0.914161 22.85 0.921691 20.8283 0.958121C17.0535 1.02588 13.2787 1.0938 9.50332 1.16171C8.68804 1.17628 7.87226 1.19085 7.05598 1.20573C5.4259 1.23488 3.80152 1.28908 2.17575 1.33285C2.07388 1.33651 1.97152 1.33985 1.86966 1.34335C1.67523 1.35926 1.50588 1.38935 1.3616 1.43442C1.14641 1.50188 1.02341 1.59586 1.02246 1.69454C1.02151 1.7929 1.14267 1.88971 1.35652 1.96114C1.55115 2.02646 1.88277 2.08573 2.16856 2.07823C4.13007 2.02552 6.08865 1.96846 8.05492 1.93342C9.87733 1.90067 11.6992 1.86824 13.5211 1.83582C15.5097 1.80035 17.4977 1.76488 19.4857 1.72957C20.2867 1.71518 21.0897 1.69376 21.8915 1.68707C24.9917 1.66119 28.0914 1.63611 31.192 1.61088C33.124 1.59489 35.057 1.57908 36.989 1.56309C37.7874 1.55653 38.5858 1.54644 39.3842 1.54388C42.456 1.53343 45.5283 1.52667 48.5997 1.51814C50.4619 1.51286 52.3235 1.50805 54.1852 1.50276C54.8111 1.50094 55.4369 1.4972 56.0627 1.49827C59.3801 1.5054 62.6964 1.51301 66.0133 1.52062C67.8655 1.5247 69.7172 1.52893 71.5694 1.533C72.2293 1.53439 72.8883 1.53353 73.5477 1.53781C76.9682 1.55923 80.3882 1.58098 83.8088 1.60257C85.9432 1.61593 88.0751 1.62991 90.2093 1.65224C93.8413 1.69012 97.4737 1.72785 101.105 1.76557C101.822 1.77296 102.538 1.78964 103.254 1.80327C105.259 1.84165 107.263 1.88003 109.268 1.91841C110.771 1.94732 112.275 1.97607 113.779 2.00483C114.845 2.0252 115.911 2.06127 116.977 2.09028C120.115 2.17547 123.251 2.26241 126.388 2.35609C127.184 2.37994 127.981 2.40716 128.777 2.43374C129.63 2.46199 130.486 2.48978 131.336 2.52922C131.469 2.53754 131.6 2.54682 131.732 2.55739C132.067 2.58352 132.39 2.58039 132.692 2.52594C132.971 2.47592 133.179 2.39029 133.266 2.29036C133.448 2.08 133.055 1.85079 132.402 1.78586C131.831 1.72909 131.237 1.70287 130.648 1.67796C130.245 1.66078 129.842 1.6436 129.439 1.62674C128.663 1.59395 127.881 1.57359 127.104 1.54704C125.646 1.49742 124.183 1.46265 122.722 1.42102C119.833 1.33838 116.939 1.27141 114.048 1.19644Z" fill="black" stroke="black"/>
</svg>
