<svg width="240" height="5" viewBox="0 0 240 5" fill="none" xmlns="http://www.w3.org/2000/svg">
<path fill-rule="evenodd" clip-rule="evenodd" d="M204.491 2.07592C202.774 2.04289 201.05 2.02524 199.331 2.00009C195.602 1.94579 191.873 1.89148 188.144 1.83718C186.068 1.80687 183.989 1.77414 181.913 1.7464C181.311 1.73837 180.71 1.73172 180.107 1.72591C178.754 1.71288 177.401 1.70378 176.049 1.69127C169.897 1.63318 163.745 1.57527 157.592 1.51734C156.128 1.50358 154.663 1.49614 153.199 1.48599C149.573 1.45997 145.948 1.43413 142.321 1.40862C138.231 1.37933 134.139 1.34418 130.05 1.32434C123.43 1.29213 116.811 1.25993 110.191 1.22789C106.36 1.20899 102.525 1.1825 98.6945 1.17511C92.0933 1.16213 85.4929 1.14881 78.8917 1.13532C75.2854 1.12786 71.6756 1.1159 68.0718 1.11996C61.2461 1.1273 54.4213 1.135 47.5947 1.14285C43.9473 1.147 40.2956 1.14082 36.6561 1.16565C29.8603 1.21174 23.0644 1.25799 16.2677 1.30423C14.8 1.31412 13.3314 1.324 11.8618 1.33421C8.92721 1.35399 6.00302 1.40065 3.07626 1.43613C2.89289 1.43934 2.70862 1.4422 2.52525 1.44523C2.17531 1.46092 1.87063 1.49197 1.61117 1.53925C1.22422 1.61001 1.00342 1.70985 1.0024 1.81557C1.00138 1.92096 1.22021 2.02555 1.60573 2.10359C1.95661 2.17494 2.55407 2.24078 3.06857 2.23475C6.59972 2.19205 10.1256 2.14467 13.6654 2.12094C16.9463 2.09866 20.2263 2.07671 23.5062 2.05477C27.0862 2.03073 30.6652 2.00669 34.2442 1.98282C35.6862 1.97303 37.1317 1.95572 38.5754 1.95419C44.1568 1.94824 49.7373 1.94314 55.3196 1.93789C58.7979 1.93434 62.2779 1.93097 65.7562 1.92741C67.1936 1.92599 68.631 1.92079 70.0684 1.92365C75.5989 1.93404 81.1303 1.94838 86.66 1.96082C90.0126 1.96824 93.3644 1.97617 96.7162 1.98358C97.8429 1.98603 98.9697 1.98642 100.096 1.99195C106.069 2.02291 112.04 2.05436 118.012 2.08582C121.347 2.1032 124.68 2.12074 128.015 2.13811C129.203 2.14424 130.39 2.14795 131.577 2.15716C137.735 2.20415 143.893 2.25148 150.052 2.29864C153.894 2.32795 157.733 2.35791 161.576 2.39683C168.115 2.46294 174.655 2.52889 181.194 2.59482C182.484 2.60777 183.773 2.63067 185.063 2.6503C188.672 2.70551 192.282 2.76073 195.89 2.81593C198.597 2.85747 201.305 2.89884 204.013 2.94021C205.934 2.96954 207.853 3.01567 209.771 3.05424C215.421 3.16757 221.069 3.28276 226.718 3.40518C228.151 3.43633 229.585 3.47108 231.019 3.50516C232.555 3.54142 234.096 3.57721 235.627 3.62544C235.866 3.63529 236.103 3.64616 236.341 3.65841C236.944 3.68877 237.525 3.68768 238.068 3.63145C238.57 3.57982 238.945 3.48954 239.101 3.38307C239.427 3.15895 238.717 2.91058 237.541 2.83643C236.512 2.77159 235.444 2.73932 234.383 2.7085C233.657 2.68726 232.931 2.66601 232.205 2.64511C230.808 2.60453 229.4 2.57723 228.001 2.54331C225.375 2.4799 222.741 2.43237 220.111 2.3775C214.908 2.26866 209.698 2.17656 204.491 2.07592Z" fill="black" stroke="black"/>
</svg>
