<svg width="289" height="5" viewBox="0 0 289 5" fill="none" xmlns="http://www.w3.org/2000/svg">
<path fill-rule="evenodd" clip-rule="evenodd" d="M246.172 1.57132C244.103 1.52145 242.027 1.49956 239.955 1.46401C235.463 1.38736 230.97 1.3107 226.478 1.23404C223.977 1.19123 221.472 1.14402 218.971 1.10589C218.246 1.09485 217.522 1.0863 216.796 1.07931C215.166 1.0636 213.535 1.05506 211.907 1.0403C204.495 0.97105 197.084 0.902123 189.671 0.833176C187.907 0.816802 186.141 0.811944 184.378 0.802127C180.009 0.776233 175.642 0.750673 171.273 0.725714C166.345 0.696619 161.415 0.656899 156.488 0.644962C148.513 0.625472 140.538 0.605995 132.563 0.586818C127.947 0.575071 123.327 0.549563 118.712 0.558715C110.759 0.574049 102.807 0.588773 94.8534 0.603172C90.5085 0.610875 86.1593 0.610429 81.8174 0.639052C73.5937 0.692624 65.371 0.746827 57.1462 0.801324C52.7517 0.830375 48.3521 0.840673 43.967 0.90723C35.779 1.03099 27.591 1.15506 19.402 1.27912C17.6336 1.30573 15.8641 1.33233 14.0935 1.35954C10.5577 1.41277 7.0343 1.51476 3.50789 1.59645C3.28694 1.60336 3.06492 1.60964 2.84397 1.61624C2.42227 1.64679 2.055 1.70498 1.74212 1.79239C1.2755 1.92321 1.00889 2.10585 1.00704 2.2979C1.00519 2.48933 1.26822 2.67801 1.73224 2.81749C2.15456 2.94503 2.87401 3.0611 3.49391 3.04712C7.74855 2.94874 11.9968 2.84189 16.2619 2.77792C20.2148 2.71811 24.1667 2.65891 28.1186 2.59972C32.4319 2.53496 36.7441 2.4702 41.0563 2.40574C42.7937 2.37946 44.5354 2.3395 46.2747 2.3282C52.9994 2.2845 59.7229 2.24235 66.4486 2.19991C70.6393 2.17295 74.8321 2.14632 79.0228 2.11935C80.7546 2.10829 82.4865 2.09038 84.2182 2.08711C90.8815 2.07337 97.5457 2.06682 104.208 2.05682C108.247 2.05054 112.285 2.04518 116.324 2.03888C117.681 2.03669 119.039 2.03075 120.396 2.03417C127.592 2.05519 134.785 2.07712 141.98 2.09906C145.998 2.11097 150.014 2.12318 154.032 2.13508C155.464 2.13921 156.893 2.13896 158.323 2.14869C165.743 2.19774 173.161 2.24741 180.581 2.29678C185.211 2.32736 189.835 2.35915 194.465 2.40719C202.343 2.48873 210.222 2.56996 218.1 2.65118C219.654 2.6671 221.208 2.70109 222.761 2.72916C227.109 2.80817 231.458 2.88717 235.805 2.96617C239.066 3.02567 242.329 3.08486 245.591 3.14405C247.905 3.18599 250.217 3.25847 252.528 3.31722C259.334 3.48976 266.138 3.66571 272.943 3.85477C274.67 3.9029 276.397 3.95759 278.125 4.01103C279.975 4.06784 281.832 4.12377 283.676 4.20234C283.964 4.21883 284.249 4.23717 284.536 4.25802C285.262 4.30961 285.963 4.3042 286.617 4.19888C287.222 4.10213 287.674 3.93593 287.863 3.74163C288.257 3.3326 287.402 2.88567 285.986 2.7579C284.748 2.64619 283.46 2.59387 282.183 2.54415C281.308 2.50984 280.433 2.47553 279.559 2.44184C277.876 2.37636 276.18 2.33507 274.494 2.28172C271.33 2.18201 268.157 2.11121 264.989 2.02705C258.722 1.86001 252.445 1.72344 246.172 1.57132Z" fill="black" stroke="black"/>
</svg>
