<svg width="74" height="4" viewBox="0 0 74 4" fill="none" xmlns="http://www.w3.org/2000/svg">
<path fill-rule="evenodd" clip-rule="evenodd" d="M62.5458 1.7001C62.0267 1.67972 61.5056 1.67373 60.9859 1.66071C59.8589 1.63271 58.7316 1.6047 57.6046 1.5767C56.977 1.56104 56.3487 1.54313 55.7211 1.52987C55.5393 1.52604 55.3574 1.52348 55.1753 1.52173C54.7664 1.51779 54.3572 1.51753 53.9485 1.51407C52.0888 1.49727 50.2293 1.48063 48.3692 1.46399C47.9267 1.46004 47.4835 1.46202 47.0412 1.46144C45.9449 1.45921 44.8491 1.45714 43.7527 1.45538C42.5162 1.45292 41.2792 1.445 40.0429 1.45135C38.0416 1.46154 36.0406 1.47174 34.0393 1.48209C32.881 1.48775 31.7217 1.48635 30.5635 1.50274C28.5678 1.53077 26.5722 1.55848 24.5764 1.58603C23.4861 1.60099 22.3947 1.61178 21.3051 1.63749C19.2413 1.68585 17.1778 1.73453 15.1137 1.78337C14.0109 1.80943 12.9069 1.82587 11.8063 1.87117C9.7513 1.9555 7.69631 2.04 5.64104 2.12449C5.19721 2.14264 4.75311 2.16079 4.30873 2.17925C3.42133 2.21556 2.53692 2.27689 1.6518 2.3278C1.59633 2.33191 1.5406 2.3357 1.48514 2.33965C1.37924 2.35641 1.28693 2.38724 1.2082 2.43294C1.09077 2.50134 1.02341 2.59586 1.02246 2.69454C1.02151 2.7929 1.08704 2.88917 1.20312 2.95966C1.30878 3.02412 1.48902 3.08193 1.64461 3.07318C2.71252 3.01186 3.77885 2.9462 4.84927 2.90252C5.84137 2.86178 6.8332 2.82135 7.82503 2.78092C8.90757 2.73672 9.98984 2.69252 11.0721 2.64848C11.5081 2.63057 11.9453 2.60563 12.3818 2.59542C14.0694 2.55593 15.7567 2.51724 17.4445 2.47839C18.4962 2.45392 19.5484 2.42962 20.6001 2.40515C21.0347 2.39508 21.4693 2.38148 21.9039 2.37542C23.576 2.35148 25.2483 2.33123 26.9201 2.30921C27.9338 2.29575 28.9471 2.28277 29.9605 2.2693C30.3011 2.26473 30.6418 2.25824 30.9825 2.25656C32.7881 2.24913 34.5932 2.24217 36.3986 2.23522C37.4068 2.23116 38.4146 2.22725 39.4228 2.22319C39.782 2.22169 40.1407 2.21794 40.4996 2.21931C42.3613 2.22572 44.2228 2.23244 46.0845 2.23901C47.2463 2.243 48.4066 2.24761 49.5682 2.26057C51.545 2.2825 53.522 2.30428 55.4985 2.32605C55.8886 2.33029 56.2783 2.34382 56.668 2.3543C57.759 2.38388 58.85 2.41346 59.9407 2.44304C60.7589 2.46534 61.5774 2.48749 62.3959 2.50963C62.9764 2.52532 63.5564 2.55671 64.1362 2.58104C65.8437 2.65245 67.5507 2.72561 69.2578 2.80551C69.691 2.82586 70.1243 2.84958 70.5577 2.87267C71.0219 2.89716 71.4876 2.9212 71.9503 2.9569C72.0224 2.96464 72.0938 2.97334 72.1658 2.98333C72.348 3.00799 72.5238 3.00344 72.6881 2.94767C72.8404 2.89642 72.9542 2.80989 73.002 2.70958C73.102 2.49842 72.8886 2.27095 72.5336 2.20889C72.2231 2.15463 71.9002 2.13102 71.5797 2.1087C71.3603 2.09329 71.1409 2.07788 70.9215 2.06279C70.4994 2.03341 70.0739 2.01649 69.6509 1.99335C68.8574 1.95013 68.0613 1.92179 67.2666 1.88658C65.6941 1.81663 64.1194 1.76237 62.5458 1.7001Z" fill="black" stroke="black"/>
</svg>
