<svg width="221" height="5" viewBox="0 0 221 5" fill="none" xmlns="http://www.w3.org/2000/svg">
<path fill-rule="evenodd" clip-rule="evenodd" d="M188.401 1.92468C186.82 1.89241 185.232 1.87605 183.649 1.85192C180.215 1.79985 176.78 1.74777 173.347 1.6957C171.435 1.66663 169.52 1.63506 167.608 1.60865C167.054 1.601 166.5 1.59478 165.945 1.58943C164.7 1.57743 163.453 1.56949 162.208 1.55803C156.542 1.50467 150.877 1.45149 145.211 1.3983C143.863 1.38566 142.513 1.37957 141.165 1.37066C137.826 1.3477 134.487 1.32493 131.148 1.3025C127.381 1.27666 123.612 1.24478 119.846 1.2287C113.75 1.20259 107.654 1.17648 101.558 1.15055C98.0297 1.13517 94.4981 1.11195 90.9703 1.10846C84.8911 1.1022 78.8126 1.09559 72.7334 1.0888C69.4122 1.08499 66.0878 1.07654 62.769 1.08465C56.483 1.09963 50.1978 1.11497 43.9109 1.13048C40.5519 1.13872 37.189 1.13629 33.8371 1.16589C27.5786 1.22087 21.3201 1.27603 15.0607 1.33118C13.709 1.34298 12.3565 1.35478 11.0031 1.36692C8.30053 1.39054 5.6075 1.44193 2.91212 1.48176C2.74323 1.48527 2.57354 1.48842 2.40466 1.49176C2.08238 1.50835 1.80175 1.54076 1.56275 1.5899C1.20632 1.66344 1.00287 1.76684 1.00182 1.87609C1.00077 1.98499 1.20218 2.09283 1.55713 2.17305C1.88019 2.24641 2.43034 2.31379 2.90416 2.307C6.15616 2.25906 9.40329 2.20627 12.6633 2.17792C15.6848 2.15134 18.7054 2.12511 21.7261 2.09888C25.023 2.07017 28.319 2.04145 31.6151 2.0129C32.9431 2.00122 34.2743 1.98177 35.6038 1.97862C40.744 1.96643 45.8833 1.95512 51.0242 1.94365C54.2274 1.93621 57.4323 1.92896 60.6356 1.92152C61.9593 1.91849 63.2831 1.91156 64.6069 1.91296C69.7001 1.9177 74.7941 1.92653 79.8865 1.93339C82.9741 1.93743 86.0608 1.94199 89.1476 1.94602C90.1852 1.94733 91.2229 1.94651 92.2605 1.95101C97.7609 1.97652 103.26 2.00256 108.759 2.0286C111.83 2.04294 114.901 2.05745 117.972 2.07179C119.066 2.07684 120.158 2.07939 121.252 2.08762C126.923 2.12951 132.594 2.17174 138.266 2.2138C141.805 2.23993 145.339 2.26672 148.878 2.30278C154.901 2.36401 160.923 2.42507 166.945 2.48611C168.133 2.4981 169.321 2.52036 170.508 2.53926C173.832 2.5924 177.156 2.64554 180.479 2.69867C182.972 2.73866 185.466 2.77848 187.96 2.8183C189.728 2.84652 191.496 2.89211 193.263 2.92989C198.466 3.04087 203.667 3.15379 208.869 3.27416C210.189 3.3048 211.509 3.33916 212.83 3.37282C214.244 3.40863 215.664 3.44394 217.074 3.49212C217.293 3.50204 217.511 3.51301 217.731 3.52541C218.286 3.55613 218.821 3.55437 219.321 3.49569C219.784 3.44179 220.129 3.34809 220.273 3.23791C220.573 3.00596 219.919 2.75009 218.836 2.67474C217.89 2.60885 216.906 2.57667 215.929 2.54597C215.26 2.5248 214.592 2.50364 213.923 2.48282C212.636 2.4424 211.34 2.41572 210.051 2.38219C207.633 2.3195 205.207 2.27325 202.786 2.2194C197.994 2.11256 193.196 2.02304 188.401 1.92468Z" fill="black" stroke="black"/>
</svg>
