<svg width="298" height="6" viewBox="0 0 298 6" fill="none" xmlns="http://www.w3.org/2000/svg">
<path fill-rule="evenodd" clip-rule="evenodd" d="M254.178 2.26054C252.042 2.21001 249.897 2.18747 247.758 2.15127C243.119 2.0732 238.479 1.99513 233.841 1.91706C231.258 1.87346 228.672 1.82546 226.089 1.78654C225.34 1.77527 224.592 1.7665 223.842 1.75928C222.159 1.74306 220.475 1.734 218.793 1.71873C211.139 1.64715 203.486 1.57589 195.831 1.50461C194.01 1.48768 192.186 1.48226 190.366 1.47189C185.854 1.44462 181.344 1.41769 176.833 1.39136C171.744 1.36071 166.653 1.31944 161.565 1.30595C153.329 1.28395 145.094 1.26196 136.859 1.24028C132.092 1.22708 127.321 1.20011 122.555 1.20781C114.342 1.22064 106.13 1.23287 97.9175 1.24476C93.4307 1.2511 88.9395 1.24928 84.4559 1.27654C75.9636 1.32752 67.4724 1.37914 58.979 1.43105C54.441 1.45872 49.8978 1.46763 45.3694 1.53281C36.9141 1.65399 28.4588 1.77548 20.0024 1.89697C18.1762 1.92302 16.3489 1.94906 14.5205 1.97572C10.8693 2.02783 7.23088 2.12871 3.58934 2.2093C3.36117 2.21614 3.13191 2.22235 2.90374 2.22888C2.46828 2.25929 2.08903 2.31737 1.76597 2.40468C1.28415 2.53536 1.00889 2.71791 1.00704 2.90996C1.00519 3.10139 1.27687 3.29016 1.75609 3.42978C2.19224 3.55746 2.93522 3.67375 3.57536 3.65996C7.96891 3.56293 12.3559 3.45741 16.7602 3.39478C20.8422 3.33622 24.9231 3.27826 29.004 3.22031C33.4582 3.15691 37.9112 3.0935 42.3642 3.03041C44.1583 3.00467 45.9569 2.96526 47.753 2.95451C54.6972 2.91292 61.6403 2.87289 68.5856 2.83256C72.9131 2.80692 77.2429 2.78161 81.5704 2.75597C83.3588 2.74545 85.1472 2.72808 86.9355 2.72536C93.8163 2.71372 100.698 2.70926 107.578 2.70136C111.749 2.69635 115.919 2.69226 120.089 2.68724C121.491 2.68547 122.893 2.67996 124.295 2.6838C131.726 2.70708 139.154 2.73128 146.584 2.75549C150.733 2.76866 154.88 2.78213 159.029 2.7953C160.507 2.79988 161.983 2.80007 163.461 2.81026C171.122 2.86165 178.783 2.91365 186.445 2.96535C191.226 2.9974 196.002 3.03063 200.782 3.08014C208.918 3.16415 217.055 3.24787 225.189 3.33156C226.794 3.34797 228.399 3.38245 230.003 3.41101C234.493 3.49139 238.984 3.57176 243.473 3.65213C246.841 3.71265 250.209 3.77287 253.578 3.83308C255.968 3.87575 258.355 3.94896 260.742 4.00845C267.77 4.18313 274.797 4.36122 281.824 4.55241C283.607 4.60109 285.391 4.65632 287.175 4.71031C289.086 4.7677 291.003 4.82421 292.908 4.90337C293.204 4.91995 293.499 4.93838 293.795 4.95932C294.546 5.01114 295.269 5.00594 295.944 4.90083C296.569 4.80427 297.036 4.63822 297.231 4.44397C297.638 4.03507 296.755 3.58786 295.292 3.45965C294.013 3.34755 292.684 3.29483 291.365 3.2447C290.462 3.21011 289.558 3.17553 288.655 3.14157C286.917 3.07556 285.166 3.03373 283.425 2.97985C280.158 2.87915 276.881 2.80735 273.61 2.72219C267.137 2.55318 260.655 2.41463 254.178 2.26054Z" fill="black" stroke="black"/>
</svg>
